<?xml version="1.0" standalone="no"?>
<!DOCTYPE svg PUBLIC "-//W3C//DTD SVG 1.1//EN" "http://www.w3.org/Graphics/SVG/1.1/DTD/svg11.dtd" >
<svg xmlns="http://www.w3.org/2000/svg" xmlns:xlink="http://www.w3.org/1999/xlink" version="1.1">
<metadata>
Created by FontForge 20201107 at Tue Dec 27 07:17:56 2016
 By 
Copyright (c) 2016 by MaulanaCreative. All rights reserved.
</metadata>
<defs>
<font id="Astronout" horiz-adv-x="341" >
  <font-face 
    font-family="Astronout"
    font-weight="400"
    font-stretch="normal"
    units-per-em="1000"
    panose-1="0 0 0 0 0 0 0 0 0 0"
    ascent="750"
    descent="-250"
    x-height="231"
    cap-height="630"
    bbox="-232.846 -242.667 828.364 759"
    underline-thickness="50"
    underline-position="-100"
    unicode-range="U+000D-20AC"
  />
<missing-glyph horiz-adv-x="158" 
 />
    <glyph glyph-name="tt" unicode="tt" horiz-adv-x="125" 
d="M600 372q5 1 7.5 -2.5t2.5 -7.5q0 -9 -10 -9l-46 -5l-22 -2l-256 -25q-36 -3 -72.5 -6.5t-72.5 -7.5q-14 -38 -26.5 -76t-25.5 -76q-15 -48 -30 -94t-31 -93q-8 -24 -15 -47.5t-14 -46.5l-29 -93q-3 -9 -12.5 -6.5t-6.5 11.5q11 30 19.5 60.5t17.5 60.5t19 60l20 60
q23 70 46 139.5t47 138.5l-53 -5q-8 -20 -14.5 -40t-13.5 -40q-16 -48 -31 -94t-30 -94q-8 -23 -15.5 -46.5t-14.5 -47.5q-8 -23 -14.5 -46.5t-14.5 -46.5q-3 -8 -12 -5.5t-6 11.5q14 44 26 87q7 23 14 44.5t14 43.5q23 69 45 136.5t45 135.5l-157 -15q-4 -1 -6.5 2t-2.5 7
q0 10 9 10q20 2 38.5 3.5t37.5 3.5l88 9l30 83q4 10 12 7q4 -1 6.5 -4.5t0.5 -7.5q-16 -39 -27 -76q13 2 26 3t27 2l27 76q4 10 12 7q4 -1 6.5 -4.5t0.5 -7.5q-7 -17 -13 -34.5t-12 -34.5l214 21l200 19l48 5v0z" />
    <glyph glyph-name="ll" unicode="ll" horiz-adv-x="282" 
d="M295 197q4 -2 5 -6t-1 -7q-9 -12 -17 -25t-17 -26q-13 -20 -26.5 -39.5t-27.5 -39.5q-14 -19 -30 -37.5t-34 -34.5q-12 -11 -28.5 -22t-34.5 -9q-17 2 -28 14q-8 8 -11 18q-2 8 -2.5 15.5t0.5 15.5q2 16 6.5 31.5t8.5 31.5q3 14 6.5 28.5t7.5 28.5q-6 -8 -12 -15t-13 -14
q-6 -6 -12 -11.5t-13 -9.5q-8 -4 -17 -4.5t-15 6.5q-9 12 -8.5 27t3.5 28q11 46 26.5 91t31.5 90q17 47 32.5 93t32.5 93t33.5 93.5t32.5 93.5q3 9 12 7q10 -4 7 -12q-23 -68 -47 -134.5t-48 -134.5q-8 -23 -16 -46.5t-16 -46.5q-8 -24 -16 -47.5t-16 -46.5
q-8 -22 -14.5 -44t-12.5 -44q-2 -9 -4.5 -18t-1.5 -18l1 -1v-1v-2l2 -4v-2h1v-1h1h1q1 0 1.5 0.5t1.5 0.5l2 1t3 2t3 2l1 1q1 0 2 1q2 2 4 3l3.5 3.5l3.5 3.5q4 5 7.5 9t7.5 8q8 9 14 17t12 18q5 6 8.5 11.5t6.5 11.5q12 41 25.5 80.5t26.5 79.5q30 90 62 178t72 174
q2 3 6 4t7 -1q7 -4 4 -13q-32 -69 -57 -136q-17 -45 -32.5 -89t-30.5 -89t-30.5 -89.5t-29.5 -89.5q-7 -23 -13.5 -46.5t-12.5 -46.5q-3 -11 -5.5 -22t-5.5 -22q-2 -8 -3.5 -14.5t-3.5 -14.5t-3.5 -15.5t-1.5 -15.5q0 -10 1 -14q0 -1 1 -2v-1v-1q2 -2 2 -3l2 -2v-1q2 0 2 -2
l3 -3h1q2 -2 3 -2l1 -1q2 -1 6 -1h1h4h2h2q2 1 3.5 1t3.5 1q1 1 2 1q1 1 1.5 1t1.5 1q7 3 15 9q1 0 3 2h1l3 3q2 2 3.5 3t3.5 3q17 16 32.5 34.5t29.5 36.5q28 37 54 78q8 12 15.5 24.5t16.5 24.5q6 7 13 3z" />
    <glyph glyph-name="rr" unicode="rr" horiz-adv-x="141" 
d="M140 193q2 4 6 4.5t7 -1.5t4.5 -5.5t-0.5 -7.5q-3 -6 -7 -11l-8 -10l-12 -13q-7 -6 -17 -10t-18 4q-6 6 -6.5 15t1.5 17q2 10 4 15h-4q-13 -27 -24 -48q-10 -18 -21.5 -33t-20.5 -15q-2 0 -4 1q-7 2 -9 8t-2 13q0 15 3 32l4 16t5 16q1 2 2 5t2 5h-2h-1q-1 0 -1.5 0.5
t-1.5 0.5l-15 -46q-3 -9 -12 -6t-7 12q1 1 1 4q1 2 4 12.5t5 15.5t3 8.5t3 7.5l-1 1q-1 1 -3 5q-1 1 -1 2q-3 9 -2 17q0 11 11 15q13 2 19 -7q5 -9 2 -23q4 0 7.5 -0.5t7.5 -0.5q7 -2 7 -10v-3q-2 -5 -3.5 -8.5t-3.5 -8.5q-2 -7 -4 -13.5t-4 -12.5q-2 -7 -3 -13.5t-1 -14.5
q0 -2 -0.5 -3t-0.5 -3q5 2 11.5 14.5t14.5 26.5l18 38l-1 1q-11 11 -8 26q0 11 11 15q13 2 19 -7q5 -9 2 -23q4 0 7.5 -0.5t7.5 -0.5q7 -2 7 -10v-1l-1 -2q-2 -5 -3.5 -10t-2.5 -10q-1 -4 -1.5 -6.5t-0.5 -5.5v-5v-1q2 0 7.5 5.5l9.5 9.5q1 1 1.5 2t1.5 2l2 2q3 4 5.5 7.5
t4.5 7.5zM12 219q0 3 -1 3t1 -7v4zM82 216q0 6 -2 6t0 -6l2 -6v6z" />
    <glyph glyph-name=".notdef" horiz-adv-x="158" 
 />
    <glyph glyph-name=".null" horiz-adv-x="0" 
 />
    <glyph glyph-name="nonmarkingreturn" unicode="&#xd;" horiz-adv-x="158" 
 />
    <glyph glyph-name="NULL" horiz-adv-x="0" 
 />
    <glyph glyph-name="NULL" horiz-adv-x="0" 
 />
    <glyph glyph-name="space" unicode=" " horiz-adv-x="158" 
 />
    <glyph glyph-name="exclam" unicode="!" horiz-adv-x="116" 
d="M197 642q2 4 6 4.5t7 -1.5t4.5 -5.5t-0.5 -7.5q-19 -31 -30.5 -66t-21.5 -70q-5 -17 -10 -35l-10 -36l-24 -78l-63 -186l-30 -93q-8 -23 -15 -45.5t-10 -45.5q-2 -10 -10 -10q-10 0 -10 10q3 23 9.5 44.5t14.5 43.5q7 23 14 44.5t14 43.5q15 45 30 88.5t29 88.5
q8 22 15 44l14 44q6 19 11 38l10 38q11 38 23 76t33 72zM-22 -74q5 7 13.5 2.5t3.5 -12.5l-10 -14l-10 -14q-5 -8 -13.5 -3t-3.5 13q5 7 10 13.5t10 14.5z" />
    <glyph glyph-name="quotedbl" unicode="&#x22;" horiz-adv-x="132" 
d="M137 563q-2 -4 -6 -5t-7 1q-9 4 -5 13t7.5 19t6.5 19q2 3 6 4.5t7 0.5q8 -4 5 -13q-3 -10 -7 -19t-7 -20zM98 563q-2 -4 -6 -5t-7 1q-9 4 -5 13t7.5 19t6.5 19q2 3 6 4.5t7 0.5q8 -4 5 -13q-3 -10 -7 -19t-7 -20z" />
    <glyph glyph-name="numbersign" unicode="#" horiz-adv-x="246" 
d="M209 184q10 0 10 -10q0 -8 -10 -10q-9 -1 -18 -1.5t-19 -2.5q-6 -20 -12.5 -40t-13.5 -40q-3 -9 -12 -7q-9 3 -7 12q7 18 12.5 36t11.5 36q-14 -2 -28.5 -4t-28.5 -4q-17 -42 -30 -82q-1 -5 -4.5 -6t-7 -0.5t-6 3.5t-0.5 8q5 20 12 38.5t14 36.5q-9 0 -18 -0.5t-18 -0.5
t-9 10t9 10h22t22 2q7 14 11 26q-10 0 -15 1q-9 0 -9 9q0 4 2.5 7.5t6.5 2.5q6 -1 11.5 -1h11.5q6 17 12 33t11 33q3 9 12 6.5t7 -11.5q-10 -32 -21 -59q14 1 27 3.5t27 5.5q5 14 11 27l12 26q2 4 6 5t7 -1t4.5 -5.5t-0.5 -7.5q-5 -10 -9 -19.5t-8 -19.5q3 0 9 2
q10 2 12.5 -7.5t-6.5 -11.5q-6 -2 -12 -2.5t-11 -2.5q-3 -7 -5.5 -13.5t-4.5 -13.5q8 2 15 2.5t15 1.5zM102 170q14 2 28 3.5t28 3.5q2 7 4 13l4 12q-14 -2 -27 -4t-27 -4q-2 -6 -4.5 -12t-5.5 -12z" />
    <glyph glyph-name="dollar" unicode="$" horiz-adv-x="220" 
d="M246 652q-8 -24 -17 -48.5t-17 -49.5q-8 -22 -15 -43.5t-14 -43.5q12 -4 24 -10.5t21 -15t13.5 -20t1.5 -25.5q-2 -10 -11 -7t-7 12q2 12 -6 23q-12 12 -27 19q-4 2 -7.5 3t-8.5 3q-19 -56 -37.5 -110.5t-36.5 -110.5q18 -27 33 -57q5 -10 8 -19.5t7 -19.5q6 -18 9 -36
q1 -10 0 -20t-5 -19q-7 -20 -24 -37q-12 -11 -26.5 -20t-31.5 -11q-27 -5 -50 6q-17 -50 -33.5 -99t-33.5 -99q-3 -8 -12.5 -5.5t-6.5 11.5q8 24 16.5 48.5t17.5 49.5q8 26 17 52l18 52q-18 13 -25 33q-2 4 0.5 7.5t6.5 4.5q8 3 12 -7v-1q1 -1 1 -2q1 -1 1 -1.5t1 -1.5
q1 -2 3 -4q0 -3 1 -3q4 -4 6 -5q17 51 34 100.5t34 100.5q-13 20 -25.5 40t-23.5 42q-10 20 -17.5 40.5t-7.5 42.5q0 11 2.5 21.5t7.5 19.5q14 22 36 31q26 12 55 13.5t57 -4.5l63 186q3 8 12.5 5.5t6.5 -11.5zM108 180q-4 7 -7.5 13t-6.5 12q-3 -8 -5.5 -15t-4.5 -14
q-14 -41 -28 -81.5t-28 -81.5q9 -4 20 -6h4h5h9q7 1 18 5q10 4 19 10.5t17 14.5q7 8 12 16.5t7 19.5q2 8 1 17t-3 18q-5 19 -12 37t-17 35zM98 279q15 44 30 87.5t30 87.5q-10 2 -19.5 3t-19.5 0q-14 0 -30 -2.5t-28 -8.5q-8 -4 -11 -6q-1 -1 -1.5 -1t-1.5 -1l-1 -1
q-2 -2 -4 -3q-1 -1 -1.5 -2t-2.5 -2q0 -1 -0.5 -1t-0.5 -1l-1 -1q-2 -2 -2.5 -4t-2.5 -4q0 -1 -1 -2v-1q-1 -2 -1 -2.5t-1 -2.5q0 -3 -2 -9v-1v-3v-5v-9q0 -4 1 -5v-2v-2q2 -8 2 -10q2 -5 3.5 -10.5t3.5 -10.5q0 -1 2 -5q0 -1 0.5 -1.5t0.5 -1.5v-1q2 -3 4 -9q2 -4 4.5 -8
t4.5 -9q8 -16 17 -30.5t19 -29.5q2 8 5 15t5 15z" />
    <glyph glyph-name="percent" unicode="%" horiz-adv-x="292" 
d="M148 321q-5 -5 -10.5 -2.5t-6.5 8.5q0 6 1 12t5 11q3 5 6 8.5t6 7.5q7 7 14 3q3 -2 4 -6t-1 -7q0 -4 -1 -6q-2 -4 -3 -7.5t-3 -7.5q-5 -11 -11 -14zM286 403q7 7 13.5 0t0.5 -14q-38 -37 -72 -76t-66 -81q-55 -72 -106 -145t-103 -147q-5 -9 -14 -4q-8 6 -3 13
q31 45 61 88.5t62 87.5q52 73 107.5 143.5t119.5 134.5zM128 60q8 3 12 -7q5 -14 5.5 -30.5t-2.5 -30.5q-4 -15 -13 -28.5t-25 -15.5q-10 -2 -12 7q-5 23 4 44t19 41q2 5 7 5q-1 1 -1 1.5t-1 1.5q-2 4 0.5 7.5t6.5 4.5zM125 0q1 5 1 9v9q-5 -11 -9.5 -22.5t-5.5 -23.5
q2 1 3 2.5t2 2.5q4 5 5.5 10.5t3.5 12.5z" />
    <glyph glyph-name="ampersand" unicode="&#x26;" horiz-adv-x="302" 
d="M276 512q6 -8 5.5 -19t-3.5 -21q-7 -23 -19 -44t-25 -41q-22 -35 -45.5 -67t-49.5 -64q5 -21 9 -42t10 -41l3 -9q8 9 16.5 18t16.5 19q3 3 7.5 2.5t6.5 -2.5q6 -6 0 -14q-10 -10 -18.5 -20t-18.5 -20q-2 -2 -3 -4l26 -70t12 -75q-1 -5 -4 -7t-7 -2t-6.5 2t-2.5 7
q2 32 -7 58q-5 19 -12 36t-14 35q-24 -27 -50 -53l-34.5 -34.5t-37.5 -32.5q-8 -8 -18 -14.5t-20 -10.5q-11 -4 -20 0t-9 17q0 10 3.5 20.5t8.5 19.5q5 11 10.5 21.5t10.5 21.5q25 43 53 83.5t57 79.5q3 4 6 7.5t5 6.5q-2 5 -2.5 10t-1.5 10q-7 20 -10 46q-5 23 -4.5 45.5
t8.5 45.5q16 42 50 69q18 14 39 24.5t44 12.5q9 2 18.5 0t16.5 -10zM124 234v1q-2 -2 -3 -4t-3 -4q-15 -20 -29.5 -39.5t-28.5 -40.5q-14 -20 -26 -41t-24 -43q-6 -11 -11 -21t-10 -21q-2 -5 -4 -9.5t-2 -9.5v-3l2 1q10 2 19 9t17 14q9 8 18.5 16.5t17.5 16.5q24 22 45.5 45
t43.5 46q-8 21 -12.5 42.5t-9.5 44.5zM247 447q5 10 9.5 20t4.5 21q1 8 -2 12t-12 4q-21 -1 -42 -13q-19 -8 -36 -21t-28 -30q-13 -19 -18 -40.5t-3 -43.5q1 -20 5 -38.5t9 -37.5q23 30 46 61t43 64q7 11 13 21t11 21z" />
    <glyph glyph-name="quotesingle" unicode="'" horiz-adv-x="144" 
d="M121 563q-2 -4 -6 -5t-7 1q-9 4 -5 13t7.5 19t6.5 19q2 3 6 4.5t7 0.5q8 -4 5 -13q-3 -10 -7 -19t-7 -20z" />
    <glyph glyph-name="parenleft" unicode="(" horiz-adv-x="142" 
d="M361 672q7 7 14 0.5t0 -13.5q-41 -41 -77 -85t-68 -92q-98 -143 -164 -304q-11 -25 -19 -49t-14 -50q-7 -26 -11.5 -52.5t-6.5 -53.5q-3 -26 0 -53q0 -4 1 -6q0 -3 -0.5 -1.5t0.5 -0.5v-3q1 -2 1 -5t1 -6q2 -5 3.5 -11t3.5 -11l1 -1q0 -2 1 -3q0 -2 2 -4t2.5 -4.5
t2.5 -4.5q3 -4 6 -7l3.5 -3.5l3.5 -3.5l2 -2h1q1 -1 2 -1.5t2 -1.5q6 -4 9 -5q1 0 2 -1q1 0 2 -1q2 0 3 -0.5t2 -0.5l12 -3q10 -2 6 -12q-2 -8 -12 -6q-35 5 -58 34q-11 14 -16 30.5t-7 33.5q-4 27 -2.5 54.5t5.5 54.5q9 50 24 101q10 32 22.5 63t26.5 61q35 78 80 155
q45 75 96 144t112 130z" />
    <glyph glyph-name="parenright" unicode=")" horiz-adv-x="206" 
d="M140 660q-1 5 2 7.5t7 2.5q10 0 10 -10q9 -96 9 -195q0 -60 -5 -120t-18 -120t-34.5 -118t-55.5 -110q-72 -113 -188 -177q-4 -2 -7.5 -1t-5.5 4t-1.5 7t4.5 6q49 28 91.5 65t74.5 83q36 51 60 106.5t38 115.5q14 59 20 118.5t8 119.5q1 55 -1.5 108.5t-7.5 107.5z" />
    <glyph glyph-name="asterisk" unicode="*" horiz-adv-x="154" 
d="M233 576q3 -5 -3 -11q-15 -10 -30.5 -20t-30.5 -19q3 0 6 0.5t6 0.5q8 0 8 -8t-8 -9q-9 -1 -18 -1t-19 -1q4 -11 7 -20.5t7 -18.5q2 -4 -0.5 -7t-4.5 -3q-8 -3 -10 5q-7 13 -9 24q-2 -4 -6 -14q-2 -9 -9 -5q-3 0 -5.5 3t-0.5 7t3.5 7.5t3.5 8.5q-4 -2 -5 -2
q-16 -10 -26 -24q-5 -6 -12 -2t-2 11q11 17 29 26q-4 0 -6 -1q-3 0 -5.5 3t-2.5 6q0 6 8 8q6 1 12.5 1.5t13.5 1.5q-3 11 -4.5 21t-3.5 21q-2 8 6 10q2 1 5.5 -0.5t3.5 -4.5l6 -30q4 11 7.5 21.5t6.5 21.5q2 8 9.5 5.5t5.5 -10.5q-2 -11 -6 -22l-8 -22q17 11 35 22t35 23
q8 4 11 -3z" />
    <glyph glyph-name="plus" unicode="+" horiz-adv-x="320" 
d="M290 204q1 -4 -1 -8t-6 -4q-31 -5 -61.5 -9.5t-61.5 -7.5q-10 -25 -18.5 -49t-15.5 -50q-1 -5 -4.5 -6t-7 -0.5t-6 3.5t-0.5 8q6 24 14 46.5t16 45.5q-20 -1 -40.5 -0.5t-40.5 3.5q-9 2 -7 12q3 9 12 7q40 -6 84 -1q11 26 20 52.5t17 54.5q1 4 4.5 5.5t7 0.5t5.5 -4t1 -8
q-7 -26 -15.5 -50.5t-17.5 -48.5h1q27 3 54 6.5t55 7.5q9 2 12 -6z" />
    <glyph glyph-name="comma" unicode="," horiz-adv-x="70" 
d="M40 104q4 -1 6.5 -4.5t0.5 -7.5l-6 -18q-2 -9 -12 -7q-9 2 -7 12l6 18q3 9 12 7z" />
    <glyph glyph-name="hyphen" unicode="-" horiz-adv-x="220" 
d="M168 205q10 0 10 -9.5t-10 -9.5h-109q-10 0 -10 9.5t10 9.5h109v0z" />
    <glyph glyph-name="period" unicode="." horiz-adv-x="76" 
d="M24 105q10 0 10 -10t-10 -10t-10 10t10 10z" />
    <glyph glyph-name="slash" unicode="/" horiz-adv-x="223" 
d="M331 706q2 5 6 6t7.5 -1.5t5 -7t-0.5 -9.5q-28 -63 -59 -130q-48 -101 -98 -198.5t-101 -196.5t-100 -197t-94 -201q-2 -5 -6 -6t-7 1.5t-4.5 7t0.5 9.5q14 33 29 65.5t30 64.5q48 101 98.5 199t101.5 197q51 98 99 196t93 201z" />
    <glyph glyph-name="zero" unicode="0" horiz-adv-x="336" 
d="M319 451q12 -61 4 -123.5t-32 -119.5q-14 -31 -32 -59.5t-44 -51.5q-13 -12 -27 -22t-30 -18q-14 -6 -29 -10t-31 -2q-28 3 -46 21q-20 21 -26 49q-8 33 -4 67.5t14 66.5q11 37 28 71.5t38 66.5q20 30 44.5 57t53.5 49q3 3 7 1.5t6 -4.5q4 -7 -3 -13q-37 -28 -66 -65
q-48 -62 -76 -131q-13 -32 -21 -65.5t-6 -68.5q1 -14 4 -28t10 -25q6 -10 15 -18q3 -2 8 -5t9 -4q4 -2 7 -2q2 0 3 -1h1h12q7 0 14 2l14 4q16 5 30 14t27 20q25 22 43.5 49.5t32.5 58.5q14 30 22 62.5t12 65.5q2 16 2 31t-1 31q-1 6 -1.5 12t-1.5 11v4v1q0 2 -0.5 2.5
t-0.5 2.5q-1 3 -1 6t-1 6q-2 6 -3.5 12t-3.5 12q-1 3 -2 5t-1.5 2.5t-1.5 2.5q0 1 -2 5l-2 2v1q-2 1 -2.5 2t-1.5 2q-1 0 -1 1q-1 0 -2 1t-2 1h-1q-1 1 -4 1h-1q-2 2 -2 0h-2h-2q-5 -1 -10 -5q-4 -2 -7.5 -0.5t-5.5 4.5t-1.5 7t4.5 6q14 8 28 7.5t25 -12.5q10 -11 15 -25
t8 -28z" />
    <glyph glyph-name="one" unicode="1" horiz-adv-x="176" 
d="M179 541q6 5 12 1.5t5 -11.5q-3 -19 -9 -37l-12 -36q-7 -18 -13 -36.5t-13 -36.5q-17 -46 -34 -91.5t-34 -92.5q-8 -23 -16.5 -46t-16.5 -46q-4 -11 -7.5 -23t-6.5 -23q-2 -11 -4.5 -21t-5.5 -21q6 1 12 1.5t12 2.5q9 0 12 -7q1 -4 -1 -8t-6 -4q-19 -3 -37 -6t-37 -1
q-10 2 -10 10q0 4 2.5 7.5t7.5 2.5q12 -1 25 0q5 20 9.5 40.5t11.5 40.5q6 19 12.5 37.5t13.5 37.5q17 47 34 92.5t34 91.5q8 23 16 45.5t16 45.5l10 28t9 28l-21 -21q-3 -3 -6.5 -2.5t-6.5 3t-3.5 6.5t2.5 7q11 11 22 21.5t22 20.5z" />
    <glyph glyph-name="two" unicode="2" horiz-adv-x="290" 
d="M296 481q5 -14 6.5 -30t0.5 -31q-1 -30 -11 -60q-7 -17 -16 -33t-20 -30q-24 -34 -53 -65t-61 -59t-64 -55q-14 -11 -28 -23.5t-25 -27.5q-15 -19 -28 -45q58 2 115 6.5t114 13.5q10 2 12 -6q2 -4 0 -8t-6 -4q-63 -11 -125 -15.5t-125 -6.5q-4 0 -7.5 3.5t-1.5 8.5t4 9.5
t4 9.5q14 30 38 57q13 14 27.5 26.5t28.5 25.5q33 27 64.5 55t59.5 60q14 15 26.5 31t23.5 33q5 8 9.5 16t9.5 17q2 4 2.5 6t2.5 7l2 6l2 6q7 28 7 60q-1 14 -3.5 27t-10.5 24l-2 2q-1 1 -1 1.5t-1 1.5q-1 0 -2 1l-1 1q-3 2 -5.5 3.5t-4.5 2.5q-3 0 -7 2h-3h-2h-5h-3h-2
q-14 -2 -25 -8.5t-21 -14.5q-24 -20 -38 -45q-7 -11 -12 -21.5t-7 -22.5q-2 -9 -12 -7q-9 3 -7 12q3 17 13 34q13 27 34 49q11 11 22.5 20.5t25.5 15.5q13 5 26.5 7t27.5 -3q27 -10 38 -40z" />
    <glyph glyph-name="three" unicode="3" horiz-adv-x="362" 
d="M327 244q7 -34 -4.5 -66.5t-30.5 -59.5q-21 -29 -47 -54t-57 -43q-16 -9 -32 -15.5t-33 -9.5q-15 -3 -31.5 -3.5t-31.5 4.5q-26 10 -38.5 33t-17.5 49q-4 26 -3.5 51.5t3.5 51.5q0 9 10 9q3 0 6.5 -2.5t2.5 -6.5q-2 -23 -3 -47t2 -45l2 -12t3 -12q2 -8 4 -12q1 -4 4 -8
q1 -5 6 -10q0 -1 1 -2l1 -1q1 -2 3 -4q7 -7 16 -11q2 -1 5.5 -2t5.5 -2q4 -1 6 -1t6 -1h15.5t15.5 2q17 3 33 9.5t30 14.5q60 37 100 95q17 25 27 56.5t-1 61.5q-5 13 -13.5 24t-18.5 22q-13 12 -26 23t-26 23q-3 2 -2.5 6.5t2.5 6.5q20 22 39.5 44t33.5 48l6 12l1 2v1h1
q0 2 0.5 3t0.5 2q3 6 3 11l1 1v1v5v2q-1 2 -1 4h-1v2q-1 1 -1 2h-1q-2 2 -5.5 4.5t-7.5 2.5q-13 0 -23 -6q-7 -5 -13 -9.5t-11 -10.5q-10 -10 -18 -21l-16 -22q-6 -7 -14 -4q-3 2 -4 6.5t1 7.5q13 18 27 36t34 31q10 6 21 9.5t22 1.5q8 -2 15.5 -7t10.5 -13q5 -10 4 -20.5
t-5 -20.5q-5 -13 -11 -24t-14 -22q-12 -17 -26 -33l-28 -32q2 -2 4.5 -4t4.5 -4q23 -20 46.5 -43t29.5 -55z" />
    <glyph glyph-name="four" unicode="4" horiz-adv-x="246" 
d="M301 532q2 4 5.5 5t6.5 -1t5 -6t0 -8q-25 -51 -45 -102.5t-38 -105.5q-16 -45 -31 -89t-31 -89q-17 -47 -32.5 -92.5t-27.5 -93.5q-1 -5 -4.5 -6t-7 -0.5t-6 3.5t-1.5 8q14 54 32 105t36 103q-9 -7 -17.5 -13t-18.5 -11q-10 -6 -23.5 -12.5t-27 -9.5t-26.5 0t-22 16
q-10 13 -8.5 31t5.5 32q6 23 15 45t20 44q13 25 27 48.5t29 46.5q14 22 28 43t30 41q10 13 20.5 26t22.5 24q4 3 8 2.5t6.5 -3t3 -6.5t-3.5 -7q-8 -6 -15 -15q-6 -7 -12 -13.5t-11 -14.5q0 -1 -1 -2l-2 -2q-1 -1 -1.5 -2t-1.5 -2q-2 -2 -3.5 -4.5t-3.5 -4.5q-4 -5 -7 -10
t-7 -10q-31 -43 -59 -91l-27 -48l-6 -12t-5 -12l-6 -12q-2 -4 -2 -5q-1 -1 -1 -3q-1 0 -1 -1q-9 -21 -15 -42q-1 -5 -2 -9t-1 -9l-1 -1v-2v-4v-7v-4v-3q0 -2 0.5 -2.5t0.5 -2.5q0 -1 0.5 -1.5t0.5 -1.5l1 -1l1 -2l1 -1q2 -3 5 -5q1 0 2 -1h2q1 -1 5 -1q0 -1 2 -1h2q4 0 6 1
h1h1h3q2 1 3 1t3 1q26 8 48.5 24t44.5 33h1q29 86 58.5 171t69.5 166z" />
    <glyph glyph-name="five" unicode="5" horiz-adv-x="216" 
d="M277 521q10 0 10 -9.5t-10 -10.5q-28 -1 -55 -5t-54 -7q-20 -50 -37.5 -99.5t-35.5 -100.5q8 8 15.5 13.5t17.5 7.5q12 3 22.5 -1.5t15.5 -15.5t6.5 -23.5t1.5 -25.5q-1 -29 -5.5 -57.5t-15.5 -54.5q-30 -71 -95 -116q-26 -19 -56 -33q-11 -6 -27 -10.5t-27 6.5
q-6 7 0.5 14t13.5 0l1 -1h1h1h3h2h3q2 1 4 1.5t4 1.5q8 2 15.5 6t15.5 9q31 17 58 40t47 55q9 14 16 29.5t12 32.5q3 14 4.5 26t3.5 26q1 12 1.5 24.5t-1.5 25.5v2q0 1 -0.5 1.5t-0.5 1.5q0 2 -0.5 2.5t-0.5 2.5q0 1 -0.5 2t-0.5 2l-2 3q0 1 -0.5 1t-0.5 1l-1 1l-1 1
q-1 1 -2 1q-1 1 -2.5 1t-0.5 0h-2h-2q-1 0 -2 -0.5t-3 -0.5q-2 -1 -3.5 -1.5t-4.5 -2.5q-6 -4 -11.5 -9.5l-10.5 -10.5q-9 -11 -17 -22t-14 -24q-3 -8 -11.5 -4t-5.5 12q25 68 48.5 136t50.5 136q3 7 9 7q29 3 58 7t58 6z" />
    <glyph glyph-name="six" unicode="6" horiz-adv-x="272" 
d="M309 506q3 -2 3 -6.5t-3 -6.5q-7 -7 -11 -10q-63 -53 -123.5 -111t-102.5 -130q0 -1 -1 -2q33 6 63 -4q29 -11 48.5 -35.5t24.5 -55.5q2 -14 2 -28t-5 -27q-4 -10 -9 -19.5t-10 -18.5q-14 -22 -32 -42t-41 -33q-20 -13 -42 -12q-14 2 -23.5 10t-17.5 19
q-22 30 -24.5 67.5t4.5 72.5q8 35 22 68.5t34 64.5q44 70 105.5 128t124.5 111q7 7 14 0zM64 219q-2 -2 -4 0q-13 -26 -22 -52.5t-13 -55.5q-2 -17 -2 -34.5t5 -34.5q5 -19 13 -31q2 -4 4.5 -7.5t4.5 -5.5q1 -2 2 -2.5t2 -1.5l3 -3q1 -1 5 -3l2 -1t2.5 -1t2.5 -1h2h6h3
q3 0 9 2q9 3 18 9t19 15q17 17 31.5 36t25.5 42v1q0 1 0.5 1t0.5 1t0.5 1.5t0.5 2.5q2 4 2 6q3 15 2 28q-2 31 -17 53q-16 23 -43 34q-30 10 -65 2z" />
    <glyph glyph-name="seven" unicode="7" horiz-adv-x="284" 
d="M343 528q5 0 8 -4t1 -9q-13 -33 -29.5 -64t-35.5 -62q-20 -32 -41.5 -62.5t-42.5 -61.5l-6 -9q20 2 39.5 4t39.5 4q4 1 7 -2.5t3 -6.5q0 -10 -10 -10q-23 -3 -46.5 -5.5t-46.5 -4.5q-22 -32 -43 -63.5t-43 -63.5q-26 -40 -51.5 -80.5t-48.5 -82.5q-2 -4 -6 -4.5t-7 1.5
t-4.5 5.5t0.5 7.5q39 71 84 137.5t90 134.5q1 1 1.5 2t1.5 2q-18 -2 -36 -5t-36 -8q-5 -1 -8 1.5t-3.5 6t0.5 7t6 4.5q23 5 46 9t46 7q20 30 41 60t41 61q20 32 39.5 65t34.5 68q-54 -5 -108.5 -10t-109.5 -10q-9 0 -9 10q0 8 9 10q119 9 233 21z" />
    <glyph glyph-name="eight" unicode="8" horiz-adv-x="288" 
d="M341 487q10 -12 10.5 -27t-4.5 -29q-8 -20 -20 -38.5t-25 -35.5q-25 -35 -52 -67.5t-55 -64.5q3 -7 6 -13.5t6 -14.5q7 -19 8.5 -39.5t-4.5 -40.5q-5 -18 -15.5 -34.5t-22.5 -30.5q-10 -12 -22.5 -24t-26.5 -21.5t-30 -14t-33 -0.5q-14 3 -26 12t-18 22q-5 11 -6 23.5
t1 24.5q5 29 19.5 55t30.5 50q14 22 29.5 43t28.5 44q2 4 6 4.5t7 -1.5t4.5 -5.5t-0.5 -7.5q-8 -14 -17 -26.5t-17 -25.5q-17 -24 -34 -49t-28 -53q-5 -11 -8 -23t-3 -23v-6v-2l1 -2q0 -3 2 -9l1 -2q1 0 1 -2q1 -1 1.5 -2t1.5 -2l1 -2q1 0 1 -1q2 -1 2.5 -2t1.5 -2
q11 -10 24 -11.5t27 3.5q15 6 28 16t24 21q11 13 21 26.5t18 28.5q18 37 5 77q-5 15 -12 30q-5 0 -7.5 4.5t-0.5 9.5q-4 7 -7.5 13.5t-7.5 12.5q-11 17 -20.5 32.5t-17.5 32.5q-10 18 -16.5 37.5t-8.5 39.5t3 39.5t17 35.5q20 26 51.5 37t63.5 12q16 1 31 -1t31 -5
q14 -3 28 -9t23 -17zM332 454q1 7 -1 12v1q-1 1 -1 2q-1 1 -1 1.5t-1 1.5l-1 1q-8 9 -19 13q-12 6 -27 8.5t-29 4.5q-29 2 -60 -3.5t-53 -25.5q-13 -12 -19.5 -28.5t-7.5 -34.5q-1 -19 5 -37.5t15 -35.5q8 -17 17.5 -33t19.5 -33l8 -12t8 -13q15 18 30.5 35.5t30.5 36.5
q14 17 27.5 35t25.5 37q11 17 23 37q4 8 7 15.5t3 14.5z" />
    <glyph glyph-name="nine" unicode="9" horiz-adv-x="268" 
d="M298 521q4 -1 5.5 -4.5t1 -7t-4 -6t-7.5 -1.5q-1 0 -1.5 0.5t-2.5 0.5h-1h-7h-3q0 -1 -1 -1h-2q-2 0 -3.5 -0.5t-3.5 -0.5q-4 -2 -5 -2q-1 -1 -3 -1l-1 -1q-2 -1 -4.5 -2t-4.5 -2q-5 -3 -10 -6.5t-10 -6.5q-8 -7 -18 -16t-18 -18t-14 -18t-13 -20q-2 -5 -5 -10
q0 -2 -2 -4v-2l-1 -1q-1 -2 -3 -8q0 -3 -1 -4v-3v-5q0 -1 1 -2q0 -1 1 -1h1l1 -1h1v1h2q1 1 1.5 1t1.5 1q1 0 3 2l1 1q1 1 1.5 1t1.5 1l9 9q17 18 31.5 39.5t29.5 41.5q0 2 2 2q3 8 11 6q9 -3 7 -12q-9 -61 -24 -119q-11 -42 -24.5 -82.5t-30.5 -80.5q-18 -41 -39 -78
q-8 -15 -17.5 -29.5t-21.5 -28.5q-19 -22 -42 -38q-10 -7 -20.5 -11.5t-22.5 -5.5q-11 -1 -20 3t-14 13q-8 12 -9 26.5t0 27.5q2 10 10 10q10 0 10 -10q-1 -8 -1.5 -16t1.5 -15q1 -2 1 -3t1 -3q0 -1 1 -2v-1q1 -2 1.5 -2.5t1.5 -2.5l1 -1l2 -2q1 -1 3 -1q0 -1 1 -1h1
q1 -1 2 -1h1h4h3q6 2 9 2q5 2 9 4t9 6q6 3 10.5 6.5t9.5 7.5q26 23 44 52.5t34 60.5q32 66 54 135t36 141q-5 -6 -9.5 -12.5t-9.5 -12.5q-8 -11 -17 -22t-20 -19q-8 -5 -17 -7.5t-17 3.5t-9.5 14t0 17t5.5 18t8 15q24 44 64 76q17 14 39 24.5t45 4.5zM159 367q-2 1 -1.5 1
t1.5 -1z" />
    <glyph glyph-name="colon" unicode=":" horiz-adv-x="130" 
d="M95 237q2 -5 2 -10.5t-3 -10.5q-2 -5 -6 -6q-3 -2 -7 -2h-4q-6 2 -8 5q-5 3 -5 10q0 6 3 11q2 1 2.5 2t2.5 3q2 1 3 2t3 2q4 3 9 1q6 -2 8 -7zM60 153q6 -8 6 -14q0 -8 -6 -12q-2 -2 -4 -3t-4 -3h-5q-3 -1 -7 1q-3 2 -5 5q-1 2 -1 5v4q0 3 2 5q1 2 1.5 2.5t1.5 2.5
q2 2 4 3q0 1 1 1q0 1 2 3q6 6 14 0z" />
    <glyph glyph-name="semicolon" unicode=";" horiz-adv-x="124" 
d="M82 243q6 2 10 -2t2 -10q-2 -10 -10.5 -17t-19.5 -5q-5 1 -8.5 5t-2.5 9q1 10 12 19q7 6 13 0q2 1 4 1zM50 155q6 5 12.5 0.5t3.5 -11.5q2 -2 0 -5q-9 -23 -24 -42q-2 -3 -6.5 -2.5t-7.5 2.5q-6 6 0 14q9 11 13 20q-4 6 -1 11q2 4 5 7t5 6z" />
    <glyph glyph-name="less" unicode="&#x3c;" horiz-adv-x="304" 
d="M297 305q2 -3 1 -7t-5 -6q-16 -8 -32.5 -14t-33.5 -13l-63 -27q-26 -11 -52.5 -21.5t-54.5 -17.5q8 -7 15.5 -14t15.5 -14q13 -11 24.5 -23t23.5 -23q20 -19 41.5 -36t32.5 -42q3 -9 -4 -13q-3 -2 -7 -1t-6 4q-11 24 -32 40.5t-39 34.5q-12 11 -23.5 22.5t-24.5 22.5
q-11 11 -22 21t-24 18q-5 3 -4.5 9.5t6.5 8.5q33 5 65 16.5t62 25.5q17 7 32.5 14t31.5 14q16 6 31.5 11.5t31.5 12.5q8 6 13 -3z" />
    <glyph glyph-name="equal" unicode="=" horiz-adv-x="272" 
d="M79 215q-9 0 -9 10q0 7 9 9q38 -5 77 -3.5t78 -1.5q9 -1 9 -10t-9 -9q-39 3 -78 2t-77 3zM45 151q-3 -1 -6 2.5t-3 8.5q0 4 3 6t6 2q42 -5 83 -6t83 1q8 0 8 -9t-8 -10q-42 -2 -83 -1t-83 6z" />
    <glyph glyph-name="greater" unicode="&#x3e;" horiz-adv-x="300" 
d="M255 207q4 -2 4.5 -7.5t-2.5 -8.5q-13 -11 -28 -19.5t-30 -16.5q-16 -8 -32 -14t-32 -14q-18 -9 -35.5 -19t-34.5 -21q-36 -23 -67 -49q-7 -7 -14 0q-2 2 -2.5 6.5t2.5 6.5q17 14 34 27t35 25q17 11 34.5 21t34.5 18t33 14.5t33 14.5q11 6 22.5 11.5t21.5 13.5
q-42 22 -82.5 43.5t-78.5 49.5q-7 7 -3 14q2 3 6 4t7 -1q41 -30 85 -53t89 -46z" />
    <glyph glyph-name="question" unicode="?" horiz-adv-x="306" 
d="M337 594q16 -16 24 -36.5t8 -43.5q-1 -29 -12 -56t-26 -50q-35 -54 -81.5 -96t-91.5 -86q-21 -20 -42 -42.5t-38 -47t-28.5 -51.5t-15.5 -57q-2 -9 -10 -9q-4 0 -7.5 2.5t-2.5 6.5q4 28 13.5 53.5t23.5 48.5q33 54 79.5 97t92.5 87q22 21 43 43t39 47q17 25 29 50
q3 6 5.5 12.5t4.5 13.5q2 6 3 12.5t2 11.5q0 6 0.5 12t-0.5 12l-1 1v3q0 2 -0.5 2.5t-0.5 2.5q-2 6 -3 10q0 1 -2 5v1l-1 2q-2 4 -5 8q-2 4 -3 5l-1 2l-1 1q-2 2 -3 3.5t-3 3.5l-7 7q-1 1 -1.5 1t-1.5 1l-3 2q-9 7 -17 10q-1 1 -1.5 1t-1.5 1h-1q-1 1 -2 1t-2 1l-9 3
q-3 1 -5.5 1t-4.5 1q-2 0 -3 0.5t-2 0.5h-2h-1q-5 1 -10.5 1h-10.5q-3 0 -5 -1h-4q-3 0 -9 -2q-21 -4 -37 -15q-5 -3 -8 -5t-7 -7q-6 -6 -8 -9q-3 -3 -6 -7q-8 -11 -12 -21.5t-7 -23.5q-1 -5 -4.5 -6t-7 -0.5t-6 3.5t-1.5 8q6 27 21.5 50.5t40.5 37.5q37 21 82 16.5
t76 -34.5zM17 -50q2 -1 4 -7q0 -12 -8 -23q-4 -5 -10 -4.5t-8 7.5t0.5 13.5t5.5 12.5q6 8 14 3z" />
    <glyph glyph-name="at" unicode="@" horiz-adv-x="426" 
d="M400 318q11 -20 9 -42q-2 -23 -10 -44t-22 -39q-12 -15 -27.5 -29t-35.5 -19q-18 -5 -33 4q-10 5 -17 19q-8 -5 -17 -8t-17 1q-11 4 -6 14q11 19 25 35t33 27q8 4 12.5 -4t-3.5 -13q-22 -13 -38 -36q6 4 8 6q5 4 10 2.5t7 -6.5q0 -2 0.5 -3t0.5 -2v-1q1 0 1 -1
q1 -2 1.5 -3.5t2.5 -3.5l1 -1t1 -1.5t1 -1.5q1 0 1 -0.5t1 -0.5l1 -1q1 -1 1.5 -1t1.5 -1h1q1 -1 5 -1h1h3h3h1q2 1 3.5 1t3.5 1q1 0 2 1q2 0 4 2l4 2l4 2q2 2 4 3l2 2q4 3 7.5 6t7.5 7q2 2 3.5 4t3.5 4q3 4 5 7q8 10 12 19q4 6 5 10l4 8l6 21q0 3 1 5v1v3q0 2 0.5 4.5
t-0.5 4.5v6v2v1q-1 2 -1 4.5t-1 4.5t-1 3t-1 2v1q-1 1 -1 2q-2 2 -2.5 4t-2.5 4q-1 0 -1 1v1q-1 1 -2 1q-1 2 -3 4q-1 1 -1.5 2t-2.5 2l-2 1v1h-1q-5 4 -11 7.5t-11 5.5q-27 11 -55.5 8.5t-56.5 -12.5q-32 -11 -62 -29.5t-54.5 -43t-42.5 -54t-27 -63.5q-5 -19 -6 -38.5
t3 -38.5q9 -36 30 -68q8 -13 18 -25t24 -21q29 -20 61 -11q4 1 7.5 -1.5t4 -6t-1 -7t-5.5 -4.5q-27 -8 -53 1q-22 8 -41 27q-38 36 -55 85q-15 41 -10 83t24 80q31 61 88 104q26 20 56.5 35t62.5 22q29 7 58.5 5.5t55.5 -17.5q23 -13 33 -33z" />
    <glyph glyph-name="A" unicode="A" 
d="M400 591q5 -20 -2 -41q-2 -11 -5 -21t-6 -21q-7 -23 -16 -44.5t-18 -43.5t-19.5 -44t-18.5 -45q-4 -11 -7 -22t-7 -22q-5 -12 -9 -23.5t-8 -23.5q-6 -17 -12 -33t-11 -33l27 9q4 2 7.5 -0.5t4.5 -6.5q2 -9 -7 -12l-20 -6t-20 -7q0 -1 -0.5 -1t-0.5 -1
q-15 -46 -29.5 -91.5t-28.5 -91.5q-3 -9 -12.5 -6t-6.5 12q14 42 27 83.5t27 83.5q0 2 0.5 3t0.5 3q-21 -7 -42 -12.5t-42 -11.5q-36 -11 -72 -23t-70 -29q-11 -21 -26 -44l-6 -10l-6 -10q-5 -11 -10 -19q-3 -3 -7 -11q-1 -2 -1.5 -4t-2.5 -4q-2 -4 -5 -8t-5 -9
q-11 -18 -23.5 -35.5t-26.5 -32.5l-15.5 -15.5t-16.5 -13.5q-9 -5 -20.5 -7.5t-21.5 1.5q-12 3 -17 13q-4 8 -2 21q2 10 7 20t10 19q3 5 6.5 10.5t6.5 10.5q2 3 6 7q2 2 3 4t3 4q5 8 11.5 15.5t13.5 15.5q25 28 55.5 50.5t63.5 40.5l12 6q8 14 15.5 27.5t15.5 27.5
q23 40 46.5 80t48.5 80q25 41 50.5 80.5t52.5 78.5q7 10 13.5 20.5t14.5 19.5q8 8 14 17t12 17q14 17 28 33t31 30q8 7 17 12t20 6q12 2 20 -4q5 -3 7 -8zM-49 18q5 8 10.5 16.5t10.5 17.5q-48 -27 -87 -66l-13.5 -13.5t-12.5 -14.5q-3 -4 -5.5 -7.5t-5.5 -8.5
q-3 -4 -6.5 -7.5t-5.5 -8.5q-6 -9 -11.5 -18.5t-10.5 -20.5q-4 -10 -3 -17q3 -3 2 -3q6 -2 9 -2q10 0 18 3q5 2 8.5 5.5l6.5 6.5q16 13 29 31q7 8 13 16.5t11 16.5q3 5 6 9.5t6 9.5q2 4 5 8t5 9q2 2 2.5 5t2.5 5l6 9q3 5 5.5 9.5t4.5 9.5zM376 542q3 10 5.5 19.5t0.5 19.5
l-2.5 7.5t-3.5 4.5q-5 3 -14 -1q-9 -5 -16.5 -11.5t-15.5 -13.5q-15 -15 -29 -31.5t-26 -33.5q-3 -5 -6.5 -9t-7.5 -9q-4 -4 -7 -8.5t-6 -9.5q-7 -10 -13.5 -20t-14.5 -20q-53 -78 -100.5 -158t-94.5 -162q-2 -2 -2.5 -4t-2.5 -4q24 10 48.5 18.5t49.5 16.5q30 9 60 17
t60 17q5 16 10.5 32t11.5 32q8 23 16.5 46t15.5 46t17 44.5t20 44.5q9 22 18 43.5t16 43.5q4 11 7 21.5t6 21.5z" />
    <glyph glyph-name="B" unicode="B" horiz-adv-x="374" 
d="M453 634q14 -21 9 -46.5t-15 -46.5q-11 -25 -27 -47.5t-33 -42.5q-7 -8 -13 -15.5t-14 -14.5q-31 -28 -67 -52q-19 -12 -39 -22.5t-40 -19.5l27 -9q16 -7 30.5 -16t27.5 -21q24 -23 37 -52.5t11 -62.5q-2 -34 -13.5 -65t-28.5 -60q-33 -56 -79 -98q-47 -42 -98 -70
q-14 -8 -28.5 -14t-29.5 -10q-14 -3 -27.5 -4t-27.5 3t-23.5 14.5t-15 23t-8 27t-3.5 28.5q-2 29 2 56.5t9 56.5q2 9 12 7q7 -3 7 -12q-5 -26 -8 -50.5t-3 -50.5q1 -14 2 -26t6 -25q1 -2 2 -4.5t3 -5.5q4 -6 5 -7l3.5 -3.5l3.5 -3.5l2 -1l2 -2q1 0 1.5 -0.5t1.5 -0.5
q12 -5 24 -4.5t24 3.5q27 6 55 22q26 14 49.5 31t45.5 37q23 22 42.5 47t35.5 52t26.5 57.5t9.5 62.5q-1 14 -4 28t-11 27q-8 14 -19 26t-25 22q-28 20 -60 28q-9 2 -18 3t-18 0q-8 -2 -16 -5t-16 -5t-11.5 5.5t4.5 12.5q16 9 34 11h1q13 5 25 9.5t24 10.5q36 16 72 41
q16 11 31.5 23t29.5 26q17 17 30.5 34.5t26.5 36.5q4 6 7.5 12t6.5 12q3 5 6 11.5t5 11.5q3 6 4.5 12t3.5 12q1 2 1 6q0 1 1 2v2v11v3v1q-1 1 -1 4q-1 2 -1 3t-1 2v2l-1 1q-1 2 -1.5 2.5t-1.5 2.5l-1 1q0 1 -1 1q-1 2 -3 4l-2 2l-2 1l-9 6h-2l-2 1t-5 1q-1 0 -2 1h-3h-6
q-4 0 -5 -1h-2h-3q-28 -6 -52 -21q-26 -14 -52 -34q-23 -18 -45 -38t-42 -43q-26 -31 -48 -65t-39 -70q-33 -71 -44 -150q0 -9 -9 -9q-4 0 -7.5 2.5t-2.5 6.5q7 69 35 133q16 38 36 74t46 68q20 26 42.5 49t47.5 43q24 20 50 37.5t55 28.5q13 5 26 7t27 0q25 -3 41 -26z" />
    <glyph glyph-name="C" unicode="C" horiz-adv-x="274" 
d="M168 450h1h-1zM284 582q1 -12 0 -22q-2 -14 -5.5 -27.5t-8.5 -27.5q-11 -26 -22.5 -50.5t-24.5 -49.5q-2 -4 -5.5 -4.5t-6.5 1.5t-5 5.5t0 7.5q8 14 15 29l14 30q13 26 22 56q2 6 4 12.5t3 13.5q0 2 1 3v2v5v9q-1 1 -1 2v2v2q-1 1 -1 1.5t-1 1.5h-2q0 -1 -2 -1l-2 -2h-1
v-1q-8 -5 -12 -12l-3.5 -3.5l-3.5 -3.5q0 -1 -1 -2l-1 -1q-1 -2 -3 -4q-4 -5 -7 -9.5t-6 -9.5q-12 -18 -25 -40q-5 -8 -9 -16t-9 -17q-3 -5 -5 -10q-1 -1 -1 -2v2v1q0 -2 -1 -3h1h-1v-1v-1q-12 -21 -23 -42.5t-22 -43.5q-20 -42 -38.5 -84.5t-35.5 -87.5q-16 -40 -30 -86
q-7 -21 -13 -43t-8 -44q-3 -23 -2 -41q1 -6 1 -10.5t2 -10.5q1 -2 1.5 -4t1.5 -4v-1q0 -1 1 -2t1 -1.5t1 -1.5l1 -2l2 -2q1 0 1 -1q1 0 2 -1l2 -1h1l1 -1h2h1h4h2q2 0 3 0.5t3 0.5q4 2 6 2q1 1 1.5 1t1.5 1q1 0 1.5 0.5t1.5 0.5q9 5 16 10q6 4 8 6q1 0 1 1q1 0 2 1q3 1 4 4
q10 7 17 15q18 16 34 34q15 17 28 34t26 37q5 7 8.5 13.5t7.5 13.5q1 1 1 1.5t1 1.5q0 1 0.5 2t-0.5 -1q1 2 2 4.5t2 4.5q0 1 1 2q0 1 0.5 1.5t0.5 1.5q1 2 1 3t1 3q2 4 4 12q4 11 4 23v3v2q-1 0 -1 1v1q-2 2 -1 2h-1l-1 1h-2h-3h-2h-1q0 -1 -1 -1q-6 -3 -11 -8
q-9 -9 -16 -23q-6 -9 -14 -3q-4 2 -4.5 5.5t1.5 7.5q6 14 18.5 27t28.5 15t24 -11q4 -5 5 -11t1 -11q-1 -14 -5.5 -27t-9.5 -25q-2 -4 -2 -6q-1 0 -1 -1q1 2 0.5 0.5t-1.5 -2.5q0 -1 -2 -5q-2 -3 -3.5 -6t-3.5 -6q-11 -19 -23.5 -36t-26.5 -33q-15 -19 -31 -36.5t-34 -32.5
q-14 -12 -31 -22.5t-36 -12.5q-19 -1 -29 12t-14 30q-8 41 1 81t22 78q29 90 66 175.5t82 167.5q2 3 3 5.5t3 5.5q7 14 16 29q11 20 23.5 39.5t26.5 37.5q6 7 12 13.5t14 11.5q6 4 14 4.5t13 -5.5q2 -2 2 -3q1 0 0 1q0 -1 0.5 -1t0.5 -1q2 -2 2 -3q2 -3 4 -9zM168 449
q0 -1 -0.5 -1.5t0.5 1.5zM262 584q1 -1 1 -1.5t-1 1.5v0z" />
    <glyph glyph-name="D" unicode="D" horiz-adv-x="320" 
d="M408 462q2 -15 -1.5 -30t-8.5 -29t-11 -26.5t-13 -25.5q-17 -31 -38.5 -58.5t-46.5 -53.5q-54 -56 -119 -99t-136 -75q-17 -44 -33 -87t-34 -86q-3 -8 -11.5 -6t-6.5 11q12 76 34 146q-30 -12 -60 -21q-22 -6 -44 -10t-45 -6q-10 -1 -19.5 -0.5t-18.5 2.5q-8 2 -15 5.5
t-10 11.5q-5 9 -3.5 18t5.5 17q6 14 15 25t19 22q7 7 13.5 0.5t0.5 -13.5q-16 -18 -27 -34q-1 -2 -2 -4.5t-2 -5.5q-1 0 -1 -1t-1 -2q0 -2 -1 -4v-2v-3v-1v-2l1 -1q0 -1 1 -1q0 -1 0.5 -1t0.5 -1h1q2 -2 3 -2l1 -1q3 0 7 -2h4l1 -1h1h9h20q4 1 11 1q1 1 3 1h1q3 0 5 1
q5 1 11 1.5t11 2.5q23 5 45.5 11.5t44.5 14.5l21 9q12 36 26 71.5t31 69.5q17 38 41 77q4 7 8 13.5t9 13.5q30 78 58.5 155t51.5 157q1 5 4.5 6.5t7 0.5t5.5 -4.5t1 -7.5q0 -3 -1 -5q-18 -64 -40 -125.5t-46 -123.5q7 8 14 15.5t15 15.5q38 40 82 73q20 14 41.5 25t44.5 14
q23 2 42 -10.5t23 -35.5zM54 178q-22 -48 -40 -101q2 2 4 2zM-5 18q4 9 7 18t7 18q-1 -1 -3 -1q-3 -9 -5.5 -18t-5.5 -17zM385 424q4 13 4 27q0 7 -1 12l-1.5 4.5t-2.5 4.5q-2 2 -1.5 2t-1.5 2q-1 1 -2 1.5t-2 1.5q0 1 -1 1l-1 1q-1 1 -1.5 1t-1.5 1l-4 2h-1q-1 0 -2 1
q-6 2 -8 2h-1h-2h-4h-5h-3q-5 -1 -9.5 -2t-9.5 -3t-9 -3.5t-10 -4.5q-5 -3 -10.5 -6t-10.5 -7q-23 -14 -43 -31t-40 -37q-16 -17 -31.5 -34t-30.5 -35l-3 -3q0 -1 -1 -2q-1 -2 -4 -5l-4 -6t-4 -7q-5 -11 -9.5 -23t-9.5 -24q-15 -41 -30 -81.5t-30 -82.5q15 8 30 15.5
t30 15.5q66 38 126 87.5t104 112.5q8 12 15.5 24t14.5 25t12.5 26t9.5 27z" />
    <glyph glyph-name="E" unicode="E" horiz-adv-x="265" 
d="M487 547q2 -9 -7 -12q-10 -2 -12 7q-1 4 -1.5 8t-1.5 8q-1 2 -1 3t-1 3q0 1 -0.5 1.5t-0.5 1.5q-2 2 -2.5 4.5t-2.5 4.5q-1 2 -1.5 2.5t-1.5 2.5l-1 1l-1 1l-6 6l-2 2h-1l-3 3l-4 2l-4 2l-2 1h-1l-4 2q-6 2 -10 2q-1 1 -5 1h-1q-1 0 -1 0.5t-1 0.5h-10h-12t-11 -1h-3
q-2 0 -2 -1h-6l-12 -3q-6 -2 -12.5 -3t-12.5 -3q-28 -9 -53.5 -20t-51.5 -25q-24 -14 -47.5 -28.5t-45.5 -31.5q-5 -3 -9 -6t-9 -7q-6 -5 -11.5 -10t-11.5 -10q-15 -14 -29 -29.5t-26 -32.5q-17 -26 -26 -54t-7 -59q2 -28 11.5 -55t21.5 -52q7 -14 14 -26.5t14 -25.5t17 -26
q2 -2 2.5 -3t2.5 -3q2 -1 4 -3q1 0 2 -1q1 0 2 -0.5t0 -0.5h1q1 0 1 -1q8 0 10 -7t-5 -11l-6 -4t-7 -4q-14 -9 -27.5 -18t-27.5 -20q-13 -11 -25 -22.5t-21 -25.5q-7 -12 -10 -24v-2v-2v-4v-1v-1q1 -2 1 -4q1 -1 1 -2l1 -1l2 -1l2 -2l1 -1q3 0 4 -1h3h1q0 -1 2 -1h9q2 1 5 1
h1h2q6 2 11.5 3t11.5 3q13 4 24 8.5t23 10.5l22 12t22 14q6 3 10 7h1l2 2l3 3q4 3 7 6l6 6q2 3 6.5 3t7.5 -3q6 -6 0 -13q-5 -7 -11 -12t-13 -10q-21 -15 -44 -27.5t-48 -21.5q-11 -4 -22.5 -6.5t-23.5 -4.5q-9 -1 -18.5 0.5t-17.5 6.5q-11 9 -13 20.5t1.5 24t11 24
t14.5 19.5q19 22 42.5 39.5t48.5 32.5q-8 7 -13.5 15.5t-10.5 16.5q-15 25 -29 51.5t-24 54.5t-14.5 57t1.5 59q7 35 26 65t43 56q21 22 44.5 41t48.5 36q24 16 49 30.5t51 26.5t52 22t54 16q23 5 46 5t45 -9q20 -10 31.5 -28.5t14.5 -40.5z" />
    <glyph glyph-name="F" unicode="F" horiz-adv-x="298" 
d="M620 649q10 0 10 -10q0 -8 -10 -10q-75 -8 -149 -15t-149 -15q-38 -4 -75.5 -7.5t-75.5 -7.5q-5 -18 -10.5 -36t-11.5 -36q-12 -35 -25 -70.5t-27 -70.5q64 8 127.5 14.5t127.5 11.5q5 0 7 -3t2 -6.5t-2.5 -7t-6.5 -3.5q-66 -4 -131.5 -11.5t-131.5 -15.5l-38 -96
t-36 -97q-17 -46 -31 -92.5t-28 -94.5t-27.5 -95.5t-26.5 -95.5q-1 -5 -4.5 -6t-7 0t-6 4t-0.5 8q8 35 17.5 68.5t19.5 68.5q14 48 29 95t29 95q14 46 31 89.5t34 88.5q6 14 12 28.5t11 29.5q-24 -4 -48.5 -7t-48.5 -6q-10 0 -10 10q0 8 10 10q26 3 52.5 6.5t52.5 6.5
q21 54 40 107t35 107q-57 -5 -112.5 -11t-112.5 -11q-4 -1 -7 2t-3 7q0 10 10 10q58 6 115.5 11.5t115.5 11.5q3 11 5.5 22t5.5 22q1 5 4.5 6.5t7 0.5t6 -4.5t1.5 -7.5q-2 -9 -4.5 -18t-5.5 -19q12 2 23.5 2.5t23.5 2.5q100 10 198.5 19.5t198.5 20.5z" />
    <glyph glyph-name="G" unicode="G" horiz-adv-x="438" 
d="M454 406q7 -2 5 -11q-2 -6 -3 -10q-15 -59 -34 -115.5t-40 -113.5q-5 -15 -10 -25q-1 -3 -3.5 -9t-5.5 -13.5t-6 -15.5t-5 -13q-10 -26 -20.5 -50.5t-21.5 -50.5q-3 -8 -7 -16t-7 -16q-8 -20 -17 -38q-8 -16 -17.5 -33t-20.5 -30q-2 -2 -3.5 -4t-3.5 -4q-8 -8 -17 -10h-1
h-1q-6 0 -10 4t-6 8q-12 21 -12 46q-2 41 18 76t47 64q17 17 34.5 33.5t37.5 30.5l8 6l8 6q25 63 47 125.5t41 127.5l-4 -4l-4 -4q-10 -12 -19.5 -22t-20.5 -21q-20 -20 -40.5 -40t-42.5 -38q-17 -13 -34 -25.5t-36 -23.5q-18 -11 -37.5 -21t-41.5 -14q-11 -2 -20 -3t-20 1
q-8 2 -16.5 5t-15.5 8t-14 15q-3 4 -6 7t-5 8q-5 10 -8 20.5t-5 21.5q-6 41 10 84q13 40 37 78q11 19 23.5 36t26.5 34q12 16 25.5 31t27.5 29q15 14 30.5 27.5t32.5 24.5q17 13 35.5 25t38.5 20q23 11 43 14q11 2 22.5 1.5t22.5 -5.5q17 -7 27.5 -22t14.5 -34q0 -9 -7 -12
q-10 -2 -12 7q-3 14 -11 27t-23 18q-10 3 -20 2t-20 -3q-17 -4 -37 -14q-5 -2 -10.5 -5t-10.5 -6q-6 -4 -10 -6q-2 -2 -3.5 -3t-3.5 -3q-9 -5 -17.5 -11t-16.5 -12q-17 -12 -31.5 -25.5t-28.5 -27.5t-27 -29t-25 -31q-13 -17 -25 -34.5t-23 -37.5q-9 -18 -18 -37.5
t-14.5 -39.5t-5.5 -40.5t8 -40.5l4 -10t6 -9q3 -4 5 -8q2 -2 3 -2.5t2 -2.5q13 -12 29 -13q9 -2 18 -1t18 3q11 3 20.5 7t19.5 9q38 20 71.5 45t64.5 54q31 28 60 60q5 4 8.5 8t7.5 9q2 2 3.5 4.5t3.5 4.5t3.5 3t2.5 3q8 9 15 17.5t13 17.5q2 4 6 4.5t7 -1.5zM316 43
q3 6 5.5 12t4.5 12q-8 -6 -16 -13l-16 -14q-9 -8 -17.5 -16.5t-16.5 -17.5q-14 -14 -24 -30q-11 -16 -18.5 -33t-10.5 -36q-3 -27 5 -49l1 -1q0 -1 0.5 -1.5t0.5 -2.5h1q0 -1 1 -1q0 -1 2 -1h1h1q5 2 15 18.5t20 35.5q11 22 23 50l2 4q7 16 13 28q5 14 11 28z" />
    <glyph glyph-name="H" unicode="H" horiz-adv-x="308" 
d="M404 656q2 9 11.5 6.5t7.5 -12.5q-9 -39 -21 -77.5t-25 -76.5q-15 -45 -31 -90t-31 -91q-2 -8 -4.5 -14.5t-4.5 -14.5q-2 -5 -3.5 -10t-3.5 -10q-21 -66 -45 -132q-32 -91 -65 -181t-61 -183q-1 -5 -4.5 -6t-7 -0.5t-6 3.5t-0.5 8q11 40 23.5 78.5t26.5 77.5
q29 84 59.5 166t58.5 166q-38 -5 -75.5 -10.5t-75.5 -9.5q-20 -57 -40.5 -113.5t-37.5 -114.5q-3 -9 -12.5 -6.5t-6.5 11.5q17 57 36.5 111.5t39.5 109.5q-38 -3 -74 -3q-10 1 -10 10.5t10 9.5q40 0 81 3q8 20 14.5 40.5t13.5 40.5q8 23 15 45t15 45q15 45 30.5 89.5
t26.5 90.5q1 4 4.5 5.5t7 1t6 -4t1.5 -7.5q-14 -59 -34.5 -115t-39.5 -114q-9 -29 -18.5 -57.5t-20.5 -57.5q38 5 75.5 10t75.5 10q1 4 3 10q14 46 29.5 91t31.5 90t30 90t25 92z" />
    <glyph glyph-name="I" unicode="I" horiz-adv-x="116" 
d="M268 630q10 0 10 -10q0 -8 -10 -10q-17 -2 -34.5 -5t-34.5 -6q-22 -78 -46.5 -154.5t-50.5 -153.5q-31 -91 -63 -179.5t-65 -178.5q14 2 27.5 4.5t27.5 4.5q10 0 10 -10q0 -8 -10 -10q-34 -4 -67.5 -11.5t-68.5 -3.5q-10 0 -10 10q0 4 2.5 7t7.5 2q15 -2 30 -0.5t29 3.5
q28 77 55.5 152.5t54.5 152.5q32 90 61 180t55 182q-33 -6 -66 -6q-10 0 -10 9.5t10 9.5q40 0 78.5 8t77.5 13z" />
    <glyph glyph-name="J" unicode="J" horiz-adv-x="256" 
d="M442 627q9 0 9 -10q0 -8 -9 -10q-19 -2 -37 -3.5t-36 -3.5q-13 -47 -27 -93t-29 -92q-14 -45 -29 -89t-32 -89q0 -1 -3 -7.5t-6.5 -16.5t-8.5 -21.5t-9 -22.5q-12 -31 -24.5 -60.5t-26.5 -58.5q-20 -43 -42 -84t-49 -79q-12 -17 -25 -32.5t-29 -29.5q-15 -13 -32.5 -22
t-37.5 -10q-18 -1 -35.5 7t-28.5 22q-24 27 -27 65q-2 22 1 44.5t10 43.5q13 43 39 81q27 37 64 61q19 13 39.5 22.5t41.5 17.5q37 14 75 22.5t76 13.5q5 14 10 27t10 27q64 172 114 351l-38 -4t-39 -4q-10 0 -10 10q0 8 10 10q43 4 85.5 8t85.5 9zM160 66q12 26 23.5 53
t22.5 53q-23 -3 -46 -7.5t-46 -11.5q-22 -6 -43.5 -13.5t-41.5 -17.5t-38 -21.5t-34 -27.5q-15 -16 -27 -34.5t-21 -38.5q-19 -43 -22 -86q-1 -17 2 -35t12 -34q9 -14 22 -23t30 -10q19 -1 35 8t29 21q16 14 29 29.5t24 32.5q27 38 48.5 79.5t41.5 83.5z" />
    <glyph glyph-name="K" unicode="K" horiz-adv-x="190" 
d="M484 -194q8 -5 3 -13t-13 -3q-32 20 -61.5 43.5t-58.5 49.5t-58.5 52t-59.5 52q-19 16 -37 31.5t-37 31.5q-18 15 -35.5 30t-34.5 29q-20 16 -39 32.5t-35 36.5q-11 -32 -21.5 -62.5t-21.5 -62.5q-3 -8 -12 -5.5t-6 11.5q11 35 23 69t24 69q-10 15 -14 28q-2 3 0 6t4 5
q8 5 15 9t15 8q31 89 63 177t65 177q2 9 12 6q3 -1 5.5 -4.5t0.5 -7.5q-16 -43 -31.5 -86t-31.5 -87q-15 -41 -29.5 -80.5t-28.5 -80.5q51 27 100 55t92 67q61 54 109 121t70 147q1 4 4.5 5.5t7 0.5t5.5 -4t1 -8q-19 -70 -58 -130.5t-90 -111.5q-60 -61 -136 -107
q-28 -17 -57 -32t-58 -31q-3 -10 -6.5 -19.5t-6.5 -19.5q3 -5 7 -9.5t8 -9.5q11 -12 22.5 -22.5t24.5 -21.5t25.5 -21t25.5 -21q14 -13 29 -25t30 -25q37 -32 73.5 -63.5t72.5 -63.5q33 -30 67.5 -59t72.5 -53zM11 224q1 -1 1 -1.5t1 -1.5q0 3 1 4q-1 0 -1.5 -0.5t-1.5 -0.5
z" />
    <glyph glyph-name="L" unicode="L" horiz-adv-x="132" 
d="M548 17q4 1 6.5 -2t2.5 -7q0 -10 -9 -10q-71 -6 -140 -18t-139 -22q-50 -7 -99 -13t-99 -12q-25 -3 -49.5 -6t-48.5 -7q-13 -2 -25 -3t-24 -3l-24 -4t-24 -1q-10 2 -10 10q0 10 10 10q15 -1 33 2l12 2l12 2q4 11 7.5 21.5t8.5 21.5q32 91 65.5 180.5t65.5 180.5t61 181.5
t52 184.5q1 4 4.5 5.5t7 1t6 -4t1.5 -7.5q-5 -18 -9.5 -36t-9.5 -36q-26 -94 -56.5 -184t-62.5 -181q-30 -82 -60 -163t-59 -162q15 2 30.5 4t30.5 4l70 8t70 9q49 6 98 12.5t97 14.5q50 8 98.5 15.5t98.5 11.5z" />
    <glyph glyph-name="M" unicode="M" horiz-adv-x="654" 
d="M649 472q2 -35 0 -69t-7 -69q-10 -66 -29 -133q-13 -45 -29 -89t-31.5 -88t-29.5 -88t-24 -90q-1 -5 -4.5 -6t-7 -0.5t-6 3.5t-1.5 8q19 88 51 171t58 169q20 66 32.5 135t8.5 138q-2 31 -8 62t-20 57q-7 12 -14.5 22.5t-17.5 18.5l-2 2h-1q-2 2 -4 3t-3.5 2t-3.5 2
q-1 0 -1.5 0.5t-1.5 0.5q-3 3 -3 2q-2 1 -4 1t-4 1q-1 0 -2 0.5t-2 0.5h-3q-3 1 -7 1h-9q-2 0 -2.5 -0.5t-1.5 -0.5h-2h-1q-5 -1 -9 -1.5t-8 -2.5q-6 -2 -10 -4q-1 0 -2 -1h-1q-2 0 -4 -2q-10 -5 -19.5 -10t-18.5 -12q-18 -12 -36 -29q-41 -37 -75 -79.5t-63 -88.5
q-14 -20 -26 -41.5t-23 -43.5q-2 -5 -4.5 -9.5t-4.5 -9.5q-1 -2 -1 -3t-1 -3q-1 -1 -1 -2q-2 -6 -3 -8l-6 -15q-2 -10 -4 -15q-1 -5 -4.5 -6t-7 -0.5t-6 3.5t-1.5 8l3 9q0 2 2 6q5 19 8 38t4 39v12t-1 11q-1 2 -1 5t-2 5v3h-1v1q0 1 -2 3q0 1 -1 2v1q-2 2 -4 3l-2 2h-1
q-1 0 -1 1q-2 0 -2.5 0.5t-2.5 0.5h-2q-2 2 -5 0h-2q-3 0 -5 -1q-1 0 -2 -1h-2q-2 -1 -8 -5q-4 -2 -7.5 -5.5l-8.5 -8.5q-9 -10 -16 -21t-14 -23q-11 -21 -20.5 -41.5t-15.5 -43.5q-1 -5 -4.5 -6t-7 -0.5t-6 3.5t-1.5 8q0 1 0.5 1.5t0.5 1.5q7 23 17 46t22 44
q7 12 14.5 23.5t17.5 21.5q17 20 39 26q11 2 22.5 -0.5t19.5 -11.5q9 -11 11.5 -23.5t3.5 -25.5q0 -8 -1 -13q22 42 48 81q30 45 65 88t77 79q18 15 37 28t41 22q17 7 36 9.5t37 -2.5q23 -7 40 -24t28 -37q15 -28 22 -59.5t9 -63.5z" />
    <glyph glyph-name="N" unicode="N" horiz-adv-x="522" 
d="M532 569q6 -28 6.5 -55.5t-1.5 -55.5q-6 -65 -21 -128q-17 -70 -39.5 -138t-47.5 -136q-23 -61 -46 -121.5t-43 -122.5q-3 -9 -12.5 -6.5t-6.5 11.5l9 27q22 63 45.5 125.5t46.5 126.5q24 67 46 134.5t36 137.5q6 30 10 60t5 61q1 27 -1.5 52t-11.5 50q-2 6 -3.5 9.5
t-3.5 8.5q-5 9 -9 15h-1v1l-1 1l-3 3q-2 3 -5 5q0 1 -1.5 1.5t-0.5 0.5l-2 2l-6 3q-1 1 -1.5 1t-1.5 1h-2q-4 2 -6 2q-1 0 -2 0.5t-2 0.5h-2q-2 0 -3 0.5t-3 0.5q-5 0 -8 -1h-3h-1h-1q-10 -2 -15 -4q-2 -1 -4.5 -1t-4.5 -2q-1 0 -1.5 -0.5t-2.5 -0.5l-1 -1h-1q-5 -2 -8.5 -4
t-8.5 -4q-17 -10 -35 -23q-2 -2 -3 -2.5t-2 -1.5q-1 0 -2 -1q0 -1 -1 -1h-1l-8 -8q-5 -4 -9.5 -7.5t-9.5 -7.5q-10 -9 -19 -18l-18 -18q-76 -79 -137 -175q-14 -22 -27.5 -44t-25.5 -45q-5 -10 -9.5 -20t-9.5 -20q0 -1 -0.5 -1t-0.5 -1v-1v-1q-2 -4 -2 -5q-2 -6 -4 -8
l-6 -18q-1 -5 -4.5 -6t-7 -0.5t-6 3.5t-0.5 8q6 24 15 48q29 90 62.5 178.5t56.5 180.5q1 4 4.5 5.5t7 0.5t6 -4t1.5 -8q-3 -12 -6.5 -24t-6.5 -25q-16 -54 -34.5 -106.5t-38.5 -105.5q11 19 23.5 37t24.5 36q32 45 67.5 87.5t77.5 79.5q33 31 73 56q16 9 33 15.5t36 7.5
q33 2 56 -21q15 -15 23 -35.5t12 -40.5z" />
    <glyph glyph-name="O" unicode="O" horiz-adv-x="404" 
d="M401 464q10 -84 -5 -167t-43 -161q-14 -38 -30.5 -76t-33.5 -75q-15 -33 -33.5 -65.5t-44.5 -56.5q-12 -11 -26 -19.5t-29.5 -13.5t-31.5 -4.5t-31 8.5q-14 8 -23.5 20.5t-15.5 26.5q-8 19 -10.5 39t-0.5 40q2 43 14.5 82.5t24.5 80.5q8 23 15.5 46.5t16.5 46.5
q-15 6 -29 15t-25 22q-23 24 -33.5 55t-12.5 63q-5 74 33 137q37 64 98 100q28 18 62 27q14 5 30 7.5t32 0.5q15 -2 29.5 -6.5t27.5 -12.5q12 -8 21.5 -19t17.5 -23q16 -27 24 -57t12 -61zM383 367q2 34 1 67.5t-9 66.5q-6 28 -17.5 54t-33.5 45q-20 18 -48 23
q-14 2 -29 0.5t-29 -5.5q-32 -8 -61 -25.5t-52 -40.5q-24 -25 -41.5 -54.5t-25.5 -63.5q-5 -17 -5.5 -35t1.5 -36q2 -15 5.5 -30.5t10.5 -29.5q6 -13 13.5 -24t18.5 -20q8 -8 18.5 -14.5t20.5 -10.5q7 16 13.5 32t14.5 33l18 38t20 38q14 27 29 52q7 12 16.5 25t20.5 23.5
t24.5 17t29.5 5.5q5 0 7.5 -3t2.5 -7t-2.5 -6.5t-7.5 -2.5q-13 0 -21 -4q-10 -5 -20 -15q-11 -10 -19 -21.5t-16 -24.5q-19 -32 -35.5 -64.5t-31.5 -65.5q-14 -29 -24 -57q23 -6 45.5 -6.5t45.5 4.5q4 1 7.5 -1.5t4 -6t-1 -7t-5.5 -4.5q-26 -5 -52 -5t-51 8
q-20 -52 -35 -100q-6 -20 -12.5 -38.5t-11.5 -38.5q-5 -21 -8.5 -41.5t-3.5 -42.5q0 -18 3.5 -36.5t12.5 -34.5q14 -26 39 -31q12 -2 25 0q8 2 15 4.5t14 6.5q14 8 26 19.5t23 25.5q23 29 38.5 62t29.5 66q8 19 16.5 38t16.5 39t15.5 41t13.5 42q14 43 22.5 87.5t10.5 89.5z
" />
    <glyph glyph-name="P" unicode="P" horiz-adv-x="380" 
d="M573 571q0 -19 -5 -37t-13 -35q-19 -43 -49 -82q-32 -45 -71 -85.5t-84 -73.5q-20 -15 -41 -28t-44 -24q-20 -8 -40 -14t-42 -5q-18 1 -36.5 8t-29.5 22q-4 -9 -7 -18t-7 -18q-32 -87 -69 -171.5t-79 -166.5q-2 -4 -6 -4.5t-7 1.5q-5 2 -5 11q8 61 26 119.5t41 115.5
q41 100 99 196q0 4 1 7q2 15 7.5 30t14.5 28q5 9 13 4q2 -2 3 -2q23 71 45 142.5t43 143.5q1 4 4.5 5.5t7 0.5t6 -4t1.5 -8q-8 -25 -15 -50t-15 -51q-11 -35 -21.5 -69t-21.5 -69q17 23 34.5 45.5t37.5 42.5q14 14 28.5 27t28.5 26q20 17 40 32.5t41 29.5q20 14 40.5 25
t42.5 19q17 6 36 8t35 -8q17 -10 24 -28.5t8 -37.5zM-15 -54q34 73 64 147t57 150q0 2 -1 3q-14 -25 -27 -49.5t-26 -50.5q-26 -57 -47.5 -114.5t-35.5 -118.5q5 8 8.5 16.5t7.5 16.5zM553 577q0 1 -0.5 1.5t-0.5 1.5q0 4 -1 5q0 4 -2 10q-1 2 -1 2.5t-1 2.5v1l-1 1
q-1 4 -4 8l-1 2q-2 2 -3 2q-2 2 -2 3q-1 0 -1 0.5t-1 0.5q-2 1 -3 2t-3 2h-1h-1q-1 1 -1.5 1t-1.5 1q-3 0 -4 1h-3h-6h-9h-1h-1q-1 -1 -4 -1q-8 -1 -19 -5q-6 -2 -10 -4l-2 -1h-1q-1 -1 -2 -1t-3 -1q-5 -2 -10 -5t-10 -5q-11 -6 -21 -12.5t-21 -13.5l-21 -15
q-5 -4 -9.5 -7.5t-9.5 -7.5q-18 -14 -35.5 -29t-34.5 -31q-16 -15 -30.5 -30.5t-28.5 -32.5q-19 -23 -36 -46.5t-34 -48.5q-8 -22 -15 -43t-15 -43q3 -11 10 -18q3 -3 9 -6q2 -2 3.5 -2.5t3.5 -1.5q1 0 1 -0.5t1 -0.5h1l4 -2q2 -1 4 -1t4 -1q1 0 2 -0.5t2 -0.5h3q3 -1 8 -1
h9t9 1h3h1q3 0 4 1q4 0 10 2l10 2t10 3q2 2 5 2.5t5 1.5q5 2 9 4q5 2 10.5 5t10.5 5q48 26 88.5 60.5t75.5 74.5q18 20 34 40.5t30 43.5q13 18 24 41q2 2 2.5 4.5t2.5 5.5q1 1 1 2t1 3l1 2v1q2 5 3.5 9t3.5 9t3 9t2 9q0 2 0.5 4t0.5 4q0 1 1 2v4v15z" />
    <glyph glyph-name="Q" unicode="Q" horiz-adv-x="425" 
d="M473 550q1 -24 -1.5 -48t-7.5 -47q-9 -48 -22.5 -94.5t-29.5 -92.5q-17 -45 -37 -88t-45 -85q-12 -20 -25 -39t-28 -36q-12 -15 -25.5 -29t-29.5 -26q2 -50 7 -99t16 -97q1 -5 -1.5 -8t-6.5 -3.5t-7 0.5t-4 6q-11 47 -16 94t-7 95q-17 -10 -35.5 -16t-38.5 -4
q-22 2 -41 11t-33 27q-13 18 -18.5 40t-7.5 44q-2 25 -0.5 49t5.5 48q8 48 21.5 94t32.5 91q9 22 19.5 43t23.5 41q12 19 26 37t32 31q3 2 7 1t6 -4q5 -8 -3 -14q-10 -7 -17.5 -15.5t-15.5 -17.5q-8 -11 -14.5 -21.5t-13.5 -21.5q-23 -42 -40.5 -86.5t-29.5 -90.5
q-6 -23 -11 -46.5t-7 -47.5q-3 -23 -3.5 -47t4.5 -47q5 -20 14 -38.5t27 -29.5q19 -11 40 -11t41 8q8 3 15 6.5t15 8.5q-1 5 -1 13q-1 98 10.5 195.5t35.5 192.5q6 23 13 46t16 46q9 22 19 44t21 42q11 19 23 37.5t29 32.5q8 7 18 12.5t21 5.5q23 0 37 -16q15 -14 21 -35
t7 -41zM454 528q1 20 -2 41t-15 38q-15 20 -32 15t-32.5 -21.5t-27.5 -37.5t-18 -32q-22 -42 -38 -87t-27 -92q-11 -48 -19 -95t-13 -96q-9 -84 -9 -171q11 8 21 20q16 16 29.5 33.5t26.5 36.5q51 79 86 168q8 23 15.5 46.5t15.5 46.5q7 23 13.5 46.5t11.5 46.5t8.5 46.5
t5.5 47.5z" />
    <glyph glyph-name="R" unicode="R" horiz-adv-x="350" 
d="M481 -195q2 -2 2.5 -6.5t-2.5 -6.5q-11 -8 -23 -15.5t-25 -11.5t-27 -4.5t-27 4.5q-32 12 -51.5 41t-32.5 59q-17 41 -27 84t-18 87q-8 45 -12.5 89.5t-6.5 89.5q-1 17 -1.5 34.5t0.5 34.5q0 12 0.5 24t2.5 23q1 6 6 6.5t9 -1.5l1 -1l1 -1q1 0 1.5 -0.5t1.5 -0.5
q2 -1 2.5 -1.5t2.5 -1.5h1q1 -1 3 -1q2 -1 2.5 -1t2.5 -1h2h2h5h3h1q2 0 3 0.5t3 0.5q2 1 3.5 1.5t3.5 1.5h2q1 0 1 1q1 0 1.5 0.5t1.5 0.5q4 2 7.5 4t6.5 5q2 1 2.5 1.5t2.5 1.5l1 1h1q4 4 7 6q4 4 7.5 7t6.5 7q4 4 7.5 8t6.5 8q2 2 2 3l1 1q1 2 3 4t3.5 4.5t3.5 4.5
q7 10 13 20t11 20q22 42 34 87q1 5 2 10.5t2 11.5q0 1 0.5 2t0.5 3v1v3q1 3 1 10q2 9 0 19q0 7 -1 10v1v1q0 3 -1 5q-1 4 -1.5 8t-2.5 8l-1 1v1l-2 4q-1 2 -2 3t-2 3q-1 1 -1 2h-1q0 1 -2 3q-4 4 -6 5q0 1 -1 2h-1q-2 2 -3 2q-3 2 -7 4l-2 1q-1 0 -1.5 0.5t-1.5 0.5
q-2 0 -2.5 0.5t-2.5 0.5q-8 2 -9 2h-12q-5 0 -9 -1q-13 -2 -23 -7t-21 -12q-24 -15 -44 -36t-38 -44q-33 -42 -60 -90q-31 -53 -53 -107q-14 -48 -27 -96t-30 -95q-4 -9 -12.5 -6.5t-6.5 11.5q7 50 21.5 97t34.5 93q20 69 44 134.5t66 123.5q6 7 13 3q4 -2 5 -6t-1 -7
q-44 -62 -69 -132q16 28 34.5 55t39.5 52q19 22 40 41.5t46 33.5q23 11 47.5 14t47.5 -9q18 -11 27.5 -27.5t12 -36t0.5 -39.5t-6 -38q-5 -23 -14 -45.5t-20 -43.5q-22 -44 -52 -77q-13 -14 -28 -26.5t-34 -18.5q-25 -9 -47 1q0 -10 -1 -15v-44q1 -42 4.5 -83.5t8.5 -83.5
q0 -3 1 -4v-2v-5q2 -6 2 -11q1 -6 1.5 -11.5t2.5 -11.5q2 -11 4 -23t4 -23q5 -22 10 -43.5t13 -43.5q3 -9 6 -18.5t8 -18.5v-2q1 -1 1 -2q2 -4 2 -5l2 -4l2 -4l4 -8l4 -8t4.5 -7.5t4.5 -6.5q2 -2 3 -3.5t2 -3.5q2 -2 2 -3l2 -2q6 -8 10 -11q4 -4 6 -5q0 -2 2 -2q0 -1 1 -1
q4 -3 12 -7q2 -2 3 -2l1 -1q2 0 6 -2q2 0 3 -0.5t3 -0.5q1 -1 3 -1h1h14h3l2 1q2 0 3.5 0.5t3.5 0.5q2 1 3.5 1.5t3.5 1.5q2 0 2.5 0.5t1.5 0.5t1 0.5t1 0.5q4 2 7.5 4t7.5 4l9 6q2 2 3 2l2 2h1q8 8 14 0z" />
    <glyph glyph-name="S" unicode="S" horiz-adv-x="312" 
d="M562 644q4 -10 -6 -12q-36 -7 -72.5 -12t-72.5 -10q-55 -8 -109 -19t-107 -30q-23 -8 -44.5 -18t-41.5 -25q-1 -1 -2 -1.5t-2 -1.5q-1 0 -2 -1t-2 -1l-3.5 -3.5l-3.5 -3.5l-7.5 -7.5t-6.5 -7.5q-1 -1 -1.5 -1t-1.5 -1v-1q-2 -2 -3 -4q-2 -2 -2.5 -3.5t-2.5 -3.5
t-2.5 -4.5t-2.5 -4.5q0 -1 -0.5 -2.5t-0.5 -0.5q-1 -2 -1 -4q-2 -5 -3 -9.5t-2 -9.5l-1 -2v-2v-6v-13q1 -27 12 -54q11 -28 28 -53.5t35 -50.5q19 -26 37.5 -51.5t34.5 -53.5q15 -26 25 -54.5t10 -59.5q0 -22 -7 -40q-7 -20 -21 -40q-15 -23 -34 -43t-41 -37
q-22 -18 -46 -32.5t-50 -24.5q-23 -8 -46.5 -10t-46.5 8q-22 8 -32 26q-5 8 -6.5 17.5t-0.5 18.5q3 24 15.5 45.5t26.5 41.5q17 22 35 42.5t38 40.5q15 14 30 27.5t32 25.5q9 5 14 -4q4 -7 -4 -13q-2 -2 -3.5 -3t-3.5 -3q-2 0 -2 -1q-1 0 -1 -0.5t-1 -0.5q-3 -3 -5 -4
l-12 -10t-11 -10q-27 -26 -53 -53q-18 -20 -34 -40.5t-28 -44.5l-5 -10t-4 -9q-1 -2 -1.5 -5t-1.5 -5q0 -3 -1 -5v-3q-1 -3 -1 -9q0 -2 1 -4v-2q0 -1 0.5 -2t0.5 -2v-2q0 -1 1 -1l3 -6q1 0 1 -1l1 -1l3 -3l2 -2h1q2 -2 4 -3q6 -4 9 -5q1 0 2 -1l1 -1q2 0 3 -0.5t2 -0.5
q3 -1 5.5 -1.5t5.5 -1.5h1h2h5q6 -2 12 0h5h3h1q26 5 49 15.5t44 25.5q47 30 82 73q9 10 15 19q4 5 7 10l6 10q1 3 2 5.5t3 5.5q1 1 1 2t1 2v1l1 2q2 5 3 9t2 9q0 1 0.5 1t0.5 1v1v3v12v14.5t-2 13.5q-2 14 -7 27.5t-11 26.5q-14 29 -31.5 54.5t-36.5 51.5q-19 25 -37 50.5
t-32 53.5q-13 26 -20.5 54.5t-2.5 57.5q3 22 14.5 40.5t28 33.5t35.5 26t39 20q51 23 105 35.5t108 21.5t103 15q20 3 39.5 5.5t39.5 6.5q10 2 12 -6z" />
    <glyph glyph-name="T" unicode="T" horiz-adv-x="145" 
d="M558 678q4 1 7.5 -1t4 -5.5t-1 -7t-5.5 -4.5q-32 -9 -65.5 -14.5t-67.5 -10.5q-23 -3 -46.5 -6t-47.5 -5q-24 -3 -48.5 -6.5t-48.5 -6.5q-5 -1 -11 -1.5t-11 -1.5q-2 -8 -4.5 -16t-5.5 -16q-29 -94 -61 -184.5t-65 -182.5q-17 -46 -33 -91.5t-31 -91.5q-8 -23 -15 -46
t-15 -46q-7 -23 -13.5 -45.5t-16.5 -44.5q-2 -4 -6 -4.5t-8 1.5q-7 3 -3 13q3 8 6 15.5t5 15.5q15 46 29.5 91.5t30.5 91.5t31.5 91.5t32.5 91.5q32 88 63 176t58 178q-14 -2 -27.5 -3.5t-27.5 -3.5q-12 -2 -24 -3.5t-24 -3.5t-23.5 -4t-23.5 -2q-10 0 -10 10t10 10
q16 0 32 2.5t33 5.5q17 2 33.5 4.5t33.5 4.5q48 7 96.5 13.5t97.5 11.5q47 6 93.5 12.5t92.5 18.5z" />
    <glyph glyph-name="U" unicode="U" horiz-adv-x="355" 
d="M477 737q9 -2 7 -12q-3 -9 -6.5 -18t-6.5 -18q-2 -10 -6 -19t-8 -19q-1 -5 -2.5 -9t-3.5 -8q-13 -36 -27 -72t-28 -71q-17 -45 -35 -89.5t-35 -89.5q-17 -44 -34 -87.5t-34 -88.5q-32 -87 -59.5 -175t-40.5 -181q-1 -4 -5 -6t-7 -1q-9 3 -7 12q8 60 23 118.5t34 115.5
q6 17 11.5 32.5t11.5 31.5q-9 -15 -18.5 -29.5t-20.5 -28.5q-19 -27 -44 -51q-12 -11 -25 -22t-29 -15q-9 -2 -18 -0.5t-17 6.5q-13 10 -17 22q-7 15 -7.5 31.5t-0.5 32.5q2 23 5 45.5t7 44.5q10 51 24 99.5t29 97.5q7 20 13.5 39.5t12.5 39.5q4 11 8 23t7 24q3 9 12 6.5
t7 -11.5q0 -4 -1 -6q-11 -35 -22.5 -68.5t-22.5 -68.5q-16 -49 -29 -97.5t-22 -99.5q-3 -11 -4.5 -22.5t-3.5 -22.5v-3v-1q0 -2 -0.5 -2.5t-0.5 -2.5q1 -2 0.5 -5t-0.5 -5q0 -5 -0.5 -9.5t-0.5 -9.5q1 -4 1 -8v-9q0 -2 0.5 -4t0.5 -4v-1q0 -1 0.5 -2t0.5 -2q2 -4 4 -12l1 -1
v-1l1 -2t3 -4q0 -1 1 -1q0 -1 1 -2t2 -1q0 -1 1 -1l2 -1q0 -1 2 -1q1 -1 3 -1q3 -1 8 -1q3 1 6.5 1.5t5.5 2.5q15 7 27 18q26 23 47 51t40 59q41 69 70 142.5t58 147.5q37 87 72 174q8 22 16.5 43t16.5 43q9 23 17.5 46.5t16.5 46.5q4 10 12 7z" />
    <glyph glyph-name="V" unicode="V" horiz-adv-x="295" 
d="M476 637q5 8 13.5 3t3.5 -13q-21 -34 -41.5 -67t-40.5 -67q-26 -42 -50.5 -84t-48.5 -86q-45 -84 -86 -172q-20 -43 -39.5 -85.5t-38.5 -86.5q-17 -40 -34.5 -79.5t-43.5 -74.5q-5 -6 -11 -4.5t-7 9.5q-11 89 -11 178.5t7 179.5q8 96 20.5 190t27.5 189q1 4 5 6t7 1
q9 -3 7 -12q-15 -93 -27.5 -184.5t-19.5 -185.5q-7 -85 -7.5 -168t7.5 -167q15 23 27 48t23 51q37 87 75.5 172t82.5 169q46 88 97 171.5t103 168.5z" />
    <glyph glyph-name="W" unicode="W" horiz-adv-x="778" 
d="M803 482q14 -26 18 -53.5t-1 -56.5t-18 -57t-30 -53q-35 -54 -82 -100t-99 -85q-20 -16 -41 -30.5t-44 -28.5q-27 -17 -55.5 -31.5t-59.5 -22.5q-27 -8 -55.5 -7.5t-51.5 17.5q-14 10 -20.5 25t-9.5 31.5t-2.5 33.5t1.5 32q1 14 1.5 27t2.5 27q0 3 0.5 6.5t0.5 6.5
q-13 -20 -25.5 -39.5t-26.5 -39.5q-23 -32 -48 -63t-53 -60q-25 -25 -51.5 -46.5t-56.5 -38.5q-14 -7 -20.5 -2.5t-9.5 9.5q-2 6 -4 16q0 7 1 13.5t2 13.5l6 34t7 34q11 46 25.5 89.5t28.5 88.5q14 41 27.5 80.5t28.5 79.5q30 81 67.5 158.5t89.5 147.5q6 7 13 3
q3 -2 4.5 -6t-1.5 -7q-17 -23 -32.5 -47.5t-29.5 -50.5q-42 -75 -73.5 -154.5t-58.5 -160.5q-14 -43 -28.5 -85.5t-27.5 -85.5q-7 -23 -12 -45.5t-10 -45.5q-2 -11 -3.5 -21t-3.5 -21v-11q0 -2 2.5 -4.5t10.5 1.5q2 2 3 2v1q47 29 85.5 68t71.5 82q24 30 46 62t42 65l21 36
q0 1 0.5 1.5t0.5 1.5q6 29 17 60t34 52q5 5 11 1.5t5 -10.5q-3 -19 -10 -36t-15 -34l-12 -22l-12 -22q-1 -2 -1 -3.5t-1 -3.5q-5 -29 -6.5 -58t-3.5 -58q-1 -16 -0.5 -32t5.5 -32q2 -6 5 -12.5t8 -11.5q3 -2 5.5 -4t5.5 -4q2 -2 5 -2l4 -2q12 -5 24 -6t25 1q14 2 28.5 6.5
t28.5 9.5q29 11 55.5 26.5t51.5 32.5q22 14 42.5 29.5t40.5 31.5q53 44 95 90q22 23 41 49t34 55q13 24 21 51t6 54q0 13 -3.5 26t-8.5 24q-12 27 -35 47q-26 25 -58 39.5t-67 20.5q-36 7 -73.5 5t-72.5 -13q-9 -3 -11.5 6.5t6.5 12.5q34 11 74 13q38 2 75.5 -4t72.5 -21
q31 -14 57.5 -35.5t43.5 -50.5z" />
    <glyph glyph-name="X" unicode="X" horiz-adv-x="296" 
d="M590 720q3 3 7 2.5t6.5 -3.5t3 -6.5t-2.5 -6.5q-45 -39 -89.5 -78.5t-88.5 -80.5q-61 -56 -119 -113.5t-114 -119.5q-2 -3 -7 -8q20 -75 47.5 -147.5t57.5 -144.5q2 -4 -0.5 -7.5t-6.5 -4.5q-8 -3 -12 7q-23 56 -45.5 112.5t-40.5 114.5l-8 26t-7 26q-49 -55 -94 -112.5
t-85 -120.5q-44 -67 -80.5 -138t-62.5 -147q-4 -9 -12 -6q-4 1 -6.5 4.5t-0.5 7.5q20 58 46.5 113.5t57.5 109.5q42 71 90 137t101 129q20 24 40 46q-17 66 -24.5 133t0.5 134q2 10 10 10q10 0 10 -10q-8 -60 -2.5 -119t18.5 -117q1 -3 1.5 -6.5t1.5 -6.5q42 46 84.5 89.5
t87.5 86.5q58 56 117.5 109t120.5 106z" />
    <glyph glyph-name="Y" unicode="Y" horiz-adv-x="479" 
d="M588 651q4 8 12.5 4t5.5 -12q-8 -23 -16.5 -46.5t-18.5 -46.5q-9 -23 -18.5 -45t-19.5 -44q-23 -60 -44 -119t-41 -119q-11 -34 -23 -67.5t-23 -68.5q-4 -14 -8 -26.5t-9 -26.5q-2 -8 -4 -12q-1 -3 -4 -13t-7.5 -22t-8.5 -24l-6 -18q-8 -23 -17 -45t-19 -44
q-7 -17 -15 -34t-19 -32q-7 -10 -18 -17.5t-22 3.5q-14 13 -13.5 31t7.5 34q10 23 24 43t30 39q12 14 25 27t27 25q8 22 14.5 43t14.5 43q18 57 37 113t39 113q5 16 10 29q-14 -24 -27.5 -47t-28.5 -46q-12 -19 -24.5 -37t-25.5 -37q-11 -16 -23 -31.5t-26 -29.5
q-26 -28 -56.5 -50.5t-66.5 -35.5q-23 -9 -49 -13t-51 1q-13 2 -25 8.5t-20 17.5q-20 24 -20.5 56t4.5 61q8 43 22.5 83.5t31.5 80.5q20 46 42 90t45 89q21 39 43.5 78t45.5 78q14 24 28.5 47.5t28.5 47.5q2 4 6 4.5t7 -1.5t4.5 -5.5t-0.5 -7.5q-4 -4 -5 -8
q-16 -27 -32 -53.5t-32 -53.5q-24 -40 -46.5 -80t-44.5 -81l-45 -90q-5 -11 -10 -22.5t-10 -22.5q-10 -20 -18 -43q-16 -39 -30 -83q-2 -10 -4.5 -19.5t-4.5 -19.5q-2 -5 -2.5 -9t-1.5 -9q0 -3 -1 -4v-3q0 -2 -0.5 -4t-0.5 -4q-1 -8 -1 -15.5v-15.5q0 -5 1 -8v-3v-1
q1 -5 3 -13q1 -2 1 -3t1 -3q0 -1 0.5 -1.5t0.5 -1.5v-1q2 -2 3 -5t3 -5q1 -1 1 -1.5t1 -1.5q1 -2 2 -2.5t2 -1.5q1 -2 2 -2.5t2 -1.5l1 -1q1 0 1 -0.5t1 -0.5q4 -4 10 -6h1l1 -1q2 0 3 -1q2 0 6 -2q2 0 3.5 -0.5t3.5 -0.5h3q1 0 2 -1h16q34 1 66 13.5t59 32.5
q32 22 57.5 50.5t46.5 59.5q26 38 50.5 75.5t47.5 77.5q21 38 40.5 76t36.5 76q17 47 35 92t38 91zM313 -110q5 11 8.5 21.5t8.5 21.5l-13.5 -13.5t-12.5 -13.5q-16 -19 -29 -39l-6 -10l-6 -10q-1 -2 -2 -4.5t-2 -5.5q-1 0 -1 -1t-1 -1q0 -2 -0.5 -2.5t-0.5 -2.5
q-2 -4 -3 -7.5t-1 -8.5l-1 -3v-4v-4v-1q1 -1 1 -4q1 0 1 -1q2 -4 2 -5q1 0 3 -2v-1q1 1 2 1v1q1 1 2 1.5t2 1.5l2 2q0 1 1 2t1.5 2t1.5 2q4 6 8 13q10 19 17 35q6 9 9 20q1 1 1 1.5t1 1.5v1q2 4 2 6q2 2 2.5 5t2.5 5z" />
    <glyph glyph-name="Z" unicode="Z" horiz-adv-x="302" 
d="M620 643q8 1 10 -7t-5 -11q-41 -19 -79 -42.5t-74 -50.5q-38 -28 -73 -58.5t-68 -62.5q-28 -26 -54.5 -52t-53.5 -53q-54 -53 -103.5 -110.5t-86.5 -123.5q-18 -33 -32 -67.5t-22 -71.5q-2 -12 -3.5 -24t-0.5 -25v-5v-1l1 -2q0 -2 2 -8q0 -3 1 -4q0 -1 1 -2l3 -6
q0 -1 1 -2l2 -2q1 -2 2 -2.5t2 -2.5h1l1 -1q1 0 1.5 -0.5t1.5 -0.5l2 -2h1q6 -2 7 -2t1.5 -0.5t1.5 -0.5h2q7 -2 15 0h8l2 1q3 0 5 1q10 2 17 4q5 2 9.5 3t9.5 3q2 1 4.5 2t5.5 2q1 0 1 0.5t1 0.5h1q2 2 4 2q40 18 76 41q8 5 16.5 10.5t16.5 11.5q3 2 6.5 5t7.5 5
q2 2 3.5 2.5t3.5 2.5q1 1 1.5 1t1.5 1l1 1q7 5 14 0q2 -2 2.5 -6.5t-2.5 -7.5q-42 -31 -83 -56q-19 -11 -38.5 -20t-39.5 -17q-17 -6 -35 -10.5t-35 -2.5q-8 2 -15.5 3.5t-13.5 6.5q-14 10 -20 27q-9 22 -6 47t8 47q19 77 60 144t92 126q24 28 49.5 54t51.5 52q28 27 55 54
t55 53q35 32 70 62t73 58q49 37 101 65q-54 -5 -109 -7.5t-109 -6.5q-95 -7 -187.5 -22t-182.5 -49q-8 -3 -12 7q-1 9 7 12q67 25 136.5 40t140.5 23q91 10 182.5 14t183.5 13z" />
    <glyph glyph-name="bracketleft" unicode="[" horiz-adv-x="104" 
d="M277 675q5 -1 6.5 -4.5t0.5 -7t-4.5 -6t-7.5 -1.5q-16 4 -27 -6q-7 -6 -10 -14l-6 -16q-7 -20 -17 -43q-2 -5 -4.5 -11t-4.5 -11q-1 -1 -1 -2v-1q0 -2 -0.5 -2.5t-0.5 -2.5q-2 -3 -4 -9l-4 -10t-4 -11q-2 -5 -4 -9t-4 -9q-4 -12 -8 -23.5t-9 -23.5l-33 -93
q-17 -46 -33 -92t-32 -93q-17 -46 -33 -92t-32 -94q-4 -11 -7.5 -22t-7.5 -22q-2 -5 -6 -13q-1 -2 -1 -3t-1 -2t-1 -2v-1q0 -4 -4 -10l-2 -6t-2 -5q-8 -19 -15.5 -37t-12.5 -38q7 0 11 -1q4 0 6.5 -3t2.5 -7t-2.5 -6.5t-6.5 -2.5q-14 0 -25 4q-8 3 -7 12q5 23 14 45.5
t19 44.5l2 6l2 6q1 1 1 5q2 4 3 5q2 6 4.5 11.5t4.5 11.5q5 11 8.5 23t7.5 23q32 94 64.5 186t65.5 186q8 23 16.5 46.5t17.5 46.5q4 11 8 23t9 23q2 5 3.5 9.5t3.5 9.5l4 10l4 10q1 1 1 5l3 6q1 2 2 4.5t2 5.5q2 5 4.5 10.5t4.5 11.5q5 11 9 22t8 23q8 19 24.5 28.5
t36.5 4.5z" />
    <glyph glyph-name="backslash" unicode="\" horiz-adv-x="468" 
d="M102 702q-2 9 7 12q9 1 12 -7q18 -52 37 -103.5t39 -102.5q35 -91 72.5 -180t75.5 -179q38 -91 77 -179.5t77 -178.5q5 -8 -3 -13q-3 -2 -7 -1.5t-6 4.5q-23 52 -44.5 103t-44.5 103q-39 90 -77 179t-75 180q-38 91 -73 180.5t-67 182.5z" />
    <glyph glyph-name="bracketright" unicode="]" horiz-adv-x="94" 
d="M165 652q-5 0 -7.5 2.5t-2.5 6.5t2.5 7t7.5 3h14t14 1q10 0 10 -10q-3 -20 -8.5 -39.5t-13.5 -39.5q-8 -19 -15 -37.5t-14 -37.5q-16 -45 -32 -90.5t-31 -90.5q-8 -23 -14.5 -46t-14.5 -46t-15.5 -45t-15.5 -44q-8 -23 -16.5 -45t-15.5 -45q-16 -47 -27 -91
q-7 -23 -13 -46t-14 -46q-5 -11 -8.5 -22.5t-8.5 -22.5q-2 -6 -5.5 -11t-10.5 -6q-5 -2 -10.5 -1.5t-10.5 1.5q-5 0 -7.5 3t-2.5 7t2.5 6.5t7.5 2.5t9.5 -1t9.5 1l-4 -2q1 1 1.5 2t1.5 2l-2 -4q6 14 11.5 29t10.5 30t9 29.5t8 29.5q13 46 26 91.5t32 90.5q5 11 8 22t7 22
t8 22.5t8 22.5q8 23 15 45.5t15 45.5q7 23 15 45.5t16 45.5t15.5 45t15.5 45l16 44t16 43t15.5 42t10.5 44l10 -10h-28v0z" />
    <glyph glyph-name="asciicircum" unicode="^" horiz-adv-x="166" 
d="M240 656q5 4 10.5 -1t3.5 -10q-6 -24 -17 -46.5t-16 -47.5q-2 -9 -12 -7q-7 3 -7 12q3 17 10 33l14 32q-39 -28 -73 -66q-3 -4 -6.5 -3.5t-6.5 3t-3.5 6.5t2.5 8q22 25 48 46t53 41z" />
    <glyph glyph-name="underscore" unicode="_" horiz-adv-x="166" 
d="M136 121q10 0 10 -9.5t-10 -9.5h-109q-10 0 -10 9.5t10 9.5h109v0z" />
    <glyph glyph-name="grave" unicode="`" horiz-adv-x="98" 
d="M84 567q5 -6 -3.5 -10t-13.5 3q-11 14 -23 27.5t-23 27.5q-2 3 -0.5 5.5t4.5 4t7 1.5t6 -3q11 -15 23 -28.5t23 -27.5z" />
    <glyph glyph-name="a" unicode="a" horiz-adv-x="134" 
d="M133 196q3 3 7 2.5t6.5 -3.5t3 -6.5t-2.5 -6.5q-7 -6 -13 -12t-14 -12q-8 -7 -18.5 -12.5t-21.5 -7.5q-14 -2 -20.5 8t-7.5 22q0 10 1 14q-5 -3 -8 -8q-7 -6 -17 -12.5t-21 -0.5q-7 4 -9 11t-0.5 15t5 15.5t8.5 12.5q8 9 24 13.5t28 -1.5q2 4 5 7.5t6 7.5q5 7 12 1.5
t3 -12.5q-7 -14 -13 -29.5t-4 -31.5v-6q1 -1 1 -2v-1l2 -2q-1 1 0.5 -0.5t-0.5 -0.5h1h1h2h3q1 1 2 1t2 1h1l1 1l4 2l4 2q5 3 8.5 5.5t6.5 5.5q6 5 11.5 10t10.5 10zM51 210q-2 1 -4 1l-12 -3q-8 -4 -10 -7q-2 -2 -3.5 -4.5t-2.5 -5.5q-1 -2 -1.5 -4t-1.5 -4v-1v-1v-1v-1v-1
h1h1q1 1 2 1l3 3h1l2 2q3 1 4 4q5 3 8 8q6 6 9 10q1 1 1.5 2t2.5 2zM75 158v1v-1z" />
    <glyph glyph-name="b" unicode="b" horiz-adv-x="138" 
d="M152 196q6 -6 0 -14q-30 -37 -74 -60t-92 -25h-1l-18 -57q-1 -5 -4.5 -6t-7 -0.5t-6 3.5t-1.5 8q11 38 24 74t26 73q17 47 32 93.5t31 94.5q8 23 15 45.5t16 45.5q8 22 15.5 43.5t11.5 44.5q2 9 12 7q4 -1 5.5 -4.5t1.5 -7.5q-3 -18 -8.5 -36t-12.5 -35t-13 -35l-12 -36
q-16 -47 -31 -93.5t-31 -94.5l-12 -34l-12 -34q6 8 12 15t13 14q7 8 15.5 14.5t18.5 9.5q11 3 20 -2.5t12 -16.5q5 -17 -3 -35q25 18 44 41q2 3 6.5 2.5t7.5 -2.5zM37 163q-8 -9 -14.5 -17.5t-13.5 -18.5q-2 -2 -2.5 -3.5t-2.5 -3.5q14 2 27.5 5t24.5 11q10 7 17 19t6 25
q0 4 -3 9l-1 1h-1h-1v1h-1q0 -1 -1 -1h-1q-2 0 -2 -1q-6 -2 -8 -4l-2 -2h-1l-3 -3q-9 -8 -17 -17z" />
    <glyph glyph-name="c" unicode="c" horiz-adv-x="97" 
d="M98 196q7 6 13.5 -0.5t-0.5 -13.5l-20 -18t-21 -17q-11 -9 -25 -17.5t-28 -10.5q-7 -1 -14.5 0.5t-12.5 7.5q-12 16 -5 38q3 11 8.5 20.5t12.5 18.5q7 8 14.5 16t17.5 13l10 4t11 1q5 0 10 -2t7 -7q4 -9 0 -17t-10 -15q-3 -3 -6.5 -2.5t-6.5 3t-3.5 6.5t2.5 7q5 5 6 8
q-3 0 -4 -1q-9 -2 -16 -8.5t-13 -12.5q-6 -8 -11 -16t-8 -17q-4 -7 -4 -17q1 -1 1 -3l1 -2q0 -1 1 -2v-1h2q0 -1 1 -1h2q2 0 4 0.5t5 1.5q8 2 20 9q17 10 31 22t28 25z" />
    <glyph glyph-name="d" unicode="d" horiz-adv-x="138" 
d="M209 555q3 9 12.5 6.5t6.5 -11.5q-16 -47 -31 -92.5t-32 -91.5q-2 -6 -4 -10l-122 -357q-1 -5 -4.5 -6.5t-7 -0.5t-6 4t-1.5 8l82 253l-21 -33q0 -1 -1 -2q-7 -10 -13 -19.5t-13 -19.5q-7 -8 -15.5 -16.5t-20.5 -10.5q-12 -1 -18 7.5t-4 19.5t7.5 20.5t13.5 17.5
q9 9 24.5 17.5t28.5 3.5q20 32 37.5 63.5t32.5 66.5q20 45 36.5 90.5t32.5 92.5zM47 207q3 4 5.5 8t5.5 9q-4 -2 -6.5 -2.5t-5.5 -2.5q-18 -10 -26 -25l-4 -8t-1 -9v-1q0 -1 1 -1v1q1 -1 2.5 0t2.5 1q8 5 14.5 13.5t11.5 16.5z" />
    <glyph glyph-name="e" unicode="e" horiz-adv-x="92" 
d="M106 193q4 -7 -4 -13q-5 -4 -9.5 -7.5t-9.5 -7.5l-10 -6l-10 -6q-7 -4 -14.5 -7t-15.5 -5t-17 -2t-16 5q-8 6 -9.5 14t0.5 17q2 8 5 14.5t7 14.5q4 7 8.5 14t10.5 12q7 7 16 11t18 1q11 -3 14.5 -12.5t-1.5 -18.5q-8 -14 -24 -19t-30 -8q-2 -4 -4 -12t-1 -10l1 -1v-1h1
q0 -1 1 -1t2 -1q4 0 7 0.5t7 1.5q14 4 28 12q5 3 9.5 6t9.5 6t8.5 6.5t7.5 6.5q9 5 14 -4zM52 223q-5 3 -12 -2.5t-10 -9.5q-1 -2 -3 -4q3 1 6.5 1.5t6.5 2.5q6 3 11 8l2 3z" />
    <glyph glyph-name="f" unicode="f" horiz-adv-x="108" 
d="M129 530q4 -1 6.5 -4.5t0.5 -7.5l-9 -24q-18 -46 -34.5 -92t-32.5 -93q-17 -47 -32.5 -93t-32.5 -92l-9 -24q31 23 62 46.5t60 49.5q8 6 14 0q2 -3 2.5 -7.5t-2.5 -6.5q-35 -30 -71.5 -57.5t-72.5 -55.5v-2q5 -12 7 -25t1 -27q-2 -35 -15 -67.5t-30 -62.5
q-31 -55 -71 -107q-5 -7 -12.5 -4t-5.5 11l5 23q14 64 38.5 124t50.5 120v1q2 2 6 13q2 5 4 11q2 4 6 14l12 30t11 31q32 94 64 186.5t68 184.5q4 10 12 7zM-52 -56q10 24 15.5 50.5t0.5 52.5q-23 -55 -45.5 -109t-36.5 -111q19 28 36 57t30 60z" />
    <glyph glyph-name="g" unicode="g" horiz-adv-x="116" 
d="M133 193q3 -8 -5 -13l-14 -12t-15 -12q-14 -12 -26 -24t-24 -25q-4 -14 -8 -27l-8 -26q-9 -23 -17 -46l-16 -46q-2 -11 -5 -22t-8 -22q-5 -10 -10 -19.5t-13 -16.5q-7 -6 -17.5 -7.5t-18.5 3.5q-13 8 -13 27q0 22 9 42.5t19 39.5q5 11 10.5 21t12.5 19q7 11 14 20t13 19
q8 13 18.5 25.5t21.5 24.5q5 17 9.5 33t8.5 33q-6 -8 -16 -17q-6 -5 -13 -6.5t-14 1.5q-5 3 -7 9t-3 13q2 14 8 25t18 18q10 5 21 6t20 -5l6 24q3 9 12.5 6.5t6.5 -11.5q-7 -24 -14 -48.5t-14 -48.5q14 14 27.5 26t29.5 23q4 2 8 0.5t6 -4.5zM29 187q6 5 11 11.5t10 12.5
q-2 2 -5 0q-4 0 -12 -4q-6 -4 -11 -10t-7 -14v-4t2 -1q6 1 12 9zM-14 -29q8 23 14.5 46t14.5 46q3 3 2 5q-11 -13 -18.5 -25.5t-17.5 -26.5q-5 -10 -11 -20t-12 -21q-9 -20 -18 -42q-2 -5 -3 -10.5t-2 -11.5q0 -1 -0.5 -4.5t0.5 -5.5q0 -4 1 -5l1 -1q-1 1 0 0.5t1 -1.5h3h3
q3 0 5 1q8 5 12.5 14.5t8.5 17.5q5 11 8.5 22t7.5 22z" />
    <glyph glyph-name="h" unicode="h" horiz-adv-x="132" 
d="M131 195q3 3 6.5 2.5t6.5 -3t3.5 -6.5t-2.5 -7q-9 -10 -19 -18t-21 -16l-21 -15q-5 -2 -10 -4.5t-11 -3.5q-11 0 -16 9t-1 19l6 24q0 2 0.5 3t0.5 3q-21 -11 -36 -30.5t-27 -40.5q-3 -5 -8.5 -4t-8.5 5q-1 1 -1 4t2 7q1 2 1.5 3.5t1.5 3.5t1 3t1 3q2 6 2 7l3 9q3 4 3 9
q28 79 55 158l54 158q3 9 12.5 6.5t6.5 -11.5l-102 -297q22 22 49 32q5 2 8.5 -1t3.5 -8q0 -11 -2.5 -21t-4.5 -20q-1 -3 -2 -7t-1 -6h2q9 5 17.5 11t16.5 12q17 12 31 28z" />
    <glyph glyph-name="i" unicode="i" horiz-adv-x="83" 
d="M82 195q7 7 14 0t0 -14q-11 -9 -21.5 -17.5t-22.5 -15.5q-5 -3 -11 -6.5t-12 -5.5q-5 -2 -11 -3t-12 2q-14 8 -12.5 24t4.5 28q2 7 4 13.5t4 12.5t4.5 12t3.5 13q2 9 12 7q7 -3 7 -12q-2 -11 -6.5 -21.5t-7.5 -21.5q-2 -7 -3 -13l-2 -12q-1 -3 -1 -9q0 -1 0.5 -1t0.5 -1
t1 -2h1q2 0 2.5 0.5t1.5 0.5l4 2l4 2q5 3 10 5.5t10 6.5q9 5 17.5 11.5t16.5 14.5zM54 393q-4 -2 -7.5 0.5t-4.5 6.5q-3 8 7 12q10 3 19.5 6.5t18.5 7.5q4 1 7.5 -1.5t4.5 -5.5q3 -8 -6 -12q-10 -4 -19.5 -7t-19.5 -7z" />
    <glyph glyph-name="j" unicode="j" horiz-adv-x="64" 
d="M64 197q3 2 7 0.5t6 -4.5q4 -7 -3 -13q-20 -14 -35 -29q-12 -11 -22.5 -22t-21.5 -22l-6 -18t-5 -18l-14 -42t-15 -42q-4 -11 -7.5 -23t-8.5 -23q-5 -13 -11 -26t-14 -24t-18 -15q-9 -3 -20 -1q-10 3 -14.5 11t-4.5 18q0 11 2.5 21t6.5 20q9 24 21 45q4 8 8 15.5t9 15.5
q8 14 18.5 27.5t21.5 27.5q8 11 16.5 20.5t16.5 19.5q12 41 23.5 81t22.5 80q3 9 12.5 6.5t6.5 -11.5l-30 -108q-2 -4 -2.5 -7.5t-2.5 -8.5q14 14 27.5 26t29.5 23zM-61 -1q6 17 12 34.5t11 34.5q-9 -11 -17.5 -22.5t-16.5 -22.5q-11 -17 -20.5 -34.5t-17.5 -35.5
q-1 -2 -2 -5q0 -1 -2 -5q-2 -6 -4 -11t-3 -10l-2 -10v-1v-1v-2v-4v-4v-1q0 -1 1 -2l1 -2q1 0 1 -1h2h3h3h2l2 2l1 1q1 0 1 0.5t1 0.5q2 2 3 4l1 1q0 1 0.5 1t0.5 1q8 12 13 24.5t10 25.5q5 11 8 22t8 22zM71 401q9 3 11.5 -6.5t-6.5 -12.5l-18 -8t-19 -8q-8 -5 -13 3
q-2 3 -1 7t4 6q11 5 21 10t21 9z" />
    <glyph glyph-name="k" unicode="k" horiz-adv-x="150" 
d="M149 194q2 4 6 4.5t7 -1.5t4.5 -5.5t-0.5 -7.5l-10 -17q-10 -14 -20.5 -27.5t-24.5 -24.5q-16 -13 -34 -13h-3q-6 0 -8 1q-1 0 -1 0.5t-1 0.5q-10 3 -17 12v1q-2 2 -3 4q-8 9 -12.5 19.5t-7.5 20.5q-4 11 -6 23l-1 -2v1l-24 -72q-3 -9 -12.5 -6t-6.5 12q8 24 16 48.5
t16 48.5q5 17 9 26q14 44 28 87l28 86q3 9 12.5 6.5t6.5 -11.5q-13 -39 -25.5 -78t-25.5 -79q15 12 30.5 22.5t31.5 20.5q8 5 12.5 -3.5t-2.5 -13.5q-22 -14 -43 -28.5t-40 -32.5l8 -27l7 -22q1 0 1 -1q0 -3 1 -4l1 -2q0 -2 1 -3v-1l2 -4q0 -1 0.5 -1.5t0.5 -1.5q2 -2 3 -5
t3 -6q2 -4 4 -6l1 -2l1 -1l4 -3v-1q1 0 2 -1q1 0 1 -0.5t1 -0.5l1 -1h3h2h5q4 1 10 4q12 7 23 19q11 11 19 23.5t16 25.5z" />
    <glyph glyph-name="l" unicode="l" horiz-adv-x="89" 
d="M6 146l-4 -18t-1 -18v-2q0 -1 1 -2q0 -3 1 -4q0 -1 1 -2v-1h1h1h1l2 1l2 1q2 1 3.5 2t3.5 2l1 1l2 1l3 3l7 7l8.5 8.5t7.5 8.5q7 9 13 17t13 18l8 12t7 13q2 4 6 4.5t7 -1.5t4.5 -5.5t-0.5 -7.5q-7 -13 -15.5 -25t-16.5 -23q-7 -8 -13 -16t-14 -15q-5 -6 -11 -11.5
t-14 -9.5t-16.5 -4.5t-14.5 6.5q-9 12 -8.5 27t3.5 28q11 46 26.5 91t31.5 90q17 47 32.5 93t32.5 93t33 93t33 94q3 8 12 7q9 -3 7 -12q-24 -68 -48 -134.5t-47 -134.5q-8 -23 -16 -46.5t-16 -46.5q-8 -24 -16.5 -47.5t-16.5 -46.5q-8 -22 -14.5 -44t-12.5 -44z" />
    <glyph glyph-name="m" unicode="m" horiz-adv-x="189" 
d="M203 195q8 -8 0 -14q-7 -6 -14 -12.5t-13 -13.5l-12 -15h-1q0 -1 -2 -3q-11 -11 -17.5 -10t-8.5 3q0 1 -1 1q-2 2 -2 6q1 12 3 23.5t5 22.5q2 11 4.5 23t4.5 23q1 5 2 11t1 12v1q-3 -2 -7 -6.5t-7 -7.5q-6 -8 -12 -17.5t-11 -18.5q-8 -14 -14.5 -29t-16.5 -28
q-3 -4 -8 -7.5t-12 -3.5q-1 1 -3 1q-1 0 -3 2q-4 4 -4 7q1 14 4 27.5t8 27.5q2 7 4.5 13t3.5 13q0 1 0.5 2.5t0.5 2.5h-1q-1 0 -3 -2q-5 -3 -9.5 -7.5l-9.5 -9.5t-8.5 -10t-7.5 -10q-8 -11 -14.5 -22.5t-14.5 -22.5q-5 -6 -12 -3.5t-5 11.5q4 17 8 34.5t11 34.5q4 10 12 7
q4 -1 6.5 -4.5t0.5 -7.5q-3 -5 -4 -11q0 1 0.5 1t0.5 1q12 15 22 24q6 5 12 10.5t14 6.5q5 0 9 -0.5t7 -4.5q5 -7 5 -13q1 -8 -1 -14.5t-4 -13.5l-6 -16t-5 -17q5 8 8.5 16.5t7.5 16.5q11 21 24 38q4 6 8 11t9 10q5 4 10 7t11 3q9 -1 12 -6.5t3.5 -12.5t-1 -14.5t-1.5 -13.5
q0 4 -0.5 0t-0.5 -5t-0.5 -2t-0.5 -3q-2 -8 -2 -11q-2 -6 -2.5 -11.5t-2.5 -11.5l-1 -1q0 -2 -1.5 -8.5t-1.5 -9.5q-1 -1 -1 -4q2 2 3.5 4t3.5 4q6 8 13 14t14 13q8 6 14 0z" />
    <glyph glyph-name="n" unicode="n" horiz-adv-x="114" 
d="M127 193q4 -7 -3 -13q-14 -11 -26.5 -24.5t-31.5 -18.5q-5 -2 -8.5 1t-3.5 8q0 10 2 19.5t5 18.5q2 6 3.5 12t3.5 12q2 5 4 11.5t2 11.5q-2 0 -3 -1l-2 -2l-2 -1q-2 -2 -4 -3.5t-4 -3.5q-5 -5 -8.5 -9t-7.5 -9q-11 -12 -18.5 -26.5t-17.5 -27.5q-5 -6 -12.5 -3.5
t-5.5 11.5q5 17 9 34.5t11 34.5q4 10 12 7q3 -1 6 -4.5t1 -7.5q-2 -3 -2.5 -5.5t-2.5 -5.5q2 2 4.5 5t4.5 5q5 5 9.5 10t9.5 10q5 4 10 7.5t12 4.5q7 2 12.5 -1.5t7.5 -11.5q1 -13 -4 -29q-2 -6 -3.5 -12t-3.5 -11q-2 -6 -3.5 -12t-3.5 -12q4 2 7 5l6 6q7 6 13 12.5t13 11.5
q3 2 7 0.5t6 -4.5z" />
    <glyph glyph-name="o" unicode="o" horiz-adv-x="112" 
d="M124 191q2 -9 -7 -12t-19.5 -6t-21.5 -4h-6q-1 -2 -1 -2.5t-1 -2.5q-5 -8 -10.5 -15t-11.5 -14q-6 -5 -13.5 -9.5t-15.5 -6.5q-11 -2 -19 3t-11 16t-0.5 21.5t6.5 20.5q10 23 23 39q6 8 14 15t19 9q10 0 12 -7q2 -10 -7 -12q-8 -1 -12.5 -6t-9.5 -10q-5 -6 -9.5 -13
t-8.5 -14q-3 -7 -5.5 -14.5t-3.5 -15.5q0 -2 0.5 -5.5t2.5 -5.5l2 -2h1h2q12 2 21 12.5t15 20.5l2 3q-11 4 -12 15q-2 10 5.5 17t15.5 6h3q4 -2 7 -4q3 -1 4 -4q0 -1 1 -1q2 -6 2 -8v-5v-1h2q16 3 33 9q9 2 12 -7z" />
    <glyph glyph-name="p" unicode="p" horiz-adv-x="121" 
d="M134 193q4 -7 -3 -13q-16 -11 -34.5 -18.5t-37.5 -13.5q-11 -3 -22 -5t-22 -2h-5q-6 0 -8 1v-2l-101 -314l-1 -1q0 -2 -3.5 -7.5t-9.5 -3.5q-8 4 -7 11q0 2 0.5 3t0.5 2l72 222q1 1 1 2l23 71l14 43q0 2 1 2v1q1 5 5 15l22 72l1 3q4 10 12 7q9 -2 7 -12q-3 -8 -5.5 -15
t-4.5 -15l-3 -9q10 5 22 8t20 -6q10 -12 3.5 -25.5t-14.5 -22.5q-1 -1 -1.5 -2t-1.5 -2q6 2 13 4.5t15 4.5q3 2 6.5 3t6.5 3q15 7 26 15q3 2 7 1t6 -5zM10 167q7 -1 14.5 3.5t13 9.5t9 10l3.5 5l2 4l2 4v1q0 1 -2 1h-2q-2 0 -6 -2q-10 -3 -21 -12l-3 -2l-4 -4z" />
    <glyph glyph-name="q" unicode="q" horiz-adv-x="97" 
d="M62 259q1 4 4.5 5.5t7 0.5t6 -4.5t1.5 -7.5q-2 -5 -3.5 -10.5t-3.5 -10.5l-139 -437q-1 -2 -4 -6.5t-11 -4.5h-2q-5 2 -4.5 6.5t1.5 6.5l110 347q2 7 4.5 13t4.5 13l4 15q-5 -4 -9 -8q-4 -3 -9 -5t-10 0h-1h-1q-6 3 -6 7q-5 14 -0.5 27t14.5 22q8 8 19 13.5t23 3.5z
M20 193q7 3 12.5 8.5l10.5 10.5q5 6 9 14l-10 -3q-9 -4 -15 -11q-9 -8 -9 -20q1 0 2 1z" />
    <glyph glyph-name="r" unicode="r" horiz-adv-x="72" 
d="M72 194q2 4 6 4.5t7 -1.5t4.5 -5.5t-0.5 -7.5q-8 -14 -15 -27.5t-15 -27.5q-4 -6 -7.5 -12.5t-8.5 -11.5q-4 -4 -10 -8t-13 -2t-9 8t-2 13q0 15 3 32l4 16t5 16q1 2 2 5t2 5h-2h-1q-1 0 -1.5 0.5t-1.5 0.5l-15 -46q-3 -9 -12 -6t-7 12q1 1 1 4q1 2 4 12.5t5 15.5t3 8.5
t3 7.5l-1 1q-1 1 -3 5q-1 1 -1 2q-3 9 -2 17q0 11 11 15q13 2 19 -7q5 -9 2 -23q4 0 7.5 -0.5t7.5 -0.5q7 -2 7 -10v-3q-2 -5 -3.5 -8.5t-3.5 -8.5q-2 -7 -4 -13.5t-4 -12.5q-2 -7 -3 -13.5t-1 -14.5q0 -2 -0.5 -3t-0.5 -3q0 1 1 1q2 2 3 4t3 4q3 5 6.5 10.5t6.5 10.5
q6 11 12 22.5t12 23.5zM11 222q-1 0 1 -7v4q0 3 -1 3z" />
    <glyph glyph-name="s" unicode="s" horiz-adv-x="95" 
d="M106 195q3 -3 3.5 -7.5t-3.5 -6.5q-23 -19 -53 -33q-5 -2 -8.5 -3.5t-7.5 -3.5q0 -2 -1 -2q-1 -11 -5 -21.5t-14 -15.5q-11 -6 -19.5 1.5t-7.5 18.5t9.5 18t16.5 12q-2 11 -6 20t-7 18t-4 19q-2 15 3 27q2 8 6 14t11 9q8 3 16 -1t11 -11q7 -16 -2.5 -30t-19.5 -24l-1 -1
q2 -4 3 -8t3 -8q4 -10 5 -15q6 2 11.5 5t10.5 5q10 5 19 10.5t18 13.5q7 6 13 0zM19 221q0 -2 -1 -2v-4q2 2 4 6q4 3 6 9q1 1 1 3l1 1v1v1q0 1 -1 1q0 1 -1 2q-1 0 -2 1t0 0q-1 0 -1.5 -0.5t0.5 -0.5q-2 -2 -2 -3l-1 -1v-1l-2 -6t-1 -6v-1zM9 121q1 0 2 1l3 6q-4 -4 -5 -7z
" />
    <glyph glyph-name="t" unicode="t" horiz-adv-x="60" 
d="M200 316q-36 -4 -72 -7t-72 -7q-14 -38 -26.5 -76.5t-25.5 -76.5q-15 -48 -30.5 -94t-30.5 -93l-30 -94q-7 -23 -13.5 -46.5t-14.5 -46.5q-3 -9 -12.5 -6.5t-6.5 11.5q10 30 19 60.5t18 60.5t19 60l20 60q45 139 93 279l-149 -15q-10 0 -10 10q0 8 10 10l156 15l27 75
q4 10 12 7q9 -2 7 -12q-7 -17 -13 -34l-12 -34l134 13h4q3 0 6.5 -1.5t3.5 -6.5q1 -6 -2 -8t-6 -3h-3v0z" />
    <glyph glyph-name="u" unicode="u" horiz-adv-x="117" 
d="M115 195q6 7 13 0.5t1 -13.5q-8 -9 -15.5 -17t-17.5 -15q-8 -5 -19 -8t-21 2q-7 3 -9 10q-2 -2 -4 -3t-4 -3q-7 -5 -17 -12t-20 -3q-13 5 -12 17.5t4 23.5q4 14 8 28.5t9 28.5q3 9 12 7q10 -4 7 -12q-5 -13 -8.5 -25.5t-7.5 -26.5q-1 -4 -2 -7.5t-2 -7.5v-7l1 1
q1 0 2.5 1t3.5 2l6 4l6 4q8 6 14.5 13.5t10.5 16.5q1 1 1 3q3 9 12 7q10 -4 7 -12q0 -2 -2 -6t-3 -7.5t-3 -8.5q0 -3 -1 -4v-2v-3h1q-1 0 1 -1q2 0 3 1q5 0 7 1q5 2 13 8q13 12 25 25zM65 161l1 -1z" />
    <glyph glyph-name="v" unicode="v" horiz-adv-x="123" 
d="M153 306q3 4 6.5 4t6.5 -1.5t4 -5t-2 -7.5q-28 -39 -53 -79.5t-49 -82.5q-7 -13 -13 -26t-14 -26q-7 -12 -15.5 -24.5t-22.5 -17.5q-4 -2 -7 0.5t-4 5.5q-7 18 -5 38t6 38q3 23 6.5 45.5t6.5 45.5q1 4 5 6t8 0q7 -1 5 -12l-6 -42t-7 -43q-2 -14 -4 -28.5t0 -28.5
q2 2 3 3.5t3 3.5q5 6 8 12.5t7 13.5q7 13 13 25.5t14 25.5q23 41 47 80t53 77z" />
    <glyph glyph-name="w" unicode="w" horiz-adv-x="156" 
d="M164 191q2 -10 -7 -12q-13 -2 -26 -3t-26 -3q-3 0 -5 -1v0q-2 -1 -2.5 -2t-1.5 -2l-7.5 -7.5t-8.5 -6.5q-6 -4 -13.5 -5t-12.5 6q-3 3 -3 5q-1 0 -1 -1l-12 -16l-12 -16q-4 -5 -8 -9l-8 -8q-3 -3 -6.5 -6t-7.5 -5q-5 -2 -10.5 -1.5t-8.5 6.5q-3 5 -2.5 11t2.5 12
q2 11 5.5 21t7.5 21q7 21 15.5 40.5t18.5 39.5q4 8 12.5 3t4.5 -13q-20 -38 -33 -76q-3 -10 -6.5 -19.5t-5.5 -20.5q8 8 15.5 17.5t14.5 18.5q6 8 11.5 15.5t9.5 16.5q4 7 11 4.5t7 -9.5q1 -4 1 -7t1 -7l1 -2v-1q0 1 1 1q3 2 6 5t6 5q5 6 10 9q8 4 19 4q11 2 21 2.5t21 2.5
q9 2 12 -7z" />
    <glyph glyph-name="x" unicode="x" horiz-adv-x="136" 
d="M137 195q6 7 13 0t0 -14q-14 -16 -27.5 -32t-27.5 -31q-8 -8 -16 -15t-19 -9q-20 -5 -35 9q-4 4 -7 7.5t-6 7.5q-9 -16 -19 -28q-7 -11 -13 -21.5t-9 -22.5q-3 -9 -12 -6.5t-7 12.5q4 13 10 24.5t14 22.5q7 10 13.5 20t13.5 20q-5 20 -4 41t1 41q1 10 10.5 10t9.5 -10
q-1 -14 -2.5 -30t0.5 -31q27 36 58 67q7 6 14 -0.5t0 -13.5q-35 -35 -66 -77q5 -11 13 -17q7 -7 14 -6.5t13.5 4.5t12 10.5t10.5 11.5q13 14 25 28t25 28z" />
    <glyph glyph-name="y" unicode="y" horiz-adv-x="112" 
d="M125 195q5 -6 -4 -13q-4 -2 -7 -5t-6 -5q-37 -32 -72 -71q-13 -38 -27 -75.5t-28 -75.5q-5 -11 -9.5 -21.5t-9.5 -21.5q-5 -9 -11 -18t-15 -17q-8 -6 -20 -8t-20 3q-7 5 -8.5 13t0.5 16q1 8 3.5 16t5.5 16q5 11 10 21.5t11 21.5q11 21 25 40.5t29 39.5q11 14 22 27.5
t23 27.5q2 7 4.5 14t4.5 14q-9 -5 -18 -4q-14 3 -17 16q-3 11 0 22.5t7 21.5q2 6 4.5 12t5.5 12q1 2 2 5t2 5q1 1 1 3l1 2q4 9 12 6q4 -1 6.5 -4.5t0.5 -7.5q-3 -8 -7 -16t-7 -16q-2 -5 -3.5 -10.5t-3.5 -10.5q-2 -6 -2 -9q-1 -2 -1 -7v-1v-1q1 0 1 -1v-1q1 0 2 -1h1
q8 1 15 10.5t12 20.5h1q4 10 5 14q1 3 3.5 9.5t4.5 14.5l6 18q0 1 0.5 1t0.5 1q3 9 12.5 6.5t6.5 -11.5t-6.5 -18t-6.5 -18q-1 -4 -2 -7t-2 -7l-1 -1v-1q-2 -4 -2.5 -7.5t-2.5 -7.5v-1q-2 -6 -3 -8v-1q-1 -5 -5 -15q14 15 29.5 28.5t32.5 26.5q3 3 7.5 2.5t6.5 -3.5zM-13 21
q3 9 6.5 18.5t6.5 18.5q-7 -8 -13 -16.5t-13 -17.5q-14 -20 -26.5 -40t-22.5 -41q-5 -9 -8.5 -18.5t-6.5 -18.5q-2 -10 -2 -14q0 -7 2 -9q5 -4 12 1t11 11q13 19 20 38q9 22 17 44t17 44z" />
    <glyph glyph-name="z" unicode="z" horiz-adv-x="120" 
d="M90 241q11 3 14.5 1.5t5.5 -5.5q1 -4 0 -11q0 -2 -3 -5q-11 -10 -23.5 -19t-24.5 -19q7 0 15 -3q16 -7 14 -25q-2 -15 -10 -29.5t-18 -27.5q-27 -38 -61 -66q-6 -5 -13 -10.5t-15 -10.5q-8 -4 -16.5 -7t-16.5 2q-11 7 -6.5 23.5t10.5 27.5q2 4 6 5.5t7 1t4.5 -4
t-0.5 -7.5l-6 -15q0 -2 -0.5 -3l-1.5 -3v-3v-2v-2v-1h1h1l2 1q1 0 5 2t7 4.5t7 4.5q34 24 62 60q5 7 9 13t9 13q4 6 7.5 13.5t5.5 12.5q2 4 2 7l-1 1v2v1l-1 1v1q0 1 -2 1l-3 1q-1 1 -4 1h-10q-5 0 -10.5 -0.5t-10.5 -1.5q-6 -1 -7.5 5.5t3.5 11.5q11 9 22.5 17.5t22.5 17.5
l3 1.5t3 2.5q-17 -5 -33.5 -10.5t-32.5 -12.5q-9 -3 -12 4q-2 3 0 7t5 6q22 9 44 16t45 14z" />
    <glyph glyph-name="braceleft" unicode="{" horiz-adv-x="184" 
d="M372 674q4 1 7.5 -1.5t4.5 -6.5t-0.5 -7t-6.5 -4q-28 -6 -46 -28t-32 -45q-17 -29 -30.5 -59t-25.5 -61q-16 -45 -32 -89t-39 -85q-11 -20 -24 -37.5t-29 -34.5q-10 -11 -21 -20l-22 -18q11 0 21 -0.5t21 -0.5q4 0 7.5 -2.5t2.5 -6.5v-4q-2 -23 -9 -45t-16 -43.5
t-18.5 -42.5t-16.5 -42q-8 -21 -12 -43.5t-2 -45.5q2 -21 14 -38q10 -15 29 -24q4 -2 4.5 -6t-1.5 -7t-5.5 -4.5t-7.5 0.5t-7 4t-7 4q-8 7 -15 14.5t-12 16.5q-11 21 -12 44q-2 23 2.5 45.5t12.5 44.5t17.5 42.5t18.5 42.5q8 18 14 37.5t9 39.5h-61q-8 1 -9 7.5t4 11.5
q26 18 49.5 40t42.5 48t33.5 55.5t26.5 60.5q17 45 32.5 89.5t36.5 87.5q10 19 21 37.5t25 35.5q12 15 27.5 26.5t35.5 16.5z" />
    <glyph glyph-name="bar" unicode="|" horiz-adv-x="118" 
d="M225 701q4 10 12 7q3 -1 6 -4.5t1 -7.5q-35 -88 -66 -182q-16 -46 -30.5 -92t-29.5 -92q-14 -47 -29.5 -92.5t-32.5 -92.5q-32 -94 -63.5 -187t-61.5 -187q-3 -9 -12.5 -6.5t-6.5 11.5q15 48 30.5 94t31.5 94q31 94 63.5 185.5t62.5 185.5q29 93 59 184t66 182z" />
    <glyph glyph-name="braceright" unicode="}" horiz-adv-x="162" 
d="M226 646q7 -10 7 -22.5t-2 -23.5q-4 -23 -15 -46q-3 -5 -5 -10.5t-4 -10.5q-3 -5 -5.5 -10.5t-5.5 -10.5q-21 -44 -44.5 -86.5t-43.5 -87.5q-7 -15 -12.5 -31.5t-6.5 -32.5q-1 -14 2.5 -25.5t15.5 -19.5q2 0 2.5 -0.5t1.5 -0.5q3 -3 3 -6v-2v-4v-1h-1q0 -1 -0.5 -1
t-0.5 -1l-3.5 -3.5l-3.5 -3.5q-15 -16 -24.5 -35.5t-15.5 -39.5q-6 -23 -10 -46.5t-9 -46.5q-4 -23 -9.5 -45.5t-16.5 -44.5q-11 -21 -24 -40.5t-28 -37.5q-14 -18 -30 -33q-8 -8 -16 -14.5t-19 -10.5q-4 -2 -7.5 0.5t-4.5 6.5q-2 9 7 12q11 4 19.5 12.5l16.5 16.5
q9 10 17 19.5t16 20.5q13 18 25 37.5t20 41.5q8 23 12 46.5t8 46.5q7 35 17 71.5t33 65.5v2q0 1 1 2q0 5 3 8q-11 10 -14 24t-2 29t5 30.5t9 27.5q9 23 20 44t22 43q11 23 23 44t23 44l10 20t10 21q3 5 5 10.5t4 10.5q4 7 7 19q3 10 5 20.5t-1 20.5q-2 9 -10 11t-16 3
q-5 0 -7 3t-2 7t2 6.5t7 2.5q11 -1 22 -3.5t18 -12.5z" />
    <glyph glyph-name="asciitilde" unicode="~" horiz-adv-x="258" 
d="M241 215q2 -2 2.5 -6.5t-2.5 -7.5q-5 -4 -10.5 -8t-10.5 -7q-17 -11 -36 -20.5t-39 -11.5q-7 -1 -14 0.5t-12 6.5q-9 9 -7 22q0 9 1 13t1 10v2v2h-1h-2h-6q-14 -3 -27 -13t-22 -21q-3 -3 -7.5 -2.5t-6.5 2.5q-6 6 0 14t14 14q12 12 29 20q8 3 17 5t17 0q15 -6 15 -23
q0 -6 -2 -14v-3v-1h-1v-5v-4v-1q0 -1 1 -2v-1q0 -1 1 -1h1l2 -1h2h6q5 1 9 2t9 3q35 12 65 37q7 7 14 0z" />
    <glyph glyph-name="sterling" unicode="&#xa3;" horiz-adv-x="285" 
d="M565 -103q3 -2 4 -6.5t-1 -7.5q-18 -23 -41 -33q-22 -11 -50 -16q-59 -12 -117 -11q-88 0 -172 24t-159 69q-10 5 -19.5 11t-19.5 12q-19 -16 -41 -23q-31 -12 -65 1q-7 3 -7 10q0 17 7 36t27 23q17 3 33.5 -2.5t30.5 -13.5q8 -4 12 -7q7 7 10 11q8 8 12.5 15t11.5 16
q27 42 45.5 86t34.5 90q12 35 22.5 69t20.5 69q-4 0 -7.5 -0.5t-8.5 -0.5q0 -1 -1 -1h-1h-2q-4 0 -6 -1q-3 0 -11 -2q-6 -1 -11.5 -1.5t-11.5 -2.5q-12 -2 -24 -5l-24 -6q-22 -6 -43 -12.5t-43 -14.5q-17 -6 -32 -13q-2 0 -2.5 -0.5t-1.5 -0.5t-1 -1q-2 -1 -3 -1t-3 -1
q-3 -2 -9 -4q-4 -2 -7.5 -0.5t-5.5 4.5t-1.5 6.5t4.5 5.5q10 5 20 9t21 9q15 5 30.5 10.5t31.5 10.5q23 7 46.5 13t46.5 11q17 3 33 5.5t33 3.5q2 10 5 19t5 18q5 20 10.5 39t11.5 39q4 14 8.5 27t10.5 27q8 20 17 39.5t21 37.5q5 8 12 18t15.5 18t18.5 12.5t22 1.5
q11 -3 19.5 -12t13.5 -20q5 -13 4.5 -27.5t-2.5 -28.5q-5 -29 -14 -57t-21 -54q-2 -4 -6.5 -5t-7.5 1q-8 5 -3 14q4 8 6.5 15.5t6.5 16.5l10 30t8 31q2 8 2.5 14t1.5 14v15q-1 3 -1 4.5t-1 5.5q-3 10 -9 16l-4 4l-3 2q-1 0 -1 0.5t-1 0.5t-2 0.5t-2 0.5h-1h-1h-2
q-2 0 -2.5 -0.5t-1.5 -0.5l-1 -1h-1q-2 -1 -4 -3q-1 0 -1 -0.5t-1 -0.5l-1 -1q-4 -1 -7 -6q-8 -8 -14.5 -17t-12.5 -20t-11.5 -21.5t-10.5 -21.5q-2 -5 -3.5 -9t-3.5 -9l-3 -6q-1 -1 -1 -2t-1 -1l-4 -12t-4 -13q-11 -32 -20 -65l-18 -66h3q17 -1 34 -4t29 -15q13 -12 13 -29
t-5 -32q-3 -8 -12 -7q-9 2 -7 12q2 3 2.5 6.5t1.5 6.5q0 1 0.5 1.5t0.5 1.5v1v5v5v3l-2 4q0 1 -1 2q0 1 -2 3v1l-1 1q-2 2 -4 3l-1 1q-2 2 -4 2q-1 1 -1.5 1t-1.5 1h-1q-2 1 -8 3q-2 1 -4 1t-4 1h-4q-2 0 -2 1h-19h-5q-2 -4 -2 -8q-15 -50 -30.5 -99.5t-35.5 -97.5
q-18 -47 -42 -90q-10 -19 -22 -36.5t-26 -33.5q-2 0 -2 -2q2 -2 4 -2.5t4 -2.5l34 -20t34 -18q39 -20 79.5 -33.5t82.5 -22.5q43 -8 86 -11t86 1q20 2 39 5.5t38 8.5q17 5 32.5 13t26.5 22q2 3 6 4.5t8 -0.5zM-48 -62q4 1 7 4q7 3 13 8q-3 1 -9 5q-6 2 -10.5 4t-9.5 4
q-3 1 -5.5 2t-5.5 1q-1 1 -4 1h-4q-2 0 -2.5 0.5t-2.5 -0.5h-1h-2q-1 0 -1.5 -0.5t-2.5 -0.5l-1 -1h-1l-2 -2l-3 -3h-1v-1l-1 -2q-1 0 -1 -2l-1 -1q-4 -9 -4 -20l9 -3h3h1q1 0 1 -0.5t1 -0.5h7q6 0 8 1h2h3q5 1 15 5h2q1 1 1.5 1t1.5 1z" />
    <glyph glyph-name="dieresis" unicode="&#xa8;" horiz-adv-x="833" 
d="M393 656q10 0 10 -9.5t-10 -9.5q-9 0 -9 9.5t9 9.5zM428 657q10 0 10 -10t-10 -10t-10 10t10 10z" />
    <glyph glyph-name="copyright" unicode="&#xa9;" horiz-adv-x="185" 
d="M157 549q4 4 9 0q6 -4 0 -10q-5 -3 -9.5 -6t-9.5 -6q-4 -2 -9 -3t-9 1q-8 3 -8 10.5t3 13.5q6 13 18 22q9 5 17 2q5 -2 6 -8t-2 -11q-1 -2 -3.5 -3t-4.5 1q-5 3 -3 9h-1q-2 -1 -6 -5q-5 -5 -10 -15v-1q-1 -1 -1 -2v-1q12 3 23 12zM133 537h-1h1zM193 570q2 -8 1.5 -16
t-3.5 -16q-12 -31 -45 -37q-12 -3 -25.5 -2.5t-22.5 9.5q-10 10 -8 26q3 14 10 28q8 12 18.5 22.5t24.5 13.5q5 2 10.5 2h10.5q6 0 9 -2q4 4 8 1q7 -5 9 -13t3 -16zM179 541q2 6 2.5 12.5t-0.5 12.5q-2 10 -3 14q0 2 -0.5 2t-0.5 2q-5 -3 -8 2h-1q-1 1 -2 1h-3h-11
q-9 -1 -15.5 -5t-12.5 -10q-5 -5 -9 -10.5t-6 -12.5q-2 -6 -4.5 -13t-0.5 -13q3 -11 16 -11.5t22 1.5q5 1 11 3t11 6q9 8 15 19z" />
    <glyph glyph-name="degree" unicode="&#xb0;" horiz-adv-x="108" 
d="M87 553q5 -9 3 -20t-13 -16q-8 -3 -18 -1.5t-16 7.5q-8 7 -6 15t7 16q-2 5 0.5 9t8.5 4q9 0 19 -2.5t15 -11.5zM69 535q2 2 2 5t-2 4q-4 2 -6 2l-4 -4t-2 -4l-1 -1q1 0 1 -0.5t1 -0.5q4 0 6 -2h4q1 0 1 1z" />
    <glyph glyph-name="acute" unicode="&#xb4;" horiz-adv-x="833" 
d="M362 665q4 2 8 0.5t5.5 -4.5t1 -7t-4.5 -6q-11 -5 -21 -12.5t-21 -12.5q-5 -2 -8.5 -0.5t-5 4.5t-1 7t4.5 6q11 5 21 12.5t21 12.5z" />
    <glyph glyph-name="cedilla" unicode="&#xb8;" horiz-adv-x="121" 
d="M36 -14q2 -9 -2 -15.5t-11 -11.5t-15.5 -8.5t-14.5 -5.5q-8 -3 -12 7q-2 9 7 12q14 5 24 11q1 1 2 1.5t2 2.5l1 1v1q0 1 -1 2h-1h-1h-3h-8q-4 0 -8 0.5t-7 4.5q-6 7 -2.5 15.5t5.5 15.5q1 4 4.5 5.5t7 1t5.5 -4t1 -7.5l-3 -12q12 2 18 -2q10 -3 12 -14z" />
    <glyph glyph-name="Agrave" unicode="&#xc0;" 
d="M400 591q5 -20 -2 -41q-2 -11 -5 -21t-6 -21q-7 -23 -16 -44.5t-18 -43.5t-19.5 -44t-18.5 -45q-4 -11 -7 -22t-7 -22q-5 -12 -9 -23.5t-8 -23.5q-6 -17 -12 -33t-11 -33l27 9q4 2 7.5 -0.5t4.5 -6.5q2 -9 -7 -12l-20 -6t-20 -7q0 -1 -0.5 -1t-0.5 -1
q-15 -46 -29.5 -91.5t-28.5 -91.5q-3 -9 -12.5 -6t-6.5 12q14 42 27 83.5t27 83.5q0 2 0.5 3t0.5 3q-21 -7 -42 -12.5t-42 -11.5q-36 -11 -72 -23t-70 -29q-11 -21 -26 -44l-6 -10l-6 -10q-5 -11 -10 -19q-3 -3 -7 -11q-1 -2 -1.5 -4t-2.5 -4q-2 -4 -5 -8t-5 -9
q-11 -18 -23.5 -35.5t-26.5 -32.5l-15.5 -15.5t-16.5 -13.5q-9 -5 -20.5 -7.5t-21.5 1.5q-12 3 -17 13q-4 8 -2 21q2 10 7 20t10 19q3 5 6.5 10.5t6.5 10.5q2 3 6 7q2 2 3 4t3 4q5 8 11.5 15.5t13.5 15.5q25 28 55.5 50.5t63.5 40.5l12 6q8 14 15.5 27.5t15.5 27.5
q23 40 46.5 80t48.5 80q25 41 50.5 80.5t52.5 78.5q7 10 13.5 20.5t14.5 19.5q8 8 14 17t12 17q14 17 28 33t31 30q8 7 17 12t20 6q12 2 20 -4q5 -3 7 -8zM-49 18q5 8 10.5 16.5t10.5 17.5q-48 -27 -87 -66l-13.5 -13.5t-12.5 -14.5q-3 -4 -5.5 -7.5t-5.5 -8.5
q-3 -4 -6.5 -7.5t-5.5 -8.5q-6 -9 -11.5 -18.5t-10.5 -20.5q-4 -10 -3 -17q3 -3 2 -3q6 -2 9 -2q10 0 18 3q5 2 8.5 5.5l6.5 6.5q16 13 29 31q7 8 13 16.5t11 16.5q3 5 6 9.5t6 9.5q2 4 5 8t5 9q2 2 2.5 5t2.5 5l6 9q3 5 5.5 9.5t4.5 9.5zM376 542q3 10 5.5 19.5t0.5 19.5
l-2.5 7.5t-3.5 4.5q-5 3 -14 -1q-9 -5 -16.5 -11.5t-15.5 -13.5q-15 -15 -29 -31.5t-26 -33.5q-3 -5 -6.5 -9t-7.5 -9q-4 -4 -7 -8.5t-6 -9.5q-7 -10 -13.5 -20t-14.5 -20q-53 -78 -100.5 -158t-94.5 -162q-2 -2 -2.5 -4t-2.5 -4q24 10 48.5 18.5t49.5 16.5q30 9 60 17
t60 17q5 16 10.5 32t11.5 32q8 23 16.5 46t15.5 46t17 44.5t20 44.5q9 22 18 43.5t16 43.5q4 11 7 21.5t6 21.5zM407 681q5 -6 -3.5 -10t-13.5 3q-11 14 -23 27.5t-23 27.5q-2 3 -0.5 5.5t4.5 4t7 1.5t6 -3q11 -15 23 -28.5t23 -27.5z" />
    <glyph glyph-name="Aacute" unicode="&#xc1;" 
d="M400 591q5 -20 -2 -41q-2 -11 -5 -21t-6 -21q-7 -23 -16 -44.5t-18 -43.5t-19.5 -44t-18.5 -45q-4 -11 -7 -22t-7 -22q-5 -12 -9 -23.5t-8 -23.5q-6 -17 -12 -33t-11 -33l27 9q4 2 7.5 -0.5t4.5 -6.5q2 -9 -7 -12l-20 -6t-20 -7q0 -1 -0.5 -1t-0.5 -1
q-15 -46 -29.5 -91.5t-28.5 -91.5q-3 -9 -12.5 -6t-6.5 12q14 42 27 83.5t27 83.5q0 2 0.5 3t0.5 3q-21 -7 -42 -12.5t-42 -11.5q-36 -11 -72 -23t-70 -29q-11 -21 -26 -44l-6 -10l-6 -10q-5 -11 -10 -19q-3 -3 -7 -11q-1 -2 -1.5 -4t-2.5 -4q-2 -4 -5 -8t-5 -9
q-11 -18 -23.5 -35.5t-26.5 -32.5l-15.5 -15.5t-16.5 -13.5q-9 -5 -20.5 -7.5t-21.5 1.5q-12 3 -17 13q-4 8 -2 21q2 10 7 20t10 19q3 5 6.5 10.5t6.5 10.5q2 3 6 7q2 2 3 4t3 4q5 8 11.5 15.5t13.5 15.5q25 28 55.5 50.5t63.5 40.5l12 6q8 14 15.5 27.5t15.5 27.5
q23 40 46.5 80t48.5 80q25 41 50.5 80.5t52.5 78.5q7 10 13.5 20.5t14.5 19.5q8 8 14 17t12 17q14 17 28 33t31 30q8 7 17 12t20 6q12 2 20 -4q5 -3 7 -8zM-49 18q5 8 10.5 16.5t10.5 17.5q-48 -27 -87 -66l-13.5 -13.5t-12.5 -14.5q-3 -4 -5.5 -7.5t-5.5 -8.5
q-3 -4 -6.5 -7.5t-5.5 -8.5q-6 -9 -11.5 -18.5t-10.5 -20.5q-4 -10 -3 -17q3 -3 2 -3q6 -2 9 -2q10 0 18 3q5 2 8.5 5.5l6.5 6.5q16 13 29 31q7 8 13 16.5t11 16.5q3 5 6 9.5t6 9.5q2 4 5 8t5 9q2 2 2.5 5t2.5 5l6 9q3 5 5.5 9.5t4.5 9.5zM376 542q3 10 5.5 19.5t0.5 19.5
l-2.5 7.5t-3.5 4.5q-5 3 -14 -1q-9 -5 -16.5 -11.5t-15.5 -13.5q-15 -15 -29 -31.5t-26 -33.5q-3 -5 -6.5 -9t-7.5 -9q-4 -4 -7 -8.5t-6 -9.5q-7 -10 -13.5 -20t-14.5 -20q-53 -78 -100.5 -158t-94.5 -162q-2 -2 -2.5 -4t-2.5 -4q24 10 48.5 18.5t49.5 16.5q30 9 60 17
t60 17q5 16 10.5 32t11.5 32q8 23 16.5 46t15.5 46t17 44.5t20 44.5q9 22 18 43.5t16 43.5q4 11 7 21.5t6 21.5zM398 723q4 2 8 0.5t5.5 -4.5t1 -7t-4.5 -6q-11 -5 -21 -12.5t-21 -12.5q-5 -2 -8.5 -0.5t-5 4.5t-1 7t4.5 6q11 5 21 12.5t21 12.5z" />
    <glyph glyph-name="Acircumflex" unicode="&#xc2;" 
d="M400 591q5 -20 -2 -41q-2 -11 -5 -21t-6 -21q-7 -23 -16 -44.5t-18 -43.5t-19.5 -44t-18.5 -45q-4 -11 -7 -22t-7 -22q-5 -12 -9 -23.5t-8 -23.5q-6 -17 -12 -33t-11 -33l27 9q4 2 7.5 -0.5t4.5 -6.5q2 -9 -7 -12l-20 -6t-20 -7q0 -1 -0.5 -1t-0.5 -1
q-15 -46 -29.5 -91.5t-28.5 -91.5q-3 -9 -12.5 -6t-6.5 12q14 42 27 83.5t27 83.5q0 2 0.5 3t0.5 3q-21 -7 -42 -12.5t-42 -11.5q-36 -11 -72 -23t-70 -29q-11 -21 -26 -44l-6 -10l-6 -10q-5 -11 -10 -19q-3 -3 -7 -11q-1 -2 -1.5 -4t-2.5 -4q-2 -4 -5 -8t-5 -9
q-11 -18 -23.5 -35.5t-26.5 -32.5l-15.5 -15.5t-16.5 -13.5q-9 -5 -20.5 -7.5t-21.5 1.5q-12 3 -17 13q-4 8 -2 21q2 10 7 20t10 19q3 5 6.5 10.5t6.5 10.5q2 3 6 7q2 2 3 4t3 4q5 8 11.5 15.5t13.5 15.5q25 28 55.5 50.5t63.5 40.5l12 6q8 14 15.5 27.5t15.5 27.5
q23 40 46.5 80t48.5 80q25 41 50.5 80.5t52.5 78.5q7 10 13.5 20.5t14.5 19.5q8 8 14 17t12 17q14 17 28 33t31 30q8 7 17 12t20 6q12 2 20 -4q5 -3 7 -8zM-49 18q5 8 10.5 16.5t10.5 17.5q-48 -27 -87 -66l-13.5 -13.5t-12.5 -14.5q-3 -4 -5.5 -7.5t-5.5 -8.5
q-3 -4 -6.5 -7.5t-5.5 -8.5q-6 -9 -11.5 -18.5t-10.5 -20.5q-4 -10 -3 -17q3 -3 2 -3q6 -2 9 -2q10 0 18 3q5 2 8.5 5.5l6.5 6.5q16 13 29 31q7 8 13 16.5t11 16.5q3 5 6 9.5t6 9.5q2 4 5 8t5 9q2 2 2.5 5t2.5 5l6 9q3 5 5.5 9.5t4.5 9.5zM376 542q3 10 5.5 19.5t0.5 19.5
l-2.5 7.5t-3.5 4.5q-5 3 -14 -1q-9 -5 -16.5 -11.5t-15.5 -13.5q-15 -15 -29 -31.5t-26 -33.5q-3 -5 -6.5 -9t-7.5 -9q-4 -4 -7 -8.5t-6 -9.5q-7 -10 -13.5 -20t-14.5 -20q-53 -78 -100.5 -158t-94.5 -162q-2 -2 -2.5 -4t-2.5 -4q24 10 48.5 18.5t49.5 16.5q30 9 60 17
t60 17q5 16 10.5 32t11.5 32q8 23 16.5 46t15.5 46t17 44.5t20 44.5q9 22 18 43.5t16 43.5q4 11 7 21.5t6 21.5zM421 696q3 -3 1.5 -7t-4.5 -6q-7 -4 -13 3q-3 4 -5.5 7.5t-5.5 7.5q-2 2 -3.5 4t-3.5 4q-1 0 -1 -1q-2 -2 -4 -3.5t-4 -3.5q-4 -4 -8 -7.5t-9 -8.5
q-3 -3 -7 -2.5t-6.5 3.5t-3 6.5t2.5 6.5l12 10t11 11q5 5 9.5 8t12.5 0q5 -2 9 -6t8 -9q3 -5 6 -8.5t6 -8.5z" />
    <glyph glyph-name="Atilde" unicode="&#xc3;" 
d="M400 591q5 -20 -2 -41q-2 -11 -5 -21t-6 -21q-7 -23 -16 -44.5t-18 -43.5t-19.5 -44t-18.5 -45q-4 -11 -7 -22t-7 -22q-5 -12 -9 -23.5t-8 -23.5q-6 -17 -12 -33t-11 -33l27 9q4 2 7.5 -0.5t4.5 -6.5q2 -9 -7 -12l-20 -6t-20 -7q0 -1 -0.5 -1t-0.5 -1
q-15 -46 -29.5 -91.5t-28.5 -91.5q-3 -9 -12.5 -6t-6.5 12q14 42 27 83.5t27 83.5q0 2 0.5 3t0.5 3q-21 -7 -42 -12.5t-42 -11.5q-36 -11 -72 -23t-70 -29q-11 -21 -26 -44l-6 -10l-6 -10q-5 -11 -10 -19q-3 -3 -7 -11q-1 -2 -1.5 -4t-2.5 -4q-2 -4 -5 -8t-5 -9
q-11 -18 -23.5 -35.5t-26.5 -32.5l-15.5 -15.5t-16.5 -13.5q-9 -5 -20.5 -7.5t-21.5 1.5q-12 3 -17 13q-4 8 -2 21q2 10 7 20t10 19q3 5 6.5 10.5t6.5 10.5q2 3 6 7q2 2 3 4t3 4q5 8 11.5 15.5t13.5 15.5q25 28 55.5 50.5t63.5 40.5l12 6q8 14 15.5 27.5t15.5 27.5
q23 40 46.5 80t48.5 80q25 41 50.5 80.5t52.5 78.5q7 10 13.5 20.5t14.5 19.5q8 8 14 17t12 17q14 17 28 33t31 30q8 7 17 12t20 6q12 2 20 -4q5 -3 7 -8zM-49 18q5 8 10.5 16.5t10.5 17.5q-48 -27 -87 -66l-13.5 -13.5t-12.5 -14.5q-3 -4 -5.5 -7.5t-5.5 -8.5
q-3 -4 -6.5 -7.5t-5.5 -8.5q-6 -9 -11.5 -18.5t-10.5 -20.5q-4 -10 -3 -17q3 -3 2 -3q6 -2 9 -2q10 0 18 3q5 2 8.5 5.5l6.5 6.5q16 13 29 31q7 8 13 16.5t11 16.5q3 5 6 9.5t6 9.5q2 4 5 8t5 9q2 2 2.5 5t2.5 5l6 9q3 5 5.5 9.5t4.5 9.5zM376 542q3 10 5.5 19.5t0.5 19.5
l-2.5 7.5t-3.5 4.5q-5 3 -14 -1q-9 -5 -16.5 -11.5t-15.5 -13.5q-15 -15 -29 -31.5t-26 -33.5q-3 -5 -6.5 -9t-7.5 -9q-4 -4 -7 -8.5t-6 -9.5q-7 -10 -13.5 -20t-14.5 -20q-53 -78 -100.5 -158t-94.5 -162q-2 -2 -2.5 -4t-2.5 -4q24 10 48.5 18.5t49.5 16.5q30 9 60 17
t60 17q5 16 10.5 32t11.5 32q8 23 16.5 46t15.5 46t17 44.5t20 44.5q9 22 18 43.5t16 43.5q4 11 7 21.5t6 21.5zM395 700q2 4 6 4.5t7 -1.5t4.5 -5.5t-0.5 -7.5q-4 -8 -10.5 -12.5t-15.5 -2.5q-8 0 -14.5 3t-12.5 7q0 1 -1.5 1.5t-0.5 0.5q-2 0 -2.5 0.5t-1.5 0.5q-4 1 -9 1
h-1h-2h-1v-1h-1v-2v-2q1 -5 -2 -7.5t-7 -2.5q-10 0 -10 10q-2 17 14 23q5 2 11.5 2t12.5 -2t11 -5t11 -6q5 -2 8.5 -2t6.5 6zM339 688v-1v1z" />
    <glyph glyph-name="Adieresis" unicode="&#xc4;" 
d="M400 591q5 -20 -2 -41q-2 -11 -5 -21t-6 -21q-7 -23 -16 -44.5t-18 -43.5t-19.5 -44t-18.5 -45q-4 -11 -7 -22t-7 -22q-5 -12 -9 -23.5t-8 -23.5q-6 -17 -12 -33t-11 -33l27 9q4 2 7.5 -0.5t4.5 -6.5q2 -9 -7 -12l-20 -6t-20 -7q0 -1 -0.5 -1t-0.5 -1
q-15 -46 -29.5 -91.5t-28.5 -91.5q-3 -9 -12.5 -6t-6.5 12q14 42 27 83.5t27 83.5q0 2 0.5 3t0.5 3q-21 -7 -42 -12.5t-42 -11.5q-36 -11 -72 -23t-70 -29q-11 -21 -26 -44l-6 -10l-6 -10q-5 -11 -10 -19q-3 -3 -7 -11q-1 -2 -1.5 -4t-2.5 -4q-2 -4 -5 -8t-5 -9
q-11 -18 -23.5 -35.5t-26.5 -32.5l-15.5 -15.5t-16.5 -13.5q-9 -5 -20.5 -7.5t-21.5 1.5q-12 3 -17 13q-4 8 -2 21q2 10 7 20t10 19q3 5 6.5 10.5t6.5 10.5q2 3 6 7q2 2 3 4t3 4q5 8 11.5 15.5t13.5 15.5q25 28 55.5 50.5t63.5 40.5l12 6q8 14 15.5 27.5t15.5 27.5
q23 40 46.5 80t48.5 80q25 41 50.5 80.5t52.5 78.5q7 10 13.5 20.5t14.5 19.5q8 8 14 17t12 17q14 17 28 33t31 30q8 7 17 12t20 6q12 2 20 -4q5 -3 7 -8zM-49 18q5 8 10.5 16.5t10.5 17.5q-48 -27 -87 -66l-13.5 -13.5t-12.5 -14.5q-3 -4 -5.5 -7.5t-5.5 -8.5
q-3 -4 -6.5 -7.5t-5.5 -8.5q-6 -9 -11.5 -18.5t-10.5 -20.5q-4 -10 -3 -17q3 -3 2 -3q6 -2 9 -2q10 0 18 3q5 2 8.5 5.5l6.5 6.5q16 13 29 31q7 8 13 16.5t11 16.5q3 5 6 9.5t6 9.5q2 4 5 8t5 9q2 2 2.5 5t2.5 5l6 9q3 5 5.5 9.5t4.5 9.5zM376 542q3 10 5.5 19.5t0.5 19.5
l-2.5 7.5t-3.5 4.5q-5 3 -14 -1q-9 -5 -16.5 -11.5t-15.5 -13.5q-15 -15 -29 -31.5t-26 -33.5q-3 -5 -6.5 -9t-7.5 -9q-4 -4 -7 -8.5t-6 -9.5q-7 -10 -13.5 -20t-14.5 -20q-53 -78 -100.5 -158t-94.5 -162q-2 -2 -2.5 -4t-2.5 -4q24 10 48.5 18.5t49.5 16.5q30 9 60 17
t60 17q5 16 10.5 32t11.5 32q8 23 16.5 46t15.5 46t17 44.5t20 44.5q9 22 18 43.5t16 43.5q4 11 7 21.5t6 21.5zM366 713q10 0 10 -9.5t-10 -9.5q-9 0 -9 9.5t9 9.5zM401 714q10 0 10 -10t-10 -10t-10 10t10 10z" />
    <glyph glyph-name="Aring" unicode="&#xc5;" 
d="M400 591q5 -20 -2 -41q-2 -11 -5 -21t-6 -21q-7 -23 -16 -44.5t-18 -43.5t-19.5 -44t-18.5 -45q-4 -11 -7 -22t-7 -22q-5 -12 -9 -23.5t-8 -23.5q-6 -17 -12 -33t-11 -33l27 9q4 2 7.5 -0.5t4.5 -6.5q2 -9 -7 -12l-20 -6t-20 -7q0 -1 -0.5 -1t-0.5 -1
q-15 -46 -29.5 -91.5t-28.5 -91.5q-3 -9 -12.5 -6t-6.5 12q14 42 27 83.5t27 83.5q0 2 0.5 3t0.5 3q-21 -7 -42 -12.5t-42 -11.5q-36 -11 -72 -23t-70 -29q-11 -21 -26 -44l-6 -10l-6 -10q-5 -11 -10 -19q-3 -3 -7 -11q-1 -2 -1.5 -4t-2.5 -4q-2 -4 -5 -8t-5 -9
q-11 -18 -23.5 -35.5t-26.5 -32.5l-15.5 -15.5t-16.5 -13.5q-9 -5 -20.5 -7.5t-21.5 1.5q-12 3 -17 13q-4 8 -2 21q2 10 7 20t10 19q3 5 6.5 10.5t6.5 10.5q2 3 6 7q2 2 3 4t3 4q5 8 11.5 15.5t13.5 15.5q25 28 55.5 50.5t63.5 40.5l12 6q8 14 15.5 27.5t15.5 27.5
q23 40 46.5 80t48.5 80q25 41 50.5 80.5t52.5 78.5q7 10 13.5 20.5t14.5 19.5q8 8 14 17t12 17q14 17 28 33t31 30q8 7 17 12t20 6q12 2 20 -4q5 -3 7 -8zM-49 18q5 8 10.5 16.5t10.5 17.5q-48 -27 -87 -66l-13.5 -13.5t-12.5 -14.5q-3 -4 -5.5 -7.5t-5.5 -8.5
q-3 -4 -6.5 -7.5t-5.5 -8.5q-6 -9 -11.5 -18.5t-10.5 -20.5q-4 -10 -3 -17q3 -3 2 -3q6 -2 9 -2q10 0 18 3q5 2 8.5 5.5l6.5 6.5q16 13 29 31q7 8 13 16.5t11 16.5q3 5 6 9.5t6 9.5q2 4 5 8t5 9q2 2 2.5 5t2.5 5l6 9q3 5 5.5 9.5t4.5 9.5zM376 542q3 10 5.5 19.5t0.5 19.5
l-2.5 7.5t-3.5 4.5q-5 3 -14 -1q-9 -5 -16.5 -11.5t-15.5 -13.5q-15 -15 -29 -31.5t-26 -33.5q-3 -5 -6.5 -9t-7.5 -9q-4 -4 -7 -8.5t-6 -9.5q-7 -10 -13.5 -20t-14.5 -20q-53 -78 -100.5 -158t-94.5 -162q-2 -2 -2.5 -4t-2.5 -4q24 10 48.5 18.5t49.5 16.5q30 9 60 17
t60 17q5 16 10.5 32t11.5 32q8 23 16.5 46t15.5 46t17 44.5t20 44.5q9 22 18 43.5t16 43.5q4 11 7 21.5t6 21.5zM428 702q5 -9 3 -20t-13 -16q-8 -3 -18 -1.5t-16 7.5q-8 7 -6 15t7 16q-2 5 0.5 9t8.5 4q9 0 19 -2.5t15 -11.5zM410 684q2 2 2 5t-2 4q-4 2 -6 2l-4 -4t-2 -4
l-1 -1q1 0 1 -0.5t1 -0.5q4 0 6 -2h4q1 0 1 1z" />
    <glyph glyph-name="AE" unicode="&#xc6;" horiz-adv-x="606" 
d="M400 591q5 -20 -2 -41q-2 -11 -5 -21t-6 -21q-7 -23 -16 -44.5t-18 -43.5t-19.5 -44t-18.5 -45q-4 -11 -7 -22t-7 -22q-5 -12 -9 -23.5t-8 -23.5q-6 -17 -12 -33t-11 -33l27 9q4 2 7.5 -0.5t4.5 -6.5q2 -9 -7 -12l-20 -6t-20 -7q0 -1 -0.5 -1t-0.5 -1
q-15 -46 -29.5 -91.5t-28.5 -91.5q-3 -9 -12.5 -6t-6.5 12q14 42 27 83.5t27 83.5q0 2 0.5 3t0.5 3q-21 -7 -42 -12.5t-42 -11.5q-36 -11 -72 -23t-70 -29q-11 -21 -26 -44l-6 -10l-6 -10q-5 -11 -10 -19q-3 -3 -7 -11q-1 -2 -1.5 -4t-2.5 -4q-2 -4 -5 -8t-5 -9
q-11 -18 -23.5 -35.5t-26.5 -32.5l-15.5 -15.5t-16.5 -13.5q-9 -5 -20.5 -7.5t-21.5 1.5q-12 3 -17 13q-4 8 -2 21q2 10 7 20t10 19q3 5 6.5 10.5t6.5 10.5q2 3 6 7q2 2 3 4t3 4q5 8 11.5 15.5t13.5 15.5q25 28 55.5 50.5t63.5 40.5l12 6q8 14 15.5 27.5t15.5 27.5
q23 40 46.5 80t48.5 80q25 41 50.5 80.5t52.5 78.5q7 10 13.5 20.5t14.5 19.5q8 8 14 17t12 17q14 17 28 33t31 30q8 7 17 12t20 6q12 2 20 -4q5 -3 7 -8zM-49 18q5 8 10.5 16.5t10.5 17.5q-48 -27 -87 -66l-13.5 -13.5t-12.5 -14.5q-3 -4 -5.5 -7.5t-5.5 -8.5
q-3 -4 -6.5 -7.5t-5.5 -8.5q-6 -9 -11.5 -18.5t-10.5 -20.5q-4 -10 -3 -17q3 -3 2 -3q6 -2 9 -2q10 0 18 3q5 2 8.5 5.5l6.5 6.5q16 13 29 31q7 8 13 16.5t11 16.5q3 5 6 9.5t6 9.5q2 4 5 8t5 9q2 2 2.5 5t2.5 5l6 9q3 5 5.5 9.5t4.5 9.5zM376 542q3 10 5.5 19.5t0.5 19.5
l-2.5 7.5t-3.5 4.5q-5 3 -14 -1q-9 -5 -16.5 -11.5t-15.5 -13.5q-15 -15 -29 -31.5t-26 -33.5q-3 -5 -6.5 -9t-7.5 -9q-4 -4 -7 -8.5t-6 -9.5q-7 -10 -13.5 -20t-14.5 -20q-53 -78 -100.5 -158t-94.5 -162q-2 -2 -2.5 -4t-2.5 -4q24 10 48.5 18.5t49.5 16.5q30 9 60 17
t60 17q5 16 10.5 32t11.5 32q8 23 16.5 46t15.5 46t17 44.5t20 44.5q9 22 18 43.5t16 43.5q4 11 7 21.5t6 21.5zM828 547q2 -9 -7 -12q-10 -2 -12 7q-1 4 -1.5 8t-1.5 8q-1 2 -1 3t-1 3q0 1 -0.5 1.5t-0.5 1.5q-2 2 -2.5 4.5t-2.5 4.5q-1 2 -1.5 2.5t-1.5 2.5l-1 1l-1 1
l-6 6l-2 2h-1l-3 3l-4 2l-4 2l-2 1h-1l-4 2q-6 2 -10 2q-1 1 -5 1h-1q-1 0 -1 0.5t-1 0.5h-10h-12t-11 -1h-3q-2 0 -2 -1h-6l-12 -3q-6 -2 -12.5 -3t-12.5 -3q-28 -9 -53.5 -20t-51.5 -25q-24 -14 -47.5 -28.5t-45.5 -31.5q-5 -3 -9 -6t-9 -7q-6 -5 -11.5 -10t-11.5 -10
q-15 -14 -29 -29.5t-26 -32.5q-17 -26 -26 -54t-7 -59q2 -28 11.5 -55t21.5 -52q7 -14 14 -26.5t14 -25.5t17 -26q2 -2 2.5 -3t2.5 -3q2 -1 4 -3q1 0 2 -1q1 0 2 -0.5t0 -0.5h1q1 0 1 -1q8 0 10 -7t-5 -11l-6 -4t-7 -4q-14 -9 -27.5 -18t-27.5 -20q-13 -11 -25 -22.5
t-21 -25.5q-7 -12 -10 -24v-2v-2v-4v-1v-1q1 -2 1 -4q1 -1 1 -2l1 -1l2 -1l2 -2l1 -1q3 0 4 -1h3h1q0 -1 2 -1h9q2 1 5 1h1h2q6 2 11.5 3t11.5 3q13 4 24 8.5t23 10.5l22 12t22 14q6 3 10 7h1l2 2l3 3q4 3 7 6l6 6q2 3 6.5 3t7.5 -3q6 -6 0 -13q-5 -7 -11 -12t-13 -10
q-21 -15 -44 -27.5t-48 -21.5q-11 -4 -22.5 -6.5t-23.5 -4.5q-9 -1 -18.5 0.5t-17.5 6.5q-11 9 -13 20.5t1.5 24t11 24t14.5 19.5q19 22 42.5 39.5t48.5 32.5q-8 7 -13.5 15.5t-10.5 16.5q-15 25 -29 51.5t-24 54.5t-14.5 57t1.5 59q7 35 26 65t43 56q21 22 44.5 41t48.5 36
q24 16 49 30.5t51 26.5t52 22t54 16q23 5 46 5t45 -9q20 -10 31.5 -28.5t14.5 -40.5z" />
    <glyph glyph-name="Ccedilla" unicode="&#xc7;" horiz-adv-x="274" 
d="M168 450h1h-1zM284 582q1 -12 0 -22q-2 -14 -5.5 -27.5t-8.5 -27.5q-11 -26 -22.5 -50.5t-24.5 -49.5q-2 -4 -5.5 -4.5t-6.5 1.5t-5 5.5t0 7.5q8 14 15 29l14 30q13 26 22 56q2 6 4 12.5t3 13.5q0 2 1 3v2v5v9q-1 1 -1 2v2v2q-1 1 -1 1.5t-1 1.5h-2q0 -1 -2 -1l-2 -2h-1
v-1q-8 -5 -12 -12l-3.5 -3.5l-3.5 -3.5q0 -1 -1 -2l-1 -1q-1 -2 -3 -4q-4 -5 -7 -9.5t-6 -9.5q-12 -18 -25 -40q-5 -8 -9 -16t-9 -17q-3 -5 -5 -10q-1 -1 -1 -2v2v1q0 -2 -1 -3h1h-1v-1v-1q-12 -21 -23 -42.5t-22 -43.5q-20 -42 -38.5 -84.5t-35.5 -87.5q-16 -40 -30 -86
q-7 -21 -13 -43t-8 -44q-3 -23 -2 -41q1 -6 1 -10.5t2 -10.5q1 -2 1.5 -4t1.5 -4v-1q0 -1 1 -2t1 -1.5t1 -1.5l1 -2l2 -2q1 0 1 -1q1 0 2 -1l2 -1h1l1 -1h2h1h4h2q2 0 3 0.5t3 0.5q4 2 6 2q1 1 1.5 1t1.5 1q1 0 1.5 0.5t1.5 0.5q9 5 16 10q6 4 8 6q1 0 1 1q1 0 2 1q3 1 4 4
q10 7 17 15q18 16 34 34q15 17 28 34t26 37q5 7 8.5 13.5t7.5 13.5q1 1 1 1.5t1 1.5q0 1 0.5 2t-0.5 -1q1 2 2 4.5t2 4.5q0 1 1 2q0 1 0.5 1.5t0.5 1.5q1 2 1 3t1 3q2 4 4 12q4 11 4 23v3v2q-1 0 -1 1v1q-2 2 -1 2h-1l-1 1h-2h-3h-2h-1q0 -1 -1 -1q-6 -3 -11 -8
q-9 -9 -16 -23q-6 -9 -14 -3q-4 2 -4.5 5.5t1.5 7.5q6 14 18.5 27t28.5 15t24 -11q4 -5 5 -11t1 -11q-1 -14 -5.5 -27t-9.5 -25q-2 -4 -2 -6q-1 0 -1 -1q1 2 0.5 0.5t-1.5 -2.5q0 -1 -2 -5q-2 -3 -3.5 -6t-3.5 -6q-11 -19 -23.5 -36t-26.5 -33q-15 -19 -31 -36.5t-34 -32.5
q-14 -12 -31 -22.5t-36 -12.5q-19 -1 -29 12t-14 30q-8 41 1 81t22 78q29 90 66 175.5t82 167.5q2 3 3 5.5t3 5.5q7 14 16 29q11 20 23.5 39.5t26.5 37.5q6 7 12 13.5t14 11.5q6 4 14 4.5t13 -5.5q2 -2 2 -3q1 0 0 1q0 -1 0.5 -1t0.5 -1q2 -2 2 -3q2 -3 4 -9zM168 449
q0 -1 -0.5 -1.5t0.5 1.5zM262 584q1 -1 1 -1.5t-1 1.5v0zM64 -140q2 -9 -2 -15.5t-11 -11.5t-15.5 -8.5t-14.5 -5.5q-8 -3 -12 7q-2 9 7 12q14 5 24 11q1 1 2 1.5t2 2.5l1 1v1q0 1 -1 2h-1h-1h-3h-8q-4 0 -8 0.5t-7 4.5q-6 7 -2.5 15.5t5.5 15.5q1 4 4.5 5.5t7 1t5.5 -4
t1 -7.5l-3 -12q12 2 18 -2q10 -3 12 -14z" />
    <glyph glyph-name="Egrave" unicode="&#xc8;" horiz-adv-x="265" 
d="M487 547q2 -9 -7 -12q-10 -2 -12 7q-1 4 -1.5 8t-1.5 8q-1 2 -1 3t-1 3q0 1 -0.5 1.5t-0.5 1.5q-2 2 -2.5 4.5t-2.5 4.5q-1 2 -1.5 2.5t-1.5 2.5l-1 1l-1 1l-6 6l-2 2h-1l-3 3l-4 2l-4 2l-2 1h-1l-4 2q-6 2 -10 2q-1 1 -5 1h-1q-1 0 -1 0.5t-1 0.5h-10h-12t-11 -1h-3
q-2 0 -2 -1h-6l-12 -3q-6 -2 -12.5 -3t-12.5 -3q-28 -9 -53.5 -20t-51.5 -25q-24 -14 -47.5 -28.5t-45.5 -31.5q-5 -3 -9 -6t-9 -7q-6 -5 -11.5 -10t-11.5 -10q-15 -14 -29 -29.5t-26 -32.5q-17 -26 -26 -54t-7 -59q2 -28 11.5 -55t21.5 -52q7 -14 14 -26.5t14 -25.5t17 -26
q2 -2 2.5 -3t2.5 -3q2 -1 4 -3q1 0 2 -1q1 0 2 -0.5t0 -0.5h1q1 0 1 -1q8 0 10 -7t-5 -11l-6 -4t-7 -4q-14 -9 -27.5 -18t-27.5 -20q-13 -11 -25 -22.5t-21 -25.5q-7 -12 -10 -24v-2v-2v-4v-1v-1q1 -2 1 -4q1 -1 1 -2l1 -1l2 -1l2 -2l1 -1q3 0 4 -1h3h1q0 -1 2 -1h9q2 1 5 1
h1h2q6 2 11.5 3t11.5 3q13 4 24 8.5t23 10.5l22 12t22 14q6 3 10 7h1l2 2l3 3q4 3 7 6l6 6q2 3 6.5 3t7.5 -3q6 -6 0 -13q-5 -7 -11 -12t-13 -10q-21 -15 -44 -27.5t-48 -21.5q-11 -4 -22.5 -6.5t-23.5 -4.5q-9 -1 -18.5 0.5t-17.5 6.5q-11 9 -13 20.5t1.5 24t11 24
t14.5 19.5q19 22 42.5 39.5t48.5 32.5q-8 7 -13.5 15.5t-10.5 16.5q-15 25 -29 51.5t-24 54.5t-14.5 57t1.5 59q7 35 26 65t43 56q21 22 44.5 41t48.5 36q24 16 49 30.5t51 26.5t52 22t54 16q23 5 46 5t45 -9q20 -10 31.5 -28.5t14.5 -40.5zM454 700q5 -6 -3.5 -10t-13.5 3
q-11 14 -23 27.5t-23 27.5q-2 3 -0.5 5.5t4.5 4t7 1.5t6 -3q11 -15 23 -28.5t23 -27.5z" />
    <glyph glyph-name="Eacute" unicode="&#xc9;" horiz-adv-x="265" 
d="M487 547q2 -9 -7 -12q-10 -2 -12 7q-1 4 -1.5 8t-1.5 8q-1 2 -1 3t-1 3q0 1 -0.5 1.5t-0.5 1.5q-2 2 -2.5 4.5t-2.5 4.5q-1 2 -1.5 2.5t-1.5 2.5l-1 1l-1 1l-6 6l-2 2h-1l-3 3l-4 2l-4 2l-2 1h-1l-4 2q-6 2 -10 2q-1 1 -5 1h-1q-1 0 -1 0.5t-1 0.5h-10h-12t-11 -1h-3
q-2 0 -2 -1h-6l-12 -3q-6 -2 -12.5 -3t-12.5 -3q-28 -9 -53.5 -20t-51.5 -25q-24 -14 -47.5 -28.5t-45.5 -31.5q-5 -3 -9 -6t-9 -7q-6 -5 -11.5 -10t-11.5 -10q-15 -14 -29 -29.5t-26 -32.5q-17 -26 -26 -54t-7 -59q2 -28 11.5 -55t21.5 -52q7 -14 14 -26.5t14 -25.5t17 -26
q2 -2 2.5 -3t2.5 -3q2 -1 4 -3q1 0 2 -1q1 0 2 -0.5t0 -0.5h1q1 0 1 -1q8 0 10 -7t-5 -11l-6 -4t-7 -4q-14 -9 -27.5 -18t-27.5 -20q-13 -11 -25 -22.5t-21 -25.5q-7 -12 -10 -24v-2v-2v-4v-1v-1q1 -2 1 -4q1 -1 1 -2l1 -1l2 -1l2 -2l1 -1q3 0 4 -1h3h1q0 -1 2 -1h9q2 1 5 1
h1h2q6 2 11.5 3t11.5 3q13 4 24 8.5t23 10.5l22 12t22 14q6 3 10 7h1l2 2l3 3q4 3 7 6l6 6q2 3 6.5 3t7.5 -3q6 -6 0 -13q-5 -7 -11 -12t-13 -10q-21 -15 -44 -27.5t-48 -21.5q-11 -4 -22.5 -6.5t-23.5 -4.5q-9 -1 -18.5 0.5t-17.5 6.5q-11 9 -13 20.5t1.5 24t11 24
t14.5 19.5q19 22 42.5 39.5t48.5 32.5q-8 7 -13.5 15.5t-10.5 16.5q-15 25 -29 51.5t-24 54.5t-14.5 57t1.5 59q7 35 26 65t43 56q21 22 44.5 41t48.5 36q24 16 49 30.5t51 26.5t52 22t54 16q23 5 46 5t45 -9q20 -10 31.5 -28.5t14.5 -40.5zM437 740q4 2 8 0.5t5.5 -4.5
t1 -7t-4.5 -6q-11 -5 -21 -12.5t-21 -12.5q-5 -2 -8.5 -0.5t-5 4.5t-1 7t4.5 6q11 5 21 12.5t21 12.5z" />
    <glyph glyph-name="Ecircumflex" unicode="&#xca;" horiz-adv-x="265" 
d="M487 547q2 -9 -7 -12q-10 -2 -12 7q-1 4 -1.5 8t-1.5 8q-1 2 -1 3t-1 3q0 1 -0.5 1.5t-0.5 1.5q-2 2 -2.5 4.5t-2.5 4.5q-1 2 -1.5 2.5t-1.5 2.5l-1 1l-1 1l-6 6l-2 2h-1l-3 3l-4 2l-4 2l-2 1h-1l-4 2q-6 2 -10 2q-1 1 -5 1h-1q-1 0 -1 0.5t-1 0.5h-10h-12t-11 -1h-3
q-2 0 -2 -1h-6l-12 -3q-6 -2 -12.5 -3t-12.5 -3q-28 -9 -53.5 -20t-51.5 -25q-24 -14 -47.5 -28.5t-45.5 -31.5q-5 -3 -9 -6t-9 -7q-6 -5 -11.5 -10t-11.5 -10q-15 -14 -29 -29.5t-26 -32.5q-17 -26 -26 -54t-7 -59q2 -28 11.5 -55t21.5 -52q7 -14 14 -26.5t14 -25.5t17 -26
q2 -2 2.5 -3t2.5 -3q2 -1 4 -3q1 0 2 -1q1 0 2 -0.5t0 -0.5h1q1 0 1 -1q8 0 10 -7t-5 -11l-6 -4t-7 -4q-14 -9 -27.5 -18t-27.5 -20q-13 -11 -25 -22.5t-21 -25.5q-7 -12 -10 -24v-2v-2v-4v-1v-1q1 -2 1 -4q1 -1 1 -2l1 -1l2 -1l2 -2l1 -1q3 0 4 -1h3h1q0 -1 2 -1h9q2 1 5 1
h1h2q6 2 11.5 3t11.5 3q13 4 24 8.5t23 10.5l22 12t22 14q6 3 10 7h1l2 2l3 3q4 3 7 6l6 6q2 3 6.5 3t7.5 -3q6 -6 0 -13q-5 -7 -11 -12t-13 -10q-21 -15 -44 -27.5t-48 -21.5q-11 -4 -22.5 -6.5t-23.5 -4.5q-9 -1 -18.5 0.5t-17.5 6.5q-11 9 -13 20.5t1.5 24t11 24
t14.5 19.5q19 22 42.5 39.5t48.5 32.5q-8 7 -13.5 15.5t-10.5 16.5q-15 25 -29 51.5t-24 54.5t-14.5 57t1.5 59q7 35 26 65t43 56q21 22 44.5 41t48.5 36q24 16 49 30.5t51 26.5t52 22t54 16q23 5 46 5t45 -9q20 -10 31.5 -28.5t14.5 -40.5zM450 712q3 -3 1.5 -7t-4.5 -6
q-7 -4 -13 3q-3 4 -5.5 7.5t-5.5 7.5q-2 2 -3.5 4t-3.5 4q-1 0 -1 -1q-2 -2 -4 -3.5t-4 -3.5q-4 -4 -8 -7.5t-9 -8.5q-3 -3 -7 -2.5t-6.5 3.5t-3 6.5t2.5 6.5l12 10t11 11q5 5 9.5 8t12.5 0q5 -2 9 -6t8 -9q3 -5 6 -8.5t6 -8.5z" />
    <glyph glyph-name="Edieresis" unicode="&#xcb;" horiz-adv-x="265" 
d="M487 547q2 -9 -7 -12q-10 -2 -12 7q-1 4 -1.5 8t-1.5 8q-1 2 -1 3t-1 3q0 1 -0.5 1.5t-0.5 1.5q-2 2 -2.5 4.5t-2.5 4.5q-1 2 -1.5 2.5t-1.5 2.5l-1 1l-1 1l-6 6l-2 2h-1l-3 3l-4 2l-4 2l-2 1h-1l-4 2q-6 2 -10 2q-1 1 -5 1h-1q-1 0 -1 0.5t-1 0.5h-10h-12t-11 -1h-3
q-2 0 -2 -1h-6l-12 -3q-6 -2 -12.5 -3t-12.5 -3q-28 -9 -53.5 -20t-51.5 -25q-24 -14 -47.5 -28.5t-45.5 -31.5q-5 -3 -9 -6t-9 -7q-6 -5 -11.5 -10t-11.5 -10q-15 -14 -29 -29.5t-26 -32.5q-17 -26 -26 -54t-7 -59q2 -28 11.5 -55t21.5 -52q7 -14 14 -26.5t14 -25.5t17 -26
q2 -2 2.5 -3t2.5 -3q2 -1 4 -3q1 0 2 -1q1 0 2 -0.5t0 -0.5h1q1 0 1 -1q8 0 10 -7t-5 -11l-6 -4t-7 -4q-14 -9 -27.5 -18t-27.5 -20q-13 -11 -25 -22.5t-21 -25.5q-7 -12 -10 -24v-2v-2v-4v-1v-1q1 -2 1 -4q1 -1 1 -2l1 -1l2 -1l2 -2l1 -1q3 0 4 -1h3h1q0 -1 2 -1h9q2 1 5 1
h1h2q6 2 11.5 3t11.5 3q13 4 24 8.5t23 10.5l22 12t22 14q6 3 10 7h1l2 2l3 3q4 3 7 6l6 6q2 3 6.5 3t7.5 -3q6 -6 0 -13q-5 -7 -11 -12t-13 -10q-21 -15 -44 -27.5t-48 -21.5q-11 -4 -22.5 -6.5t-23.5 -4.5q-9 -1 -18.5 0.5t-17.5 6.5q-11 9 -13 20.5t1.5 24t11 24
t14.5 19.5q19 22 42.5 39.5t48.5 32.5q-8 7 -13.5 15.5t-10.5 16.5q-15 25 -29 51.5t-24 54.5t-14.5 57t1.5 59q7 35 26 65t43 56q21 22 44.5 41t48.5 36q24 16 49 30.5t51 26.5t52 22t54 16q23 5 46 5t45 -9q20 -10 31.5 -28.5t14.5 -40.5zM380 718q10 0 10 -9.5t-10 -9.5
q-9 0 -9 9.5t9 9.5zM415 719q10 0 10 -10t-10 -10t-10 10t10 10z" />
    <glyph glyph-name="Igrave" unicode="&#xcc;" horiz-adv-x="116" 
d="M268 630q10 0 10 -10q0 -8 -10 -10q-17 -2 -34.5 -5t-34.5 -6q-22 -78 -46.5 -154.5t-50.5 -153.5q-31 -91 -63 -179.5t-65 -178.5q14 2 27.5 4.5t27.5 4.5q10 0 10 -10q0 -8 -10 -10q-34 -4 -67.5 -11.5t-68.5 -3.5q-10 0 -10 10q0 4 2.5 7t7.5 2q15 -2 30 -0.5t29 3.5
q28 77 55.5 152.5t54.5 152.5q32 90 61 180t55 182q-33 -6 -66 -6q-10 0 -10 9.5t10 9.5q40 0 78.5 8t77.5 13zM223 683q5 -6 -3.5 -10t-13.5 3q-11 14 -23 27.5t-23 27.5q-2 3 -0.5 5.5t4.5 4t7 1.5t6 -3q11 -15 23 -28.5t23 -27.5z" />
    <glyph glyph-name="Iacute" unicode="&#xcd;" horiz-adv-x="116" 
d="M268 630q10 0 10 -10q0 -8 -10 -10q-17 -2 -34.5 -5t-34.5 -6q-22 -78 -46.5 -154.5t-50.5 -153.5q-31 -91 -63 -179.5t-65 -178.5q14 2 27.5 4.5t27.5 4.5q10 0 10 -10q0 -8 -10 -10q-34 -4 -67.5 -11.5t-68.5 -3.5q-10 0 -10 10q0 4 2.5 7t7.5 2q15 -2 30 -0.5t29 3.5
q28 77 55.5 152.5t54.5 152.5q32 90 61 180t55 182q-33 -6 -66 -6q-10 0 -10 9.5t10 9.5q40 0 78.5 8t77.5 13zM204 727q4 2 8 0.5t5.5 -4.5t1 -7t-4.5 -6q-11 -5 -21 -12.5t-21 -12.5q-5 -2 -8.5 -0.5t-5 4.5t-1 7t4.5 6q11 5 21 12.5t21 12.5z" />
    <glyph glyph-name="Icircumflex" unicode="&#xce;" horiz-adv-x="116" 
d="M268 630q10 0 10 -10q0 -8 -10 -10q-17 -2 -34.5 -5t-34.5 -6q-22 -78 -46.5 -154.5t-50.5 -153.5q-31 -91 -63 -179.5t-65 -178.5q14 2 27.5 4.5t27.5 4.5q10 0 10 -10q0 -8 -10 -10q-34 -4 -67.5 -11.5t-68.5 -3.5q-10 0 -10 10q0 4 2.5 7t7.5 2q15 -2 30 -0.5t29 3.5
q28 77 55.5 152.5t54.5 152.5q32 90 61 180t55 182q-33 -6 -66 -6q-10 0 -10 9.5t10 9.5q40 0 78.5 8t77.5 13zM237 699q3 -3 1.5 -7t-4.5 -6q-7 -4 -13 3q-3 4 -5.5 7.5t-5.5 7.5q-2 2 -3.5 4t-3.5 4q-1 0 -1 -1q-2 -2 -4 -3.5t-4 -3.5q-4 -4 -8 -7.5t-9 -8.5
q-3 -3 -7 -2.5t-6.5 3.5t-3 6.5t2.5 6.5l12 10t11 11q5 5 9.5 8t12.5 0q5 -2 9 -6t8 -9q3 -5 6 -8.5t6 -8.5z" />
    <glyph glyph-name="Idieresis" unicode="&#xcf;" horiz-adv-x="116" 
d="M268 630q10 0 10 -10q0 -8 -10 -10q-17 -2 -34.5 -5t-34.5 -6q-22 -78 -46.5 -154.5t-50.5 -153.5q-31 -91 -63 -179.5t-65 -178.5q14 2 27.5 4.5t27.5 4.5q10 0 10 -10q0 -8 -10 -10q-34 -4 -67.5 -11.5t-68.5 -3.5q-10 0 -10 10q0 4 2.5 7t7.5 2q15 -2 30 -0.5t29 3.5
q28 77 55.5 152.5t54.5 152.5q32 90 61 180t55 182q-33 -6 -66 -6q-10 0 -10 9.5t10 9.5q40 0 78.5 8t77.5 13zM176 718q10 0 10 -9.5t-10 -9.5q-9 0 -9 9.5t9 9.5zM211 719q10 0 10 -10t-10 -10t-10 10t10 10z" />
    <glyph glyph-name="Ntilde" unicode="&#xd1;" horiz-adv-x="522" 
d="M532 569q6 -28 6.5 -55.5t-1.5 -55.5q-6 -65 -21 -128q-17 -70 -39.5 -138t-47.5 -136q-23 -61 -46 -121.5t-43 -122.5q-3 -9 -12.5 -6.5t-6.5 11.5l9 27q22 63 45.5 125.5t46.5 126.5q24 67 46 134.5t36 137.5q6 30 10 60t5 61q1 27 -1.5 52t-11.5 50q-2 6 -3.5 9.5
t-3.5 8.5q-5 9 -9 15h-1v1l-1 1l-3 3q-2 3 -5 5q0 1 -1.5 1.5t-0.5 0.5l-2 2l-6 3q-1 1 -1.5 1t-1.5 1h-2q-4 2 -6 2q-1 0 -2 0.5t-2 0.5h-2q-2 0 -3 0.5t-3 0.5q-5 0 -8 -1h-3h-1h-1q-10 -2 -15 -4q-2 -1 -4.5 -1t-4.5 -2q-1 0 -1.5 -0.5t-2.5 -0.5l-1 -1h-1q-5 -2 -8.5 -4
t-8.5 -4q-17 -10 -35 -23q-2 -2 -3 -2.5t-2 -1.5q-1 0 -2 -1q0 -1 -1 -1h-1l-8 -8q-5 -4 -9.5 -7.5t-9.5 -7.5q-10 -9 -19 -18l-18 -18q-76 -79 -137 -175q-14 -22 -27.5 -44t-25.5 -45q-5 -10 -9.5 -20t-9.5 -20q0 -1 -0.5 -1t-0.5 -1v-1v-1q-2 -4 -2 -5q-2 -6 -4 -8
l-6 -18q-1 -5 -4.5 -6t-7 -0.5t-6 3.5t-0.5 8q6 24 15 48q29 90 62.5 178.5t56.5 180.5q1 4 4.5 5.5t7 0.5t6 -4t1.5 -8q-3 -12 -6.5 -24t-6.5 -25q-16 -54 -34.5 -106.5t-38.5 -105.5q11 19 23.5 37t24.5 36q32 45 67.5 87.5t77.5 79.5q33 31 73 56q16 9 33 15.5t36 7.5
q33 2 56 -21q15 -15 23 -35.5t12 -40.5zM487 734q2 4 6 4.5t7 -1.5t4.5 -5.5t-0.5 -7.5q-4 -8 -10.5 -12.5t-15.5 -2.5q-8 0 -14.5 3t-12.5 7q0 1 -1.5 1.5t-0.5 0.5q-2 0 -2.5 0.5t-1.5 0.5q-4 1 -9 1h-1h-2h-1v-1h-1v-2v-2q1 -5 -2 -7.5t-7 -2.5q-10 0 -10 10q-2 17 14 23
q5 2 11.5 2t12.5 -2t11 -5t11 -6q5 -2 8.5 -2t6.5 6zM431 722v-1v1z" />
    <glyph glyph-name="Ograve" unicode="&#xd2;" horiz-adv-x="404" 
d="M401 464q10 -84 -5 -167t-43 -161q-14 -38 -30.5 -76t-33.5 -75q-15 -33 -33.5 -65.5t-44.5 -56.5q-12 -11 -26 -19.5t-29.5 -13.5t-31.5 -4.5t-31 8.5q-14 8 -23.5 20.5t-15.5 26.5q-8 19 -10.5 39t-0.5 40q2 43 14.5 82.5t24.5 80.5q8 23 15.5 46.5t16.5 46.5
q-15 6 -29 15t-25 22q-23 24 -33.5 55t-12.5 63q-5 74 33 137q37 64 98 100q28 18 62 27q14 5 30 7.5t32 0.5q15 -2 29.5 -6.5t27.5 -12.5q12 -8 21.5 -19t17.5 -23q16 -27 24 -57t12 -61zM383 367q2 34 1 67.5t-9 66.5q-6 28 -17.5 54t-33.5 45q-20 18 -48 23
q-14 2 -29 0.5t-29 -5.5q-32 -8 -61 -25.5t-52 -40.5q-24 -25 -41.5 -54.5t-25.5 -63.5q-5 -17 -5.5 -35t1.5 -36q2 -15 5.5 -30.5t10.5 -29.5q6 -13 13.5 -24t18.5 -20q8 -8 18.5 -14.5t20.5 -10.5q7 16 13.5 32t14.5 33l18 38t20 38q14 27 29 52q7 12 16.5 25t20.5 23.5
t24.5 17t29.5 5.5q5 0 7.5 -3t2.5 -7t-2.5 -6.5t-7.5 -2.5q-13 0 -21 -4q-10 -5 -20 -15q-11 -10 -19 -21.5t-16 -24.5q-19 -32 -35.5 -64.5t-31.5 -65.5q-14 -29 -24 -57q23 -6 45.5 -6.5t45.5 4.5q4 1 7.5 -1.5t4 -6t-1 -7t-5.5 -4.5q-26 -5 -52 -5t-51 8
q-20 -52 -35 -100q-6 -20 -12.5 -38.5t-11.5 -38.5q-5 -21 -8.5 -41.5t-3.5 -42.5q0 -18 3.5 -36.5t12.5 -34.5q14 -26 39 -31q12 -2 25 0q8 2 15 4.5t14 6.5q14 8 26 19.5t23 25.5q23 29 38.5 62t29.5 66q8 19 16.5 38t16.5 39t15.5 41t13.5 42q14 43 22.5 87.5t10.5 89.5z
M293 684q5 -6 -3.5 -10t-13.5 3q-11 14 -23 27.5t-23 27.5q-2 3 -0.5 5.5t4.5 4t7 1.5t6 -3q11 -15 23 -28.5t23 -27.5z" />
    <glyph glyph-name="Oacute" unicode="&#xd3;" horiz-adv-x="404" 
d="M401 464q10 -84 -5 -167t-43 -161q-14 -38 -30.5 -76t-33.5 -75q-15 -33 -33.5 -65.5t-44.5 -56.5q-12 -11 -26 -19.5t-29.5 -13.5t-31.5 -4.5t-31 8.5q-14 8 -23.5 20.5t-15.5 26.5q-8 19 -10.5 39t-0.5 40q2 43 14.5 82.5t24.5 80.5q8 23 15.5 46.5t16.5 46.5
q-15 6 -29 15t-25 22q-23 24 -33.5 55t-12.5 63q-5 74 33 137q37 64 98 100q28 18 62 27q14 5 30 7.5t32 0.5q15 -2 29.5 -6.5t27.5 -12.5q12 -8 21.5 -19t17.5 -23q16 -27 24 -57t12 -61zM383 367q2 34 1 67.5t-9 66.5q-6 28 -17.5 54t-33.5 45q-20 18 -48 23
q-14 2 -29 0.5t-29 -5.5q-32 -8 -61 -25.5t-52 -40.5q-24 -25 -41.5 -54.5t-25.5 -63.5q-5 -17 -5.5 -35t1.5 -36q2 -15 5.5 -30.5t10.5 -29.5q6 -13 13.5 -24t18.5 -20q8 -8 18.5 -14.5t20.5 -10.5q7 16 13.5 32t14.5 33l18 38t20 38q14 27 29 52q7 12 16.5 25t20.5 23.5
t24.5 17t29.5 5.5q5 0 7.5 -3t2.5 -7t-2.5 -6.5t-7.5 -2.5q-13 0 -21 -4q-10 -5 -20 -15q-11 -10 -19 -21.5t-16 -24.5q-19 -32 -35.5 -64.5t-31.5 -65.5q-14 -29 -24 -57q23 -6 45.5 -6.5t45.5 4.5q4 1 7.5 -1.5t4 -6t-1 -7t-5.5 -4.5q-26 -5 -52 -5t-51 8
q-20 -52 -35 -100q-6 -20 -12.5 -38.5t-11.5 -38.5q-5 -21 -8.5 -41.5t-3.5 -42.5q0 -18 3.5 -36.5t12.5 -34.5q14 -26 39 -31q12 -2 25 0q8 2 15 4.5t14 6.5q14 8 26 19.5t23 25.5q23 29 38.5 62t29.5 66q8 19 16.5 38t16.5 39t15.5 41t13.5 42q14 43 22.5 87.5t10.5 89.5z
M277 740q4 2 8 0.5t5.5 -4.5t1 -7t-4.5 -6q-11 -5 -21 -12.5t-21 -12.5q-5 -2 -8.5 -0.5t-5 4.5t-1 7t4.5 6q11 5 21 12.5t21 12.5z" />
    <glyph glyph-name="Ocircumflex" unicode="&#xd4;" horiz-adv-x="404" 
d="M401 464q10 -84 -5 -167t-43 -161q-14 -38 -30.5 -76t-33.5 -75q-15 -33 -33.5 -65.5t-44.5 -56.5q-12 -11 -26 -19.5t-29.5 -13.5t-31.5 -4.5t-31 8.5q-14 8 -23.5 20.5t-15.5 26.5q-8 19 -10.5 39t-0.5 40q2 43 14.5 82.5t24.5 80.5q8 23 15.5 46.5t16.5 46.5
q-15 6 -29 15t-25 22q-23 24 -33.5 55t-12.5 63q-5 74 33 137q37 64 98 100q28 18 62 27q14 5 30 7.5t32 0.5q15 -2 29.5 -6.5t27.5 -12.5q12 -8 21.5 -19t17.5 -23q16 -27 24 -57t12 -61zM383 367q2 34 1 67.5t-9 66.5q-6 28 -17.5 54t-33.5 45q-20 18 -48 23
q-14 2 -29 0.5t-29 -5.5q-32 -8 -61 -25.5t-52 -40.5q-24 -25 -41.5 -54.5t-25.5 -63.5q-5 -17 -5.5 -35t1.5 -36q2 -15 5.5 -30.5t10.5 -29.5q6 -13 13.5 -24t18.5 -20q8 -8 18.5 -14.5t20.5 -10.5q7 16 13.5 32t14.5 33l18 38t20 38q14 27 29 52q7 12 16.5 25t20.5 23.5
t24.5 17t29.5 5.5q5 0 7.5 -3t2.5 -7t-2.5 -6.5t-7.5 -2.5q-13 0 -21 -4q-10 -5 -20 -15q-11 -10 -19 -21.5t-16 -24.5q-19 -32 -35.5 -64.5t-31.5 -65.5q-14 -29 -24 -57q23 -6 45.5 -6.5t45.5 4.5q4 1 7.5 -1.5t4 -6t-1 -7t-5.5 -4.5q-26 -5 -52 -5t-51 8
q-20 -52 -35 -100q-6 -20 -12.5 -38.5t-11.5 -38.5q-5 -21 -8.5 -41.5t-3.5 -42.5q0 -18 3.5 -36.5t12.5 -34.5q14 -26 39 -31q12 -2 25 0q8 2 15 4.5t14 6.5q14 8 26 19.5t23 25.5q23 29 38.5 62t29.5 66q8 19 16.5 38t16.5 39t15.5 41t13.5 42q14 43 22.5 87.5t10.5 89.5z
M312 708q3 -3 1.5 -7t-4.5 -6q-7 -4 -13 3q-3 4 -5.5 7.5t-5.5 7.5q-2 2 -3.5 4t-3.5 4q-1 0 -1 -1q-2 -2 -4 -3.5t-4 -3.5q-4 -4 -8 -7.5t-9 -8.5q-3 -3 -7 -2.5t-6.5 3.5t-3 6.5t2.5 6.5l12 10t11 11q5 5 9.5 8t12.5 0q5 -2 9 -6t8 -9q3 -5 6 -8.5t6 -8.5z" />
    <glyph glyph-name="Otilde" unicode="&#xd5;" horiz-adv-x="404" 
d="M401 464q10 -84 -5 -167t-43 -161q-14 -38 -30.5 -76t-33.5 -75q-15 -33 -33.5 -65.5t-44.5 -56.5q-12 -11 -26 -19.5t-29.5 -13.5t-31.5 -4.5t-31 8.5q-14 8 -23.5 20.5t-15.5 26.5q-8 19 -10.5 39t-0.5 40q2 43 14.5 82.5t24.5 80.5q8 23 15.5 46.5t16.5 46.5
q-15 6 -29 15t-25 22q-23 24 -33.5 55t-12.5 63q-5 74 33 137q37 64 98 100q28 18 62 27q14 5 30 7.5t32 0.5q15 -2 29.5 -6.5t27.5 -12.5q12 -8 21.5 -19t17.5 -23q16 -27 24 -57t12 -61zM383 367q2 34 1 67.5t-9 66.5q-6 28 -17.5 54t-33.5 45q-20 18 -48 23
q-14 2 -29 0.5t-29 -5.5q-32 -8 -61 -25.5t-52 -40.5q-24 -25 -41.5 -54.5t-25.5 -63.5q-5 -17 -5.5 -35t1.5 -36q2 -15 5.5 -30.5t10.5 -29.5q6 -13 13.5 -24t18.5 -20q8 -8 18.5 -14.5t20.5 -10.5q7 16 13.5 32t14.5 33l18 38t20 38q14 27 29 52q7 12 16.5 25t20.5 23.5
t24.5 17t29.5 5.5q5 0 7.5 -3t2.5 -7t-2.5 -6.5t-7.5 -2.5q-13 0 -21 -4q-10 -5 -20 -15q-11 -10 -19 -21.5t-16 -24.5q-19 -32 -35.5 -64.5t-31.5 -65.5q-14 -29 -24 -57q23 -6 45.5 -6.5t45.5 4.5q4 1 7.5 -1.5t4 -6t-1 -7t-5.5 -4.5q-26 -5 -52 -5t-51 8
q-20 -52 -35 -100q-6 -20 -12.5 -38.5t-11.5 -38.5q-5 -21 -8.5 -41.5t-3.5 -42.5q0 -18 3.5 -36.5t12.5 -34.5q14 -26 39 -31q12 -2 25 0q8 2 15 4.5t14 6.5q14 8 26 19.5t23 25.5q23 29 38.5 62t29.5 66q8 19 16.5 38t16.5 39t15.5 41t13.5 42q14 43 22.5 87.5t10.5 89.5z
M297 731q2 4 6 4.5t7 -1.5t4.5 -5.5t-0.5 -7.5q-4 -8 -10.5 -12.5t-15.5 -2.5q-8 0 -14.5 3t-12.5 7q0 1 -1.5 1.5t-0.5 0.5q-2 0 -2.5 0.5t-1.5 0.5q-4 1 -9 1h-1h-2h-1v-1h-1v-2v-2q1 -5 -2 -7.5t-7 -2.5q-10 0 -10 10q-2 17 14 23q5 2 11.5 2t12.5 -2t11 -5t11 -6
q5 -2 8.5 -2t6.5 6zM241 719v-1v1z" />
    <glyph glyph-name="Odieresis" unicode="&#xd6;" horiz-adv-x="404" 
d="M401 464q10 -84 -5 -167t-43 -161q-14 -38 -30.5 -76t-33.5 -75q-15 -33 -33.5 -65.5t-44.5 -56.5q-12 -11 -26 -19.5t-29.5 -13.5t-31.5 -4.5t-31 8.5q-14 8 -23.5 20.5t-15.5 26.5q-8 19 -10.5 39t-0.5 40q2 43 14.5 82.5t24.5 80.5q8 23 15.5 46.5t16.5 46.5
q-15 6 -29 15t-25 22q-23 24 -33.5 55t-12.5 63q-5 74 33 137q37 64 98 100q28 18 62 27q14 5 30 7.5t32 0.5q15 -2 29.5 -6.5t27.5 -12.5q12 -8 21.5 -19t17.5 -23q16 -27 24 -57t12 -61zM383 367q2 34 1 67.5t-9 66.5q-6 28 -17.5 54t-33.5 45q-20 18 -48 23
q-14 2 -29 0.5t-29 -5.5q-32 -8 -61 -25.5t-52 -40.5q-24 -25 -41.5 -54.5t-25.5 -63.5q-5 -17 -5.5 -35t1.5 -36q2 -15 5.5 -30.5t10.5 -29.5q6 -13 13.5 -24t18.5 -20q8 -8 18.5 -14.5t20.5 -10.5q7 16 13.5 32t14.5 33l18 38t20 38q14 27 29 52q7 12 16.5 25t20.5 23.5
t24.5 17t29.5 5.5q5 0 7.5 -3t2.5 -7t-2.5 -6.5t-7.5 -2.5q-13 0 -21 -4q-10 -5 -20 -15q-11 -10 -19 -21.5t-16 -24.5q-19 -32 -35.5 -64.5t-31.5 -65.5q-14 -29 -24 -57q23 -6 45.5 -6.5t45.5 4.5q4 1 7.5 -1.5t4 -6t-1 -7t-5.5 -4.5q-26 -5 -52 -5t-51 8
q-20 -52 -35 -100q-6 -20 -12.5 -38.5t-11.5 -38.5q-5 -21 -8.5 -41.5t-3.5 -42.5q0 -18 3.5 -36.5t12.5 -34.5q14 -26 39 -31q12 -2 25 0q8 2 15 4.5t14 6.5q14 8 26 19.5t23 25.5q23 29 38.5 62t29.5 66q8 19 16.5 38t16.5 39t15.5 41t13.5 42q14 43 22.5 87.5t10.5 89.5z
M253 737q10 0 10 -9.5t-10 -9.5q-9 0 -9 9.5t9 9.5zM288 738q10 0 10 -10t-10 -10t-10 10t10 10z" />
    <glyph glyph-name="Oslash" unicode="&#xd8;" horiz-adv-x="404" 
d="M401 464q10 -84 -5 -167t-43 -161q-14 -38 -30.5 -76t-33.5 -75q-15 -33 -33.5 -65.5t-44.5 -56.5q-12 -11 -26 -19.5t-29.5 -13.5t-31.5 -4.5t-31 8.5q-14 8 -23.5 20.5t-15.5 26.5q-8 19 -10.5 39t-0.5 40q2 43 14.5 82.5t24.5 80.5q8 23 15.5 46.5t16.5 46.5
q-15 6 -29 15t-25 22q-23 24 -33.5 55t-12.5 63q-5 74 33 137q37 64 98 100q28 18 62 27q14 5 30 7.5t32 0.5q15 -2 29.5 -6.5t27.5 -12.5q12 -8 21.5 -19t17.5 -23q16 -27 24 -57t12 -61zM383 367q2 34 1 67.5t-9 66.5q-6 28 -17.5 54t-33.5 45q-20 18 -48 23
q-14 2 -29 0.5t-29 -5.5q-32 -8 -61 -25.5t-52 -40.5q-24 -25 -41.5 -54.5t-25.5 -63.5q-5 -17 -5.5 -35t1.5 -36q2 -15 5.5 -30.5t10.5 -29.5q6 -13 13.5 -24t18.5 -20q8 -8 18.5 -14.5t20.5 -10.5q7 16 13.5 32t14.5 33l18 38t20 38q14 27 29 52q7 12 16.5 25t20.5 23.5
t24.5 17t29.5 5.5q5 0 7.5 -3t2.5 -7t-2.5 -6.5t-7.5 -2.5q-13 0 -21 -4q-10 -5 -20 -15q-11 -10 -19 -21.5t-16 -24.5q-19 -32 -35.5 -64.5t-31.5 -65.5q-14 -29 -24 -57q23 -6 45.5 -6.5t45.5 4.5q4 1 7.5 -1.5t4 -6t-1 -7t-5.5 -4.5q-26 -5 -52 -5t-51 8
q-20 -52 -35 -100q-6 -20 -12.5 -38.5t-11.5 -38.5q-5 -21 -8.5 -41.5t-3.5 -42.5q0 -18 3.5 -36.5t12.5 -34.5q14 -26 39 -31q12 -2 25 0q8 2 15 4.5t14 6.5q14 8 26 19.5t23 25.5q23 29 38.5 62t29.5 66q8 19 16.5 38t16.5 39t15.5 41t13.5 42q14 43 22.5 87.5t10.5 89.5z
M418 706q2 5 6 6t7.5 -1.5t5 -7t-0.5 -9.5q-28 -63 -59 -130q-48 -101 -98 -198.5t-101 -196.5t-100 -197t-94 -201q-2 -5 -6 -6t-7 1.5t-4.5 7t0.5 9.5q14 33 29 65.5t30 64.5q48 101 98.5 199t101.5 197q51 98 99 196t93 201z" />
    <glyph glyph-name="Ugrave" unicode="&#xd9;" horiz-adv-x="355" 
d="M477 737q9 -2 7 -12q-3 -9 -6.5 -18t-6.5 -18q-2 -10 -6 -19t-8 -19q-1 -5 -2.5 -9t-3.5 -8q-13 -36 -27 -72t-28 -71q-17 -45 -35 -89.5t-35 -89.5q-17 -44 -34 -87.5t-34 -88.5q-32 -87 -59.5 -175t-40.5 -181q-1 -4 -5 -6t-7 -1q-9 3 -7 12q8 60 23 118.5t34 115.5
q6 17 11.5 32.5t11.5 31.5q-9 -15 -18.5 -29.5t-20.5 -28.5q-19 -27 -44 -51q-12 -11 -25 -22t-29 -15q-9 -2 -18 -0.5t-17 6.5q-13 10 -17 22q-7 15 -7.5 31.5t-0.5 32.5q2 23 5 45.5t7 44.5q10 51 24 99.5t29 97.5q7 20 13.5 39.5t12.5 39.5q4 11 8 23t7 24q3 9 12 6.5
t7 -11.5q0 -4 -1 -6q-11 -35 -22.5 -68.5t-22.5 -68.5q-16 -49 -29 -97.5t-22 -99.5q-3 -11 -4.5 -22.5t-3.5 -22.5v-3v-1q0 -2 -0.5 -2.5t-0.5 -2.5q1 -2 0.5 -5t-0.5 -5q0 -5 -0.5 -9.5t-0.5 -9.5q1 -4 1 -8v-9q0 -2 0.5 -4t0.5 -4v-1q0 -1 0.5 -2t0.5 -2q2 -4 4 -12l1 -1
v-1l1 -2t3 -4q0 -1 1 -1q0 -1 1 -2t2 -1q0 -1 1 -1l2 -1q0 -1 2 -1q1 -1 3 -1q3 -1 8 -1q3 1 6.5 1.5t5.5 2.5q15 7 27 18q26 23 47 51t40 59q41 69 70 142.5t58 147.5q37 87 72 174q8 22 16.5 43t16.5 43q9 23 17.5 46.5t16.5 46.5q4 10 12 7zM356 682q5 -6 -3.5 -10
t-13.5 3q-11 14 -23 27.5t-23 27.5q-2 3 -0.5 5.5t4.5 4t7 1.5t6 -3q11 -15 23 -28.5t23 -27.5z" />
    <glyph glyph-name="Uacute" unicode="&#xda;" horiz-adv-x="355" 
d="M477 737q9 -2 7 -12q-3 -9 -6.5 -18t-6.5 -18q-2 -10 -6 -19t-8 -19q-1 -5 -2.5 -9t-3.5 -8q-13 -36 -27 -72t-28 -71q-17 -45 -35 -89.5t-35 -89.5q-17 -44 -34 -87.5t-34 -88.5q-32 -87 -59.5 -175t-40.5 -181q-1 -4 -5 -6t-7 -1q-9 3 -7 12q8 60 23 118.5t34 115.5
q6 17 11.5 32.5t11.5 31.5q-9 -15 -18.5 -29.5t-20.5 -28.5q-19 -27 -44 -51q-12 -11 -25 -22t-29 -15q-9 -2 -18 -0.5t-17 6.5q-13 10 -17 22q-7 15 -7.5 31.5t-0.5 32.5q2 23 5 45.5t7 44.5q10 51 24 99.5t29 97.5q7 20 13.5 39.5t12.5 39.5q4 11 8 23t7 24q3 9 12 6.5
t7 -11.5q0 -4 -1 -6q-11 -35 -22.5 -68.5t-22.5 -68.5q-16 -49 -29 -97.5t-22 -99.5q-3 -11 -4.5 -22.5t-3.5 -22.5v-3v-1q0 -2 -0.5 -2.5t-0.5 -2.5q1 -2 0.5 -5t-0.5 -5q0 -5 -0.5 -9.5t-0.5 -9.5q1 -4 1 -8v-9q0 -2 0.5 -4t0.5 -4v-1q0 -1 0.5 -2t0.5 -2q2 -4 4 -12l1 -1
v-1l1 -2t3 -4q0 -1 1 -1q0 -1 1 -2t2 -1q0 -1 1 -1l2 -1q0 -1 2 -1q1 -1 3 -1q3 -1 8 -1q3 1 6.5 1.5t5.5 2.5q15 7 27 18q26 23 47 51t40 59q41 69 70 142.5t58 147.5q37 87 72 174q8 22 16.5 43t16.5 43q9 23 17.5 46.5t16.5 46.5q4 10 12 7zM350 734q4 2 8 0.5t5.5 -4.5
t1 -7t-4.5 -6q-11 -5 -21 -12.5t-21 -12.5q-5 -2 -8.5 -0.5t-5 4.5t-1 7t4.5 6q11 5 21 12.5t21 12.5z" />
    <glyph glyph-name="Ucircumflex" unicode="&#xdb;" horiz-adv-x="355" 
d="M477 737q9 -2 7 -12q-3 -9 -6.5 -18t-6.5 -18q-2 -10 -6 -19t-8 -19q-1 -5 -2.5 -9t-3.5 -8q-13 -36 -27 -72t-28 -71q-17 -45 -35 -89.5t-35 -89.5q-17 -44 -34 -87.5t-34 -88.5q-32 -87 -59.5 -175t-40.5 -181q-1 -4 -5 -6t-7 -1q-9 3 -7 12q8 60 23 118.5t34 115.5
q6 17 11.5 32.5t11.5 31.5q-9 -15 -18.5 -29.5t-20.5 -28.5q-19 -27 -44 -51q-12 -11 -25 -22t-29 -15q-9 -2 -18 -0.5t-17 6.5q-13 10 -17 22q-7 15 -7.5 31.5t-0.5 32.5q2 23 5 45.5t7 44.5q10 51 24 99.5t29 97.5q7 20 13.5 39.5t12.5 39.5q4 11 8 23t7 24q3 9 12 6.5
t7 -11.5q0 -4 -1 -6q-11 -35 -22.5 -68.5t-22.5 -68.5q-16 -49 -29 -97.5t-22 -99.5q-3 -11 -4.5 -22.5t-3.5 -22.5v-3v-1q0 -2 -0.5 -2.5t-0.5 -2.5q1 -2 0.5 -5t-0.5 -5q0 -5 -0.5 -9.5t-0.5 -9.5q1 -4 1 -8v-9q0 -2 0.5 -4t0.5 -4v-1q0 -1 0.5 -2t0.5 -2q2 -4 4 -12l1 -1
v-1l1 -2t3 -4q0 -1 1 -1q0 -1 1 -2t2 -1q0 -1 1 -1l2 -1q0 -1 2 -1q1 -1 3 -1q3 -1 8 -1q3 1 6.5 1.5t5.5 2.5q15 7 27 18q26 23 47 51t40 59q41 69 70 142.5t58 147.5q37 87 72 174q8 22 16.5 43t16.5 43q9 23 17.5 46.5t16.5 46.5q4 10 12 7zM363 698q3 -3 1.5 -7t-4.5 -6
q-7 -4 -13 3q-3 4 -5.5 7.5t-5.5 7.5q-2 2 -3.5 4t-3.5 4q-1 0 -1 -1q-2 -2 -4 -3.5t-4 -3.5q-4 -4 -8 -7.5t-9 -8.5q-3 -3 -7 -2.5t-6.5 3.5t-3 6.5t2.5 6.5l12 10t11 11q5 5 9.5 8t12.5 0q5 -2 9 -6t8 -9q3 -5 6 -8.5t6 -8.5z" />
    <glyph glyph-name="Udieresis" unicode="&#xdc;" horiz-adv-x="355" 
d="M477 737q9 -2 7 -12q-3 -9 -6.5 -18t-6.5 -18q-2 -10 -6 -19t-8 -19q-1 -5 -2.5 -9t-3.5 -8q-13 -36 -27 -72t-28 -71q-17 -45 -35 -89.5t-35 -89.5q-17 -44 -34 -87.5t-34 -88.5q-32 -87 -59.5 -175t-40.5 -181q-1 -4 -5 -6t-7 -1q-9 3 -7 12q8 60 23 118.5t34 115.5
q6 17 11.5 32.5t11.5 31.5q-9 -15 -18.5 -29.5t-20.5 -28.5q-19 -27 -44 -51q-12 -11 -25 -22t-29 -15q-9 -2 -18 -0.5t-17 6.5q-13 10 -17 22q-7 15 -7.5 31.5t-0.5 32.5q2 23 5 45.5t7 44.5q10 51 24 99.5t29 97.5q7 20 13.5 39.5t12.5 39.5q4 11 8 23t7 24q3 9 12 6.5
t7 -11.5q0 -4 -1 -6q-11 -35 -22.5 -68.5t-22.5 -68.5q-16 -49 -29 -97.5t-22 -99.5q-3 -11 -4.5 -22.5t-3.5 -22.5v-3v-1q0 -2 -0.5 -2.5t-0.5 -2.5q1 -2 0.5 -5t-0.5 -5q0 -5 -0.5 -9.5t-0.5 -9.5q1 -4 1 -8v-9q0 -2 0.5 -4t0.5 -4v-1q0 -1 0.5 -2t0.5 -2q2 -4 4 -12l1 -1
v-1l1 -2t3 -4q0 -1 1 -1q0 -1 1 -2t2 -1q0 -1 1 -1l2 -1q0 -1 2 -1q1 -1 3 -1q3 -1 8 -1q3 1 6.5 1.5t5.5 2.5q15 7 27 18q26 23 47 51t40 59q41 69 70 142.5t58 147.5q37 87 72 174q8 22 16.5 43t16.5 43q9 23 17.5 46.5t16.5 46.5q4 10 12 7zM325 727q10 0 10 -9.5
t-10 -9.5q-9 0 -9 9.5t9 9.5zM360 728q10 0 10 -10t-10 -10t-10 10t10 10z" />
    <glyph glyph-name="Yacute" unicode="&#xdd;" horiz-adv-x="479" 
d="M588 651q4 8 12.5 4t5.5 -12q-8 -23 -16.5 -46.5t-18.5 -46.5q-9 -23 -18.5 -45t-19.5 -44q-23 -60 -44 -119t-41 -119q-11 -34 -23 -67.5t-23 -68.5q-4 -14 -8 -26.5t-9 -26.5q-2 -8 -4 -12q-1 -3 -4 -13t-7.5 -22t-8.5 -24l-6 -18q-8 -23 -17 -45t-19 -44
q-7 -17 -15 -34t-19 -32q-7 -10 -18 -17.5t-22 3.5q-14 13 -13.5 31t7.5 34q10 23 24 43t30 39q12 14 25 27t27 25q8 22 14.5 43t14.5 43q18 57 37 113t39 113q5 16 10 29q-14 -24 -27.5 -47t-28.5 -46q-12 -19 -24.5 -37t-25.5 -37q-11 -16 -23 -31.5t-26 -29.5
q-26 -28 -56.5 -50.5t-66.5 -35.5q-23 -9 -49 -13t-51 1q-13 2 -25 8.5t-20 17.5q-20 24 -20.5 56t4.5 61q8 43 22.5 83.5t31.5 80.5q20 46 42 90t45 89q21 39 43.5 78t45.5 78q14 24 28.5 47.5t28.5 47.5q2 4 6 4.5t7 -1.5t4.5 -5.5t-0.5 -7.5q-4 -4 -5 -8
q-16 -27 -32 -53.5t-32 -53.5q-24 -40 -46.5 -80t-44.5 -81l-45 -90q-5 -11 -10 -22.5t-10 -22.5q-10 -20 -18 -43q-16 -39 -30 -83q-2 -10 -4.5 -19.5t-4.5 -19.5q-2 -5 -2.5 -9t-1.5 -9q0 -3 -1 -4v-3q0 -2 -0.5 -4t-0.5 -4q-1 -8 -1 -15.5v-15.5q0 -5 1 -8v-3v-1
q1 -5 3 -13q1 -2 1 -3t1 -3q0 -1 0.5 -1.5t0.5 -1.5v-1q2 -2 3 -5t3 -5q1 -1 1 -1.5t1 -1.5q1 -2 2 -2.5t2 -1.5q1 -2 2 -2.5t2 -1.5l1 -1q1 0 1 -0.5t1 -0.5q4 -4 10 -6h1l1 -1q2 0 3 -1q2 0 6 -2q2 0 3.5 -0.5t3.5 -0.5h3q1 0 2 -1h16q34 1 66 13.5t59 32.5
q32 22 57.5 50.5t46.5 59.5q26 38 50.5 75.5t47.5 77.5q21 38 40.5 76t36.5 76q17 47 35 92t38 91zM313 -110q5 11 8.5 21.5t8.5 21.5l-13.5 -13.5t-12.5 -13.5q-16 -19 -29 -39l-6 -10l-6 -10q-1 -2 -2 -4.5t-2 -5.5q-1 0 -1 -1t-1 -1q0 -2 -0.5 -2.5t-0.5 -2.5
q-2 -4 -3 -7.5t-1 -8.5l-1 -3v-4v-4v-1q1 -1 1 -4q1 0 1 -1q2 -4 2 -5q1 0 3 -2v-1q1 1 2 1v1q1 1 2 1.5t2 1.5l2 2q0 1 1 2t1.5 2t1.5 2q4 6 8 13q10 19 17 35q6 9 9 20q1 1 1 1.5t1 1.5v1q2 4 2 6q2 2 2.5 5t2.5 5zM491 737q4 2 8 0.5t5.5 -4.5t1 -7t-4.5 -6
q-11 -5 -21 -12.5t-21 -12.5q-5 -2 -8.5 -0.5t-5 4.5t-1 7t4.5 6q11 5 21 12.5t21 12.5z" />
    <glyph glyph-name="agrave" unicode="&#xe0;" horiz-adv-x="134" 
d="M133 196q3 3 7 2.5t6.5 -3.5t3 -6.5t-2.5 -6.5q-7 -6 -13 -12t-14 -12q-8 -7 -18.5 -12.5t-21.5 -7.5q-14 -2 -20.5 8t-7.5 22q0 10 1 14q-5 -3 -8 -8q-7 -6 -17 -12.5t-21 -0.5q-7 4 -9 11t-0.5 15t5 15.5t8.5 12.5q8 9 24 13.5t28 -1.5q2 4 5 7.5t6 7.5q5 7 12 1.5
t3 -12.5q-7 -14 -13 -29.5t-4 -31.5v-6q1 -1 1 -2v-1l2 -2q-1 1 0.5 -0.5t-0.5 -0.5h1h1h2h3q1 1 2 1t2 1h1l1 1l4 2l4 2q5 3 8.5 5.5t6.5 5.5q6 5 11.5 10t10.5 10zM51 210q-2 1 -4 1l-12 -3q-8 -4 -10 -7q-2 -2 -3.5 -4.5t-2.5 -5.5q-1 -2 -1.5 -4t-1.5 -4v-1v-1v-1v-1v-1
h1h1q1 1 2 1l3 3h1l2 2q3 1 4 4q5 3 8 8q6 6 9 10q1 1 1.5 2t2.5 2zM75 158v1v-1zM103 345q5 -6 -3.5 -10t-13.5 3q-11 14 -23 27.5t-23 27.5q-2 3 -0.5 5.5t4.5 4t7 1.5t6 -3q11 -15 23 -28.5t23 -27.5z" />
    <glyph glyph-name="aacute" unicode="&#xe1;" horiz-adv-x="134" 
d="M133 196q3 3 7 2.5t6.5 -3.5t3 -6.5t-2.5 -6.5q-7 -6 -13 -12t-14 -12q-8 -7 -18.5 -12.5t-21.5 -7.5q-14 -2 -20.5 8t-7.5 22q0 10 1 14q-5 -3 -8 -8q-7 -6 -17 -12.5t-21 -0.5q-7 4 -9 11t-0.5 15t5 15.5t8.5 12.5q8 9 24 13.5t28 -1.5q2 4 5 7.5t6 7.5q5 7 12 1.5
t3 -12.5q-7 -14 -13 -29.5t-4 -31.5v-6q1 -1 1 -2v-1l2 -2q-1 1 0.5 -0.5t-0.5 -0.5h1h1h2h3q1 1 2 1t2 1h1l1 1l4 2l4 2q5 3 8.5 5.5t6.5 5.5q6 5 11.5 10t10.5 10zM51 210q-2 1 -4 1l-12 -3q-8 -4 -10 -7q-2 -2 -3.5 -4.5t-2.5 -5.5q-1 -2 -1.5 -4t-1.5 -4v-1v-1v-1v-1v-1
h1h1q1 1 2 1l3 3h1l2 2q3 1 4 4q5 3 8 8q6 6 9 10q1 1 1.5 2t2.5 2zM75 158v1v-1zM78 396q4 2 8 0.5t5.5 -4.5t1 -7t-4.5 -6q-11 -5 -21 -12.5t-21 -12.5q-5 -2 -8.5 -0.5t-5 4.5t-1 7t4.5 6q11 5 21 12.5t21 12.5z" />
    <glyph glyph-name="acircumflex" unicode="&#xe2;" horiz-adv-x="134" 
d="M133 196q3 3 7 2.5t6.5 -3.5t3 -6.5t-2.5 -6.5q-7 -6 -13 -12t-14 -12q-8 -7 -18.5 -12.5t-21.5 -7.5q-14 -2 -20.5 8t-7.5 22q0 10 1 14q-5 -3 -8 -8q-7 -6 -17 -12.5t-21 -0.5q-7 4 -9 11t-0.5 15t5 15.5t8.5 12.5q8 9 24 13.5t28 -1.5q2 4 5 7.5t6 7.5q5 7 12 1.5
t3 -12.5q-7 -14 -13 -29.5t-4 -31.5v-6q1 -1 1 -2v-1l2 -2q-1 1 0.5 -0.5t-0.5 -0.5h1h1h2h3q1 1 2 1t2 1h1l1 1l4 2l4 2q5 3 8.5 5.5t6.5 5.5q6 5 11.5 10t10.5 10zM51 210q-2 1 -4 1l-12 -3q-8 -4 -10 -7q-2 -2 -3.5 -4.5t-2.5 -5.5q-1 -2 -1.5 -4t-1.5 -4v-1v-1v-1v-1v-1
h1h1q1 1 2 1l3 3h1l2 2q3 1 4 4q5 3 8 8q6 6 9 10q1 1 1.5 2t2.5 2zM75 158v1v-1zM102 342q3 -3 1.5 -7t-4.5 -6q-7 -4 -13 3q-3 4 -5.5 7.5t-5.5 7.5q-2 2 -3.5 4t-3.5 4q-1 0 -1 -1q-2 -2 -4 -3.5t-4 -3.5q-4 -4 -8 -7.5t-9 -8.5q-3 -3 -7 -2.5t-6.5 3.5t-3 6.5t2.5 6.5
l12 10t11 11q5 5 9.5 8t12.5 0q5 -2 9 -6t8 -9q3 -5 6 -8.5t6 -8.5z" />
    <glyph glyph-name="atilde" unicode="&#xe3;" horiz-adv-x="134" 
d="M133 196q3 3 7 2.5t6.5 -3.5t3 -6.5t-2.5 -6.5q-7 -6 -13 -12t-14 -12q-8 -7 -18.5 -12.5t-21.5 -7.5q-14 -2 -20.5 8t-7.5 22q0 10 1 14q-5 -3 -8 -8q-7 -6 -17 -12.5t-21 -0.5q-7 4 -9 11t-0.5 15t5 15.5t8.5 12.5q8 9 24 13.5t28 -1.5q2 4 5 7.5t6 7.5q5 7 12 1.5
t3 -12.5q-7 -14 -13 -29.5t-4 -31.5v-6q1 -1 1 -2v-1l2 -2q-1 1 0.5 -0.5t-0.5 -0.5h1h1h2h3q1 1 2 1t2 1h1l1 1l4 2l4 2q5 3 8.5 5.5t6.5 5.5q6 5 11.5 10t10.5 10zM51 210q-2 1 -4 1l-12 -3q-8 -4 -10 -7q-2 -2 -3.5 -4.5t-2.5 -5.5q-1 -2 -1.5 -4t-1.5 -4v-1v-1v-1v-1v-1
h1h1q1 1 2 1l3 3h1l2 2q3 1 4 4q5 3 8 8q6 6 9 10q1 1 1.5 2t2.5 2zM75 158v1v-1zM90 356q2 4 6 4.5t7 -1.5t4.5 -5.5t-0.5 -7.5q-4 -8 -10.5 -12.5t-15.5 -2.5q-8 0 -14.5 3t-12.5 7q0 1 -1.5 1.5t-0.5 0.5q-2 0 -2.5 0.5t-1.5 0.5q-4 1 -9 1h-1h-2h-1v-1h-1v-2v-2
q1 -5 -2 -7.5t-7 -2.5q-10 0 -10 10q-2 17 14 23q5 2 11.5 2t12.5 -2t11 -5t11 -6q5 -2 8.5 -2t6.5 6zM34 344v-1v1z" />
    <glyph glyph-name="adieresis" unicode="&#xe4;" horiz-adv-x="134" 
d="M133 196q3 3 7 2.5t6.5 -3.5t3 -6.5t-2.5 -6.5q-7 -6 -13 -12t-14 -12q-8 -7 -18.5 -12.5t-21.5 -7.5q-14 -2 -20.5 8t-7.5 22q0 10 1 14q-5 -3 -8 -8q-7 -6 -17 -12.5t-21 -0.5q-7 4 -9 11t-0.5 15t5 15.5t8.5 12.5q8 9 24 13.5t28 -1.5q2 4 5 7.5t6 7.5q5 7 12 1.5
t3 -12.5q-7 -14 -13 -29.5t-4 -31.5v-6q1 -1 1 -2v-1l2 -2q-1 1 0.5 -0.5t-0.5 -0.5h1h1h2h3q1 1 2 1t2 1h1l1 1l4 2l4 2q5 3 8.5 5.5t6.5 5.5q6 5 11.5 10t10.5 10zM51 210q-2 1 -4 1l-12 -3q-8 -4 -10 -7q-2 -2 -3.5 -4.5t-2.5 -5.5q-1 -2 -1.5 -4t-1.5 -4v-1v-1v-1v-1v-1
h1h1q1 1 2 1l3 3h1l2 2q3 1 4 4q5 3 8 8q6 6 9 10q1 1 1.5 2t2.5 2zM75 158v1v-1zM41 333q10 0 10 -9.5t-10 -9.5q-9 0 -9 9.5t9 9.5zM76 334q10 0 10 -10t-10 -10t-10 10t10 10z" />
    <glyph glyph-name="aring" unicode="&#xe5;" horiz-adv-x="134" 
d="M133 196q3 3 7 2.5t6.5 -3.5t3 -6.5t-2.5 -6.5q-7 -6 -13 -12t-14 -12q-8 -7 -18.5 -12.5t-21.5 -7.5q-14 -2 -20.5 8t-7.5 22q0 10 1 14q-5 -3 -8 -8q-7 -6 -17 -12.5t-21 -0.5q-7 4 -9 11t-0.5 15t5 15.5t8.5 12.5q8 9 24 13.5t28 -1.5q2 4 5 7.5t6 7.5q5 7 12 1.5
t3 -12.5q-7 -14 -13 -29.5t-4 -31.5v-6q1 -1 1 -2v-1l2 -2q-1 1 0.5 -0.5t-0.5 -0.5h1h1h2h3q1 1 2 1t2 1h1l1 1l4 2l4 2q5 3 8.5 5.5t6.5 5.5q6 5 11.5 10t10.5 10zM51 210q-2 1 -4 1l-12 -3q-8 -4 -10 -7q-2 -2 -3.5 -4.5t-2.5 -5.5q-1 -2 -1.5 -4t-1.5 -4v-1v-1v-1v-1v-1
h1h1q1 1 2 1l3 3h1l2 2q3 1 4 4q5 3 8 8q6 6 9 10q1 1 1.5 2t2.5 2zM75 158v1v-1zM81 332q5 -9 3 -20t-13 -16q-8 -3 -18 -1.5t-16 7.5q-8 7 -6 15t7 16q-2 5 0.5 9t8.5 4q9 0 19 -2.5t15 -11.5zM63 314q2 2 2 5t-2 4q-4 2 -6 2l-4 -4t-2 -4l-1 -1q1 0 1 -0.5t1 -0.5
q4 0 6 -2h4q1 0 1 1z" />
    <glyph glyph-name="ae" unicode="&#xe6;" horiz-adv-x="226" 
d="M133 196q3 3 7 2.5t6.5 -3.5t3 -6.5t-2.5 -6.5q-7 -6 -13 -12t-14 -12q-8 -7 -18.5 -12.5t-21.5 -7.5q-14 -2 -20.5 8t-7.5 22q0 10 1 14q-5 -3 -8 -8q-7 -6 -17 -12.5t-21 -0.5q-7 4 -9 11t-0.5 15t5 15.5t8.5 12.5q8 9 24 13.5t28 -1.5q2 4 5 7.5t6 7.5q5 7 12 1.5
t3 -12.5q-7 -14 -13 -29.5t-4 -31.5v-6q1 -1 1 -2v-1l2 -2q-1 1 0.5 -0.5t-0.5 -0.5h1h1h2h3q1 1 2 1t2 1h1l1 1l4 2l4 2q5 3 8.5 5.5t6.5 5.5q6 5 11.5 10t10.5 10zM51 210q-2 1 -4 1l-12 -3q-8 -4 -10 -7q-2 -2 -3.5 -4.5t-2.5 -5.5q-1 -2 -1.5 -4t-1.5 -4v-1v-1v-1v-1v-1
h1h1q1 1 2 1l3 3h1l2 2q3 1 4 4q5 3 8 8q6 6 9 10q1 1 1.5 2t2.5 2zM75 158v1v-1zM240 193q4 -7 -4 -13q-5 -4 -9.5 -7.5t-9.5 -7.5l-10 -6l-10 -6q-7 -4 -14.5 -7t-15.5 -5t-17 -2t-16 5q-8 6 -9.5 14t0.5 17q2 8 5 14.5t7 14.5q4 7 8.5 14t10.5 12q7 7 16 11t18 1
q11 -3 14.5 -12.5t-1.5 -18.5q-8 -14 -24 -19t-30 -8q-2 -4 -4 -12t-1 -10l1 -1v-1h1q0 -1 1 -1t2 -1q4 0 7 0.5t7 1.5q14 4 28 12q5 3 9.5 6t9.5 6t8.5 6.5t7.5 6.5q9 5 14 -4zM186 223q-5 3 -12 -2.5t-10 -9.5q-1 -2 -3 -4q3 1 6.5 1.5t6.5 2.5q6 3 11 8l2 3z" />
    <glyph glyph-name="ccedilla" unicode="&#xe7;" horiz-adv-x="96" 
d="M97 196q7 6 13.5 -0.5t-0.5 -13.5l-20 -18t-21 -17q-11 -9 -25 -17.5t-28 -10.5q-7 -1 -14.5 0.5t-12.5 7.5q-12 16 -5 38q3 11 8.5 20.5t12.5 18.5q7 8 14.5 16t17.5 13l10 4t11 1q5 0 10 -2t7 -7q4 -9 0 -17t-10 -15q-3 -3 -6.5 -2.5t-6.5 3t-3.5 6.5t2.5 7q5 5 6 8
q-3 0 -4 -1q-9 -2 -16 -8.5t-13 -12.5q-6 -8 -11 -16t-8 -17q-4 -7 -4 -17q1 -1 1 -3l1 -2q0 -1 1 -2v-1h2q0 -1 1 -1h2q2 0 4 0.5t5 1.5q8 2 20 9q17 10 31 22t28 25zM67 72q2 -9 -2 -15.5t-11 -11.5t-15.5 -8.5t-14.5 -5.5q-8 -3 -12 7q-2 9 7 12q14 5 24 11q1 1 2 1.5
t2 2.5l1 1v1q0 1 -1 2h-1h-1h-3h-8q-4 0 -8 0.5t-7 4.5q-6 7 -2.5 15.5t5.5 15.5q1 4 4.5 5.5t7 1t5.5 -4t1 -7.5l-3 -12q12 2 18 -2q10 -3 12 -14z" />
    <glyph glyph-name="egrave" unicode="&#xe8;" horiz-adv-x="92" 
d="M106 193q4 -7 -4 -13q-5 -4 -9.5 -7.5t-9.5 -7.5l-10 -6l-10 -6q-7 -4 -14.5 -7t-15.5 -5t-17 -2t-16 5q-8 6 -9.5 14t0.5 17q2 8 5 14.5t7 14.5q4 7 8.5 14t10.5 12q7 7 16 11t18 1q11 -3 14.5 -12.5t-1.5 -18.5q-8 -14 -24 -19t-30 -8q-2 -4 -4 -12t-1 -10l1 -1v-1h1
q0 -1 1 -1t2 -1q4 0 7 0.5t7 1.5q14 4 28 12q5 3 9.5 6t9.5 6t8.5 6.5t7.5 6.5q9 5 14 -4zM52 223q-5 3 -12 -2.5t-10 -9.5q-1 -2 -3 -4q3 1 6.5 1.5t6.5 2.5q6 3 11 8l2 3zM76 297q5 -6 -3.5 -10t-13.5 3q-11 14 -23 27.5t-23 27.5q-2 3 -0.5 5.5t4.5 4t7 1.5t6 -3
q11 -15 23 -28.5t23 -27.5z" />
    <glyph glyph-name="eacute" unicode="&#xe9;" horiz-adv-x="92" 
d="M106 193q4 -7 -4 -13q-5 -4 -9.5 -7.5t-9.5 -7.5l-10 -6l-10 -6q-7 -4 -14.5 -7t-15.5 -5t-17 -2t-16 5q-8 6 -9.5 14t0.5 17q2 8 5 14.5t7 14.5q4 7 8.5 14t10.5 12q7 7 16 11t18 1q11 -3 14.5 -12.5t-1.5 -18.5q-8 -14 -24 -19t-30 -8q-2 -4 -4 -12t-1 -10l1 -1v-1h1
q0 -1 1 -1t2 -1q4 0 7 0.5t7 1.5q14 4 28 12q5 3 9.5 6t9.5 6t8.5 6.5t7.5 6.5q9 5 14 -4zM52 223q-5 3 -12 -2.5t-10 -9.5q-1 -2 -3 -4q3 1 6.5 1.5t6.5 2.5q6 3 11 8l2 3zM64 329q4 2 8 0.5t5.5 -4.5t1 -7t-4.5 -6q-11 -5 -21 -12.5t-21 -12.5q-5 -2 -8.5 -0.5t-5 4.5
t-1 7t4.5 6q11 5 21 12.5t21 12.5z" />
    <glyph glyph-name="ecircumflex" unicode="&#xea;" horiz-adv-x="92" 
d="M106 193q4 -7 -4 -13q-5 -4 -9.5 -7.5t-9.5 -7.5l-10 -6l-10 -6q-7 -4 -14.5 -7t-15.5 -5t-17 -2t-16 5q-8 6 -9.5 14t0.5 17q2 8 5 14.5t7 14.5q4 7 8.5 14t10.5 12q7 7 16 11t18 1q11 -3 14.5 -12.5t-1.5 -18.5q-8 -14 -24 -19t-30 -8q-2 -4 -4 -12t-1 -10l1 -1v-1h1
q0 -1 1 -1t2 -1q4 0 7 0.5t7 1.5q14 4 28 12q5 3 9.5 6t9.5 6t8.5 6.5t7.5 6.5q9 5 14 -4zM52 223q-5 3 -12 -2.5t-10 -9.5q-1 -2 -3 -4q3 1 6.5 1.5t6.5 2.5q6 3 11 8l2 3zM82 321q3 -3 1.5 -7t-4.5 -6q-7 -4 -13 3q-3 4 -5.5 7.5t-5.5 7.5q-2 2 -3.5 4t-3.5 4q-1 0 -1 -1
q-2 -2 -4 -3.5t-4 -3.5q-4 -4 -8 -7.5t-9 -8.5q-3 -3 -7 -2.5t-6.5 3.5t-3 6.5t2.5 6.5l12 10t11 11q5 5 9.5 8t12.5 0q5 -2 9 -6t8 -9q3 -5 6 -8.5t6 -8.5z" />
    <glyph glyph-name="edieresis" unicode="&#xeb;" horiz-adv-x="92" 
d="M106 193q4 -7 -4 -13q-5 -4 -9.5 -7.5t-9.5 -7.5l-10 -6l-10 -6q-7 -4 -14.5 -7t-15.5 -5t-17 -2t-16 5q-8 6 -9.5 14t0.5 17q2 8 5 14.5t7 14.5q4 7 8.5 14t10.5 12q7 7 16 11t18 1q11 -3 14.5 -12.5t-1.5 -18.5q-8 -14 -24 -19t-30 -8q-2 -4 -4 -12t-1 -10l1 -1v-1h1
q0 -1 1 -1t2 -1q4 0 7 0.5t7 1.5q14 4 28 12q5 3 9.5 6t9.5 6t8.5 6.5t7.5 6.5q9 5 14 -4zM52 223q-5 3 -12 -2.5t-10 -9.5q-1 -2 -3 -4q3 1 6.5 1.5t6.5 2.5q6 3 11 8l2 3zM28 316q10 0 10 -9.5t-10 -9.5q-9 0 -9 9.5t9 9.5zM63 317q10 0 10 -10t-10 -10t-10 10t10 10z" />
    <glyph glyph-name="igrave" unicode="&#xec;" horiz-adv-x="83" 
d="M82 195q7 7 14 0t0 -14q-11 -9 -21.5 -17.5t-22.5 -15.5q-5 -3 -11 -6.5t-12 -5.5q-5 -2 -11 -3t-12 2q-14 8 -12.5 24t4.5 28q2 7 4 13.5t4 12.5t4.5 12t3.5 13q2 9 12 7q7 -3 7 -12q-2 -11 -6.5 -21.5t-7.5 -21.5q-2 -7 -3 -13l-2 -12q-1 -3 -1 -9q0 -1 0.5 -1t0.5 -1
t1 -2h1q2 0 2.5 0.5t1.5 0.5l4 2l4 2q5 3 10 5.5t10 6.5q9 5 17.5 11.5t16.5 14.5zM75 325q5 -6 -3.5 -10t-13.5 3q-11 14 -23 27.5t-23 27.5q-2 3 -0.5 5.5t4.5 4t7 1.5t6 -3q11 -15 23 -28.5t23 -27.5z" />
    <glyph glyph-name="iacute" unicode="&#xed;" horiz-adv-x="83" 
d="M82 195q7 7 14 0t0 -14q-11 -9 -21.5 -17.5t-22.5 -15.5q-5 -3 -11 -6.5t-12 -5.5q-5 -2 -11 -3t-12 2q-14 8 -12.5 24t4.5 28q2 7 4 13.5t4 12.5t4.5 12t3.5 13q2 9 12 7q7 -3 7 -12q-2 -11 -6.5 -21.5t-7.5 -21.5q-2 -7 -3 -13l-2 -12q-1 -3 -1 -9q0 -1 0.5 -1t0.5 -1
t1 -2h1q2 0 2.5 0.5t1.5 0.5l4 2l4 2q5 3 10 5.5t10 6.5q9 5 17.5 11.5t16.5 14.5zM70 362q4 2 8 0.5t5.5 -4.5t1 -7t-4.5 -6q-11 -5 -21 -12.5t-21 -12.5q-5 -2 -8.5 -0.5t-5 4.5t-1 7t4.5 6q11 5 21 12.5t21 12.5z" />
    <glyph glyph-name="icircumflex" unicode="&#xee;" horiz-adv-x="83" 
d="M82 195q7 7 14 0t0 -14q-11 -9 -21.5 -17.5t-22.5 -15.5q-5 -3 -11 -6.5t-12 -5.5q-5 -2 -11 -3t-12 2q-14 8 -12.5 24t4.5 28q2 7 4 13.5t4 12.5t4.5 12t3.5 13q2 9 12 7q7 -3 7 -12q-2 -11 -6.5 -21.5t-7.5 -21.5q-2 -7 -3 -13l-2 -12q-1 -3 -1 -9q0 -1 0.5 -1t0.5 -1
t1 -2h1q2 0 2.5 0.5t1.5 0.5l4 2l4 2q5 3 10 5.5t10 6.5q9 5 17.5 11.5t16.5 14.5zM80 341q3 -3 1.5 -7t-4.5 -6q-7 -4 -13 3q-3 4 -5.5 7.5t-5.5 7.5q-2 2 -3.5 4t-3.5 4q-1 0 -1 -1q-2 -2 -4 -3.5t-4 -3.5q-4 -4 -8 -7.5t-9 -8.5q-3 -3 -7 -2.5t-6.5 3.5t-3 6.5t2.5 6.5
l12 10t11 11q5 5 9.5 8t12.5 0q5 -2 9 -6t8 -9q3 -5 6 -8.5t6 -8.5z" />
    <glyph glyph-name="idieresis" unicode="&#xef;" horiz-adv-x="83" 
d="M82 195q7 7 14 0t0 -14q-11 -9 -21.5 -17.5t-22.5 -15.5q-5 -3 -11 -6.5t-12 -5.5q-5 -2 -11 -3t-12 2q-14 8 -12.5 24t4.5 28q2 7 4 13.5t4 12.5t4.5 12t3.5 13q2 9 12 7q7 -3 7 -12q-2 -11 -6.5 -21.5t-7.5 -21.5q-2 -7 -3 -13l-2 -12q-1 -3 -1 -9q0 -1 0.5 -1t0.5 -1
t1 -2h1q2 0 2.5 0.5t1.5 0.5l4 2l4 2q5 3 10 5.5t10 6.5q9 5 17.5 11.5t16.5 14.5zM26 323q10 0 10 -9.5t-10 -9.5q-9 0 -9 9.5t9 9.5zM61 324q10 0 10 -10t-10 -10t-10 10t10 10z" />
    <glyph glyph-name="ntilde" unicode="&#xf1;" horiz-adv-x="114" 
d="M127 193q4 -7 -3 -13q-14 -11 -26.5 -24.5t-31.5 -18.5q-5 -2 -8.5 1t-3.5 8q0 10 2 19.5t5 18.5q2 6 3.5 12t3.5 12q2 5 4 11.5t2 11.5q-2 0 -3 -1l-2 -2l-2 -1q-2 -2 -4 -3.5t-4 -3.5q-5 -5 -8.5 -9t-7.5 -9q-11 -12 -18.5 -26.5t-17.5 -27.5q-5 -6 -12.5 -3.5
t-5.5 11.5q5 17 9 34.5t11 34.5q4 10 12 7q3 -1 6 -4.5t1 -7.5q-2 -3 -2.5 -5.5t-2.5 -5.5q2 2 4.5 5t4.5 5q5 5 9.5 10t9.5 10q5 4 10 7.5t12 4.5q7 2 12.5 -1.5t7.5 -11.5q1 -13 -4 -29q-2 -6 -3.5 -12t-3.5 -11q-2 -6 -3.5 -12t-3.5 -12q4 2 7 5l6 6q7 6 13 12.5t13 11.5
q3 2 7 0.5t6 -4.5zM94 337q2 4 6 4.5t7 -1.5t4.5 -5.5t-0.5 -7.5q-4 -8 -10.5 -12.5t-15.5 -2.5q-8 0 -14.5 3t-12.5 7q0 1 -1.5 1.5t-0.5 0.5q-2 0 -2.5 0.5t-1.5 0.5q-4 1 -9 1h-1h-2h-1v-1h-1v-2v-2q1 -5 -2 -7.5t-7 -2.5q-10 0 -10 10q-2 17 14 23q5 2 11.5 2t12.5 -2
t11 -5t11 -6q5 -2 8.5 -2t6.5 6zM38 325v-1v1z" />
    <glyph glyph-name="ograve" unicode="&#xf2;" horiz-adv-x="111" 
d="M123 191q2 -9 -7 -12t-19.5 -6t-21.5 -4h-6q-1 -2 -1 -2.5t-1 -2.5q-5 -8 -10.5 -15t-11.5 -14q-6 -5 -13.5 -9.5t-15.5 -6.5q-11 -2 -19 3t-11 16t-0.5 21.5t6.5 20.5q10 23 23 39q6 8 14 15t19 9q10 0 12 -7q2 -10 -7 -12q-8 -1 -12.5 -6t-9.5 -10q-5 -6 -9.5 -13
t-8.5 -14q-3 -7 -5.5 -14.5t-3.5 -15.5q0 -2 0.5 -5.5t2.5 -5.5l2 -2h1h2q12 2 21 12.5t15 20.5l2 3q-11 4 -12 15q-2 10 5.5 17t15.5 6h3q4 -2 7 -4q3 -1 4 -4q0 -1 1 -1q2 -6 2 -8v-5v-1h2q16 3 33 9q9 2 12 -7zM102 316q5 -6 -3.5 -10t-13.5 3q-11 14 -23 27.5t-23 27.5
q-2 3 -0.5 5.5t4.5 4t7 1.5t6 -3q11 -15 23 -28.5t23 -27.5z" />
    <glyph glyph-name="oacute" unicode="&#xf3;" horiz-adv-x="111" 
d="M123 191q2 -9 -7 -12t-19.5 -6t-21.5 -4h-6q-1 -2 -1 -2.5t-1 -2.5q-5 -8 -10.5 -15t-11.5 -14q-6 -5 -13.5 -9.5t-15.5 -6.5q-11 -2 -19 3t-11 16t-0.5 21.5t6.5 20.5q10 23 23 39q6 8 14 15t19 9q10 0 12 -7q2 -10 -7 -12q-8 -1 -12.5 -6t-9.5 -10q-5 -6 -9.5 -13
t-8.5 -14q-3 -7 -5.5 -14.5t-3.5 -15.5q0 -2 0.5 -5.5t2.5 -5.5l2 -2h1h2q12 2 21 12.5t15 20.5l2 3q-11 4 -12 15q-2 10 5.5 17t15.5 6h3q4 -2 7 -4q3 -1 4 -4q0 -1 1 -1q2 -6 2 -8v-5v-1h2q16 3 33 9q9 2 12 -7zM80 344q4 2 8 0.5t5.5 -4.5t1 -7t-4.5 -6q-11 -5 -21 -12.5
t-21 -12.5q-5 -2 -8.5 -0.5t-5 4.5t-1 7t4.5 6q11 5 21 12.5t21 12.5z" />
    <glyph glyph-name="ocircumflex" unicode="&#xf4;" horiz-adv-x="111" 
d="M123 191q2 -9 -7 -12t-19.5 -6t-21.5 -4h-6q-1 -2 -1 -2.5t-1 -2.5q-5 -8 -10.5 -15t-11.5 -14q-6 -5 -13.5 -9.5t-15.5 -6.5q-11 -2 -19 3t-11 16t-0.5 21.5t6.5 20.5q10 23 23 39q6 8 14 15t19 9q10 0 12 -7q2 -10 -7 -12q-8 -1 -12.5 -6t-9.5 -10q-5 -6 -9.5 -13
t-8.5 -14q-3 -7 -5.5 -14.5t-3.5 -15.5q0 -2 0.5 -5.5t2.5 -5.5l2 -2h1h2q12 2 21 12.5t15 20.5l2 3q-11 4 -12 15q-2 10 5.5 17t15.5 6h3q4 -2 7 -4q3 -1 4 -4q0 -1 1 -1q2 -6 2 -8v-5v-1h2q16 3 33 9q9 2 12 -7zM105 331q3 -3 1.5 -7t-4.5 -6q-7 -4 -13 3q-3 4 -5.5 7.5
t-5.5 7.5q-2 2 -3.5 4t-3.5 4q-1 0 -1 -1q-2 -2 -4 -3.5t-4 -3.5q-4 -4 -8 -7.5t-9 -8.5q-3 -3 -7 -2.5t-6.5 3.5t-3 6.5t2.5 6.5l12 10t11 11q5 5 9.5 8t12.5 0q5 -2 9 -6t8 -9q3 -5 6 -8.5t6 -8.5z" />
    <glyph glyph-name="otilde" unicode="&#xf5;" horiz-adv-x="111" 
d="M123 191q2 -9 -7 -12t-19.5 -6t-21.5 -4h-6q-1 -2 -1 -2.5t-1 -2.5q-5 -8 -10.5 -15t-11.5 -14q-6 -5 -13.5 -9.5t-15.5 -6.5q-11 -2 -19 3t-11 16t-0.5 21.5t6.5 20.5q10 23 23 39q6 8 14 15t19 9q10 0 12 -7q2 -10 -7 -12q-8 -1 -12.5 -6t-9.5 -10q-5 -6 -9.5 -13
t-8.5 -14q-3 -7 -5.5 -14.5t-3.5 -15.5q0 -2 0.5 -5.5t2.5 -5.5l2 -2h1h2q12 2 21 12.5t15 20.5l2 3q-11 4 -12 15q-2 10 5.5 17t15.5 6h3q4 -2 7 -4q3 -1 4 -4q0 -1 1 -1q2 -6 2 -8v-5v-1h2q16 3 33 9q9 2 12 -7zM93 346q2 4 6 4.5t7 -1.5t4.5 -5.5t-0.5 -7.5
q-4 -8 -10.5 -12.5t-15.5 -2.5q-8 0 -14.5 3t-12.5 7q0 1 -1.5 1.5t-0.5 0.5q-2 0 -2.5 0.5t-1.5 0.5q-4 1 -9 1h-1h-2h-1v-1h-1v-2v-2q1 -5 -2 -7.5t-7 -2.5q-10 0 -10 10q-2 17 14 23q5 2 11.5 2t12.5 -2t11 -5t11 -6q5 -2 8.5 -2t6.5 6zM37 334v-1v1z" />
    <glyph glyph-name="odieresis" unicode="&#xf6;" horiz-adv-x="111" 
d="M123 191q2 -9 -7 -12t-19.5 -6t-21.5 -4h-6q-1 -2 -1 -2.5t-1 -2.5q-5 -8 -10.5 -15t-11.5 -14q-6 -5 -13.5 -9.5t-15.5 -6.5q-11 -2 -19 3t-11 16t-0.5 21.5t6.5 20.5q10 23 23 39q6 8 14 15t19 9q10 0 12 -7q2 -10 -7 -12q-8 -1 -12.5 -6t-9.5 -10q-5 -6 -9.5 -13
t-8.5 -14q-3 -7 -5.5 -14.5t-3.5 -15.5q0 -2 0.5 -5.5t2.5 -5.5l2 -2h1h2q12 2 21 12.5t15 20.5l2 3q-11 4 -12 15q-2 10 5.5 17t15.5 6h3q4 -2 7 -4q3 -1 4 -4q0 -1 1 -1q2 -6 2 -8v-5v-1h2q16 3 33 9q9 2 12 -7zM45 330q10 0 10 -9.5t-10 -9.5q-9 0 -9 9.5t9 9.5zM80 331
q10 0 10 -10t-10 -10t-10 10t10 10z" />
    <glyph glyph-name="oslash" unicode="&#xf8;" horiz-adv-x="111" 
d="M123 191q2 -9 -7 -12t-19.5 -6t-21.5 -4h-6q-1 -2 -1 -2.5t-1 -2.5q-5 -8 -10.5 -15t-11.5 -14q-6 -5 -13.5 -9.5t-15.5 -6.5q-11 -2 -19 3t-11 16t-0.5 21.5t6.5 20.5q10 23 23 39q6 8 14 15t19 9q10 0 12 -7q2 -10 -7 -12q-8 -1 -12.5 -6t-9.5 -10q-5 -6 -9.5 -13
t-8.5 -14q-3 -7 -5.5 -14.5t-3.5 -15.5q0 -2 0.5 -5.5t2.5 -5.5l2 -2h1h2q12 2 21 12.5t15 20.5l2 3q-11 4 -12 15q-2 10 5.5 17t15.5 6h3q4 -2 7 -4q3 -1 4 -4q0 -1 1 -1q2 -6 2 -8v-5v-1h2q16 3 33 9q9 2 12 -7zM272 706q2 5 6 6t7.5 -1.5t5 -7t-0.5 -9.5
q-28 -63 -59 -130q-48 -101 -98 -198.5t-101 -196.5t-100 -197t-94 -201q-2 -5 -6 -6t-7 1.5t-4.5 7t0.5 9.5q14 33 29 65.5t30 64.5q48 101 98.5 199t101.5 197q51 98 99 196t93 201z" />
    <glyph glyph-name="ugrave" unicode="&#xf9;" horiz-adv-x="117" 
d="M115 195q6 7 13 0.5t1 -13.5q-8 -9 -15.5 -17t-17.5 -15q-8 -5 -19 -8t-21 2q-7 3 -9 10q-2 -2 -4 -3t-4 -3q-7 -5 -17 -12t-20 -3q-13 5 -12 17.5t4 23.5q4 14 8 28.5t9 28.5q3 9 12 7q10 -4 7 -12q-5 -13 -8.5 -25.5t-7.5 -26.5q-1 -4 -2 -7.5t-2 -7.5v-7l1 1
q1 0 2.5 1t3.5 2l6 4l6 4q8 6 14.5 13.5t10.5 16.5q1 1 1 3q3 9 12 7q10 -4 7 -12q0 -2 -2 -6t-3 -7.5t-3 -8.5q0 -3 -1 -4v-2v-3h1q-1 0 1 -1q2 0 3 1q5 0 7 1q5 2 13 8q13 12 25 25zM65 161l1 -1zM94 325q5 -6 -3.5 -10t-13.5 3q-11 14 -23 27.5t-23 27.5q-2 3 -0.5 5.5
t4.5 4t7 1.5t6 -3q11 -15 23 -28.5t23 -27.5z" />
    <glyph glyph-name="uacute" unicode="&#xfa;" horiz-adv-x="117" 
d="M115 195q6 7 13 0.5t1 -13.5q-8 -9 -15.5 -17t-17.5 -15q-8 -5 -19 -8t-21 2q-7 3 -9 10q-2 -2 -4 -3t-4 -3q-7 -5 -17 -12t-20 -3q-13 5 -12 17.5t4 23.5q4 14 8 28.5t9 28.5q3 9 12 7q10 -4 7 -12q-5 -13 -8.5 -25.5t-7.5 -26.5q-1 -4 -2 -7.5t-2 -7.5v-7l1 1
q1 0 2.5 1t3.5 2l6 4l6 4q8 6 14.5 13.5t10.5 16.5q1 1 1 3q3 9 12 7q10 -4 7 -12q0 -2 -2 -6t-3 -7.5t-3 -8.5q0 -3 -1 -4v-2v-3h1q-1 0 1 -1q2 0 3 1q5 0 7 1q5 2 13 8q13 12 25 25zM65 161l1 -1zM78 361q4 2 8 0.5t5.5 -4.5t1 -7t-4.5 -6q-11 -5 -21 -12.5t-21 -12.5
q-5 -2 -8.5 -0.5t-5 4.5t-1 7t4.5 6q11 5 21 12.5t21 12.5z" />
    <glyph glyph-name="ucircumflex" unicode="&#xfb;" horiz-adv-x="117" 
d="M115 195q6 7 13 0.5t1 -13.5q-8 -9 -15.5 -17t-17.5 -15q-8 -5 -19 -8t-21 2q-7 3 -9 10q-2 -2 -4 -3t-4 -3q-7 -5 -17 -12t-20 -3q-13 5 -12 17.5t4 23.5q4 14 8 28.5t9 28.5q3 9 12 7q10 -4 7 -12q-5 -13 -8.5 -25.5t-7.5 -26.5q-1 -4 -2 -7.5t-2 -7.5v-7l1 1
q1 0 2.5 1t3.5 2l6 4l6 4q8 6 14.5 13.5t10.5 16.5q1 1 1 3q3 9 12 7q10 -4 7 -12q0 -2 -2 -6t-3 -7.5t-3 -8.5q0 -3 -1 -4v-2v-3h1q-1 0 1 -1q2 0 3 1q5 0 7 1q5 2 13 8q13 12 25 25zM65 161l1 -1zM98 333q3 -3 1.5 -7t-4.5 -6q-7 -4 -13 3q-3 4 -5.5 7.5t-5.5 7.5
q-2 2 -3.5 4t-3.5 4q-1 0 -1 -1q-2 -2 -4 -3.5t-4 -3.5q-4 -4 -8 -7.5t-9 -8.5q-3 -3 -7 -2.5t-6.5 3.5t-3 6.5t2.5 6.5l12 10t11 11q5 5 9.5 8t12.5 0q5 -2 9 -6t8 -9q3 -5 6 -8.5t6 -8.5z" />
    <glyph glyph-name="udieresis" unicode="&#xfc;" horiz-adv-x="117" 
d="M115 195q6 7 13 0.5t1 -13.5q-8 -9 -15.5 -17t-17.5 -15q-8 -5 -19 -8t-21 2q-7 3 -9 10q-2 -2 -4 -3t-4 -3q-7 -5 -17 -12t-20 -3q-13 5 -12 17.5t4 23.5q4 14 8 28.5t9 28.5q3 9 12 7q10 -4 7 -12q-5 -13 -8.5 -25.5t-7.5 -26.5q-1 -4 -2 -7.5t-2 -7.5v-7l1 1
q1 0 2.5 1t3.5 2l6 4l6 4q8 6 14.5 13.5t10.5 16.5q1 1 1 3q3 9 12 7q10 -4 7 -12q0 -2 -2 -6t-3 -7.5t-3 -8.5q0 -3 -1 -4v-2v-3h1q-1 0 1 -1q2 0 3 1q5 0 7 1q5 2 13 8q13 12 25 25zM65 161l1 -1zM41 335q10 0 10 -9.5t-10 -9.5q-9 0 -9 9.5t9 9.5zM76 336q10 0 10 -10
t-10 -10t-10 10t10 10z" />
    <glyph glyph-name="yacute" unicode="&#xfd;" horiz-adv-x="112" 
d="M125 195q5 -6 -4 -13q-4 -2 -7 -5t-6 -5q-37 -32 -72 -71q-13 -38 -27 -75.5t-28 -75.5q-5 -11 -9.5 -21.5t-9.5 -21.5q-5 -9 -11 -18t-15 -17q-8 -6 -20 -8t-20 3q-7 5 -8.5 13t0.5 16q1 8 3.5 16t5.5 16q5 11 10 21.5t11 21.5q11 21 25 40.5t29 39.5q11 14 22 27.5
t23 27.5q2 7 4.5 14t4.5 14q-9 -5 -18 -4q-14 3 -17 16q-3 11 0 22.5t7 21.5q2 6 4.5 12t5.5 12q1 2 2 5t2 5q1 1 1 3l1 2q4 9 12 6q4 -1 6.5 -4.5t0.5 -7.5q-3 -8 -7 -16t-7 -16q-2 -5 -3.5 -10.5t-3.5 -10.5q-2 -6 -2 -9q-1 -2 -1 -7v-1v-1q1 0 1 -1v-1q1 0 2 -1h1
q8 1 15 10.5t12 20.5h1q4 10 5 14q1 3 3.5 9.5t4.5 14.5l6 18q0 1 0.5 1t0.5 1q3 9 12.5 6.5t6.5 -11.5t-6.5 -18t-6.5 -18q-1 -4 -2 -7t-2 -7l-1 -1v-1q-2 -4 -2.5 -7.5t-2.5 -7.5v-1q-2 -6 -3 -8v-1q-1 -5 -5 -15q14 15 29.5 28.5t32.5 26.5q3 3 7.5 2.5t6.5 -3.5zM-13 21
q3 9 6.5 18.5t6.5 18.5q-7 -8 -13 -16.5t-13 -17.5q-14 -20 -26.5 -40t-22.5 -41q-5 -9 -8.5 -18.5t-6.5 -18.5q-2 -10 -2 -14q0 -7 2 -9q5 -4 12 1t11 11q13 19 20 38q9 22 17 44t17 44zM73 376q4 2 8 0.5t5.5 -4.5t1 -7t-4.5 -6q-11 -5 -21 -12.5t-21 -12.5
q-5 -2 -8.5 -0.5t-5 4.5t-1 7t4.5 6q11 5 21 12.5t21 12.5z" />
    <glyph glyph-name="ydieresis" unicode="&#xff;" horiz-adv-x="112" 
d="M125 195q5 -6 -4 -13q-4 -2 -7 -5t-6 -5q-37 -32 -72 -71q-13 -38 -27 -75.5t-28 -75.5q-5 -11 -9.5 -21.5t-9.5 -21.5q-5 -9 -11 -18t-15 -17q-8 -6 -20 -8t-20 3q-7 5 -8.5 13t0.5 16q1 8 3.5 16t5.5 16q5 11 10 21.5t11 21.5q11 21 25 40.5t29 39.5q11 14 22 27.5
t23 27.5q2 7 4.5 14t4.5 14q-9 -5 -18 -4q-14 3 -17 16q-3 11 0 22.5t7 21.5q2 6 4.5 12t5.5 12q1 2 2 5t2 5q1 1 1 3l1 2q4 9 12 6q4 -1 6.5 -4.5t0.5 -7.5q-3 -8 -7 -16t-7 -16q-2 -5 -3.5 -10.5t-3.5 -10.5q-2 -6 -2 -9q-1 -2 -1 -7v-1v-1q1 0 1 -1v-1q1 0 2 -1h1
q8 1 15 10.5t12 20.5h1q4 10 5 14q1 3 3.5 9.5t4.5 14.5l6 18q0 1 0.5 1t0.5 1q3 9 12.5 6.5t6.5 -11.5t-6.5 -18t-6.5 -18q-1 -4 -2 -7t-2 -7l-1 -1v-1q-2 -4 -2.5 -7.5t-2.5 -7.5v-1q-2 -6 -3 -8v-1q-1 -5 -5 -15q14 15 29.5 28.5t32.5 26.5q3 3 7.5 2.5t6.5 -3.5zM-13 21
q3 9 6.5 18.5t6.5 18.5q-7 -8 -13 -16.5t-13 -17.5q-14 -20 -26.5 -40t-22.5 -41q-5 -9 -8.5 -18.5t-6.5 -18.5q-2 -10 -2 -14q0 -7 2 -9q5 -4 12 1t11 11q13 19 20 38q9 22 17 44t17 44zM44 337q10 0 10 -9.5t-10 -9.5q-9 0 -9 9.5t9 9.5zM79 338q10 0 10 -10t-10 -10
t-10 10t10 10z" />
    <glyph glyph-name="Zcaron" unicode="&#x17d;" horiz-adv-x="302" 
d="M620 643q8 1 10 -7t-5 -11q-41 -19 -79 -42.5t-74 -50.5q-38 -28 -73 -58.5t-68 -62.5q-28 -26 -54.5 -52t-53.5 -53q-54 -53 -103.5 -110.5t-86.5 -123.5q-18 -33 -32 -67.5t-22 -71.5q-2 -12 -3.5 -24t-0.5 -25v-5v-1l1 -2q0 -2 2 -8q0 -3 1 -4q0 -1 1 -2l3 -6
q0 -1 1 -2l2 -2q1 -2 2 -2.5t2 -2.5h1l1 -1q1 0 1.5 -0.5t1.5 -0.5l2 -2h1q6 -2 7 -2t1.5 -0.5t1.5 -0.5h2q7 -2 15 0h8l2 1q3 0 5 1q10 2 17 4q5 2 9.5 3t9.5 3q2 1 4.5 2t5.5 2q1 0 1 0.5t1 0.5h1q2 2 4 2q40 18 76 41q8 5 16.5 10.5t16.5 11.5q3 2 6.5 5t7.5 5
q2 2 3.5 2.5t3.5 2.5q1 1 1.5 1t1.5 1l1 1q7 5 14 0q2 -2 2.5 -6.5t-2.5 -7.5q-42 -31 -83 -56q-19 -11 -38.5 -20t-39.5 -17q-17 -6 -35 -10.5t-35 -2.5q-8 2 -15.5 3.5t-13.5 6.5q-14 10 -20 27q-9 22 -6 47t8 47q19 77 60 144t92 126q24 28 49.5 54t51.5 52q28 27 55 54
t55 53q35 32 70 62t73 58q49 37 101 65q-54 -5 -109 -7.5t-109 -6.5q-95 -7 -187.5 -22t-182.5 -49q-8 -3 -12 7q-1 9 7 12q67 25 136.5 40t140.5 23q91 10 182.5 14t183.5 13zM351 729q-2 3 -1 7t4 6q7 4 14 -3q2 -4 4.5 -7.5t5.5 -7.5q4 -7 8 -9v1l8 8q5 4 8.5 7.5
t8.5 7.5q7 7 14 0t0 -14q-12 -9 -23 -20q-5 -5 -9.5 -8t-11.5 -1q-6 2 -10 6.5t-8 9.5l-6 8t-6 9z" />
    <glyph glyph-name="zcaron" unicode="&#x17e;" horiz-adv-x="121" 
d="M62 241q11 3 14.5 1.5t5.5 -5.5q1 -4 0 -11q0 -2 -3 -5q-11 -10 -23.5 -19t-24.5 -19q7 0 15 -3q16 -7 14 -25q-2 -15 -10 -29.5t-18 -27.5q-27 -38 -61 -66q-6 -5 -13 -10.5t-15 -10.5q-8 -4 -16.5 -7t-16.5 2q-11 7 -6.5 23.5t10.5 27.5q2 4 6 5.5t7 1t4.5 -4
t-0.5 -7.5l-6 -15q0 -2 -0.5 -3l-1.5 -3v-3v-2v-2v-1h1h1l2 1q1 0 5 2t7 4.5t7 4.5q34 24 62 60q5 7 9 13t9 13q4 6 7.5 13.5t5.5 12.5q2 4 2 7l-1 1v2v1l-1 1v1q0 1 -2 1l-3 1q-1 1 -4 1h-10q-5 0 -10.5 -0.5t-10.5 -1.5q-6 -1 -7.5 5.5t3.5 11.5q11 9 22.5 17.5t22.5 17.5
l3 1.5t3 2.5q-17 -5 -33.5 -10.5t-32.5 -12.5q-9 -3 -12 4q-2 3 0 7t5 6q22 9 44 16t45 14zM29 361q-2 3 -1 7t4 6q7 4 14 -3q2 -4 4.5 -7.5t5.5 -7.5q4 -7 8 -9v1l8 8q5 4 8.5 7.5t8.5 7.5q7 7 14 0t0 -14q-12 -9 -23 -20q-5 -5 -9.5 -8t-11.5 -1q-6 2 -10 6.5t-8 9.5l-6 8
t-6 9z" />
    <glyph glyph-name="circumflex" unicode="&#x2c6;" horiz-adv-x="185" 
d="M207 546q3 -3 1.5 -7t-4.5 -6q-7 -4 -13 3q-3 4 -5.5 7.5t-5.5 7.5q-2 2 -3.5 4t-3.5 4q-1 0 -1 -1q-2 -2 -4 -3.5t-4 -3.5q-4 -4 -8 -7.5t-9 -8.5q-3 -3 -7 -2.5t-6.5 3.5t-3 6.5t2.5 6.5l12 10t11 11q5 5 9.5 8t12.5 0q5 -2 9 -6t8 -9q3 -5 6 -8.5t6 -8.5z" />
    <glyph glyph-name="caron" unicode="&#x2c7;" horiz-adv-x="183" 
d="M144 523q-2 3 -1 7t4 6q7 4 14 -3q2 -4 4.5 -7.5t5.5 -7.5q4 -7 8 -9v1l8 8q5 4 8.5 7.5t8.5 7.5q7 7 14 0t0 -14q-12 -9 -23 -20q-5 -5 -9.5 -8t-11.5 -1q-6 2 -10 6.5t-8 9.5l-6 8t-6 9z" />
    <glyph glyph-name="breve" unicode="&#x2d8;" horiz-adv-x="173" 
d="M198 578q8 -5 3 -13q-5 -11 -14 -21t-23 -10t-24 10t-17 21q-2 4 -0.5 7.5t4.5 5.5t7 1.5t6 -4.5q7 -12 14 -17q5 -5 11 -4q3 0 5 1q2 2 2.5 2t2.5 2q5 7 10 16q2 4 6 4.5t7 -1.5z" />
    <glyph glyph-name="ring" unicode="&#x2da;" horiz-adv-x="161" 
d="M180 531q5 -9 3 -20t-13 -16q-8 -3 -18 -1.5t-16 7.5q-8 7 -6 15t7 16q-2 5 0.5 9t8.5 4q9 0 19 -2.5t15 -11.5zM162 513q2 2 2 5t-2 4q-4 2 -6 2l-4 -4t-2 -4l-1 -1q1 0 1 -0.5t1 -0.5q4 0 6 -2h4q1 0 1 1z" />
    <glyph glyph-name="tilde" unicode="&#x2dc;" horiz-adv-x="180" 
d="M213 571q2 4 6 4.5t7 -1.5t4.5 -5.5t-0.5 -7.5q-4 -8 -10.5 -12.5t-15.5 -2.5q-8 0 -14.5 3t-12.5 7q0 1 -1.5 1.5t-0.5 0.5q-2 0 -2.5 0.5t-1.5 0.5q-4 1 -9 1h-1h-2h-1v-1h-1v-2v-2q1 -5 -2 -7.5t-7 -2.5q-10 0 -10 10q-2 17 14 23q5 2 11.5 2t12.5 -2t11 -5t11 -6
q5 -2 8.5 -2t6.5 6zM157 559v-1v1z" />
    <glyph glyph-name="Euro" unicode="&#x20ac;" horiz-adv-x="453" 
d="M713 607q8 -20 4.5 -43t-10.5 -43q-11 -29 -26 -54.5t-33 -49.5q-6 -7 -13 -3q-4 2 -5 6t1 7q8 11 15.5 22t15.5 23q6 10 11.5 20.5t9.5 20.5q10 24 14 47v3v1q1 2 1 5v10v6l-1 3q0 5 -1 8q-1 1 -1 2t-1 3v1v1q-2 2 -2.5 3.5t-1.5 3.5q-1 0 -2 1.5t0 1.5l-2 2q-4 4 -6 5
q-1 0 -2 1t-1 2q-2 0 -4 2q-1 1 -2 1t-2 1h-1l-2 1t-5 1.5t-5 1.5q-2 0 -3 0.5t-2 0.5h-2h-2q-15 2 -29 0.5t-28 -4.5q-19 -4 -37.5 -9t-35.5 -13q-32 -14 -62 -33t-56 -42q-51 -45 -90 -101.5t-70 -117.5q-2 -5 -4.5 -10.5t-5.5 -11.5q51 8 102 14.5t103 11.5q4 1 7 -2
t3 -7q0 -10 -10 -10q-3 0 -4 -1q-53 -5 -105 -12t-105 -15q-8 -16 -14 -32.5t-12 -33.5q49 9 101 15q4 1 6.5 -2.5t2.5 -7.5q0 -9 -9 -9q-28 -4 -55 -8t-53 -9q-13 -39 -22 -80t-8 -83q1 -9 1.5 -18t2.5 -19q2 -8 4 -16.5t6 -16.5q14 -27 38 -37q12 -5 27 -7t29 -1
q18 0 36.5 2t36.5 4q4 1 7 -2.5t3 -6.5q0 -8 -10 -10q-23 -3 -45 -5.5t-45 -1.5q-19 2 -37 7t-32 17q-13 11 -21 25t-12 30q-5 19 -7 38t-1 39q2 35 9 69.5t18 68.5q-22 -5 -43.5 -10.5t-42.5 -13.5q-4 -2 -7.5 0.5t-4.5 6.5q-2 9 7 12q24 8 48.5 14.5t49.5 11.5l3 9
q5 14 10.5 29t11.5 29q-40 -6 -79 -12.5t-78 -13.5q-10 -2 -12 7q-4 10 6 12q2 0 4 0.5t4 0.5q42 7 82 13.5t82 13.5q37 85 92 161q42 58 96 105t122 73q17 8 35.5 13t37.5 9q14 3 29 4.5t30 -0.5q11 -2 21.5 -4.5t19.5 -9.5q17 -12 24 -31z" />
    <glyph glyph-name="t.1" horiz-adv-x="55" 
d="M575 352q-73 -7 -145 -14t-145 -14q-57 -5 -114 -10.5t-114 -11.5q-14 -38 -26.5 -76.5t-25.5 -76.5q-15 -48 -30.5 -94t-30.5 -93l-30 -94q-7 -23 -13.5 -46.5t-14.5 -46.5q-3 -9 -12.5 -6.5t-6.5 11.5q10 30 19 60.5t18 60.5t19 60l20 60q45 139 93 279l-149 -15
q-10 0 -10 10q0 8 10 10l156 15l27 75q4 10 12 7q9 -2 7 -12q-7 -17 -13 -34l-12 -34l213 21l296 29q2 0 7.5 -1t5.5 -9q0 -5 -3.5 -7t-5.5 -3h-2v0z" />
    <glyph glyph-name="o.1" horiz-adv-x="80" 
d="M65 203q1 -15 -6.5 -30.5t-18.5 -24.5q-6 -5 -14 -9t-16 -2t-13 8t-6 14q-2 17 7 33t21 27q9 5 14 0q3 -3 3 -7.5t-3 -6.5q-9 -8 -16 -18.5t-7 -22.5v-4t1 -3q2 -1 5 -1q4 0 8 3t6 6q7 8 11.5 17t3.5 20q-1 7 -5.5 15t-12.5 8q-10 1 -10 10.5t10 9.5q16 -1 26 -14.5
t12 -27.5z" />
    <glyph glyph-name="s.1" horiz-adv-x="64" 
d="M75 194q2 -3 0 -7t-6 -6q-8 -7 -17 -12.5t-17 -12.5q2 -14 0.5 -29.5t-15.5 -26.5q-14 -13 -32 -16q-8 -1 -13.5 3t-5.5 12q1 14 12 27.5t22 23.5q2 3 5 5.5t5 4.5q-2 6 -4 11.5t-4 11.5q-8 23 -7 44q1 8 3 16t7 14q8 10 19 10q7 0 11 -4q3 -2 4 -5.5t-2 -7.5
q-1 -1 -1.5 -1t-1.5 -1q-2 -2 -5.5 -3t-5.5 1q-1 0 -2 1q-1 -1 -1 -3q-1 -1 -1 -1.5t-1 -1.5q0 -2 -2 -8q0 -2 -0.5 -3t-0.5 -3q-1 -6 0 -12t3 -11t3 -8.5t2 -8.5q1 -2 1.5 -3.5t1.5 -3.5q0 -1 1 -3t1 -3q14 11 31 22q4 3 7.5 2t5.5 -4zM15 123q2 5 2 8.5v8.5l-9 -9t-8 -9
q-2 -2 -4 -5l-4 -6v-1q-1 -1 -1 -1.5t-1 -1.5v-1v-1l-1 -1h1h1h1l5 2q5 2 13 8l1 2l2 2q-1 -2 -1 -1t1 2z" />
    <glyph glyph-name="r.1" horiz-adv-x="65" 
d="M75 198q4 -1 6.5 -4.5t0.5 -7.5q-3 -7 -5.5 -13t-5.5 -13q-1 -1 -1 -2l-4 -9l-34 -67q-3 -5 -5.5 -10t-5.5 -10t-9 -10.5t-13 -2.5q-6 2 -9 10q-2 4 -2 7.5t1 8.5q4 27 12 53.5t16 53.5q-6 0 -10 1q-10 2 -15 8q0 1 -0.5 1t-0.5 1q-7 9 -5 23q0 11 11 15q13 2 19 -7
q5 -9 2 -23q4 0 7.5 -0.5t7.5 -0.5q7 -2 7 -10v-1l-1 -2q-1 -3 -2 -6.5t-2 -6.5h-1q-3 -13 -7 -25.5t-8 -26.5l-4 -16l-4 -16q0 -2 -0.5 -4t-0.5 -4q2 3 3 5.5t2 5.5q1 1 1.5 2t1.5 2l11 22l2 5l1 1l9 19q0 1 0.5 1t0.5 1l3 6l2 4l4 8l4 10q5 9 8 17t12 7zM5 208q0 6 -2 6
t0 -6l2 -6v6z" />
    <glyph glyph-name="l.1" horiz-adv-x="129" 
d="M187 739q3 9 12.5 6.5t6.5 -11.5q-4 -13 -7.5 -25.5t-7.5 -24.5q-29 -92 -62.5 -182t-64.5 -181q-16 -45 -30.5 -89t-28.5 -89q-14 -46 -26.5 -91.5t-21.5 -93.5q-3 -12 -5.5 -24.5t-4.5 -25.5q-1 -8 -2 -14.5t-1 -14.5q-2 -15 0 -27q0 -2 0.5 -3t0.5 -3q1 -1 1 -2v-1
l2 -2v-1l2 -2h1v-1h1h1h1h2q0 1 1 1l4 2l1 1l1 1q2 0 2 2q2 1 2.5 2t2.5 2q4 6 7 9q4 5 7.5 11t7.5 11q9 15 16.5 30.5t15.5 31.5q10 20 18.5 40.5t17.5 41.5q17 42 33.5 84t33.5 84q4 10 12 7q4 -1 6.5 -4.5t0.5 -7.5q-9 -21 -17.5 -42.5t-16.5 -42.5q-17 -43 -34 -84.5
t-36 -83.5q-8 -16 -15.5 -32t-17.5 -31q-7 -11 -14.5 -22.5t-18.5 -20.5q-5 -4 -10.5 -7t-12.5 -3t-12.5 4t-9.5 9q-7 12 -7.5 26.5t0.5 27.5q2 14 4.5 28.5t5.5 28.5q3 18 6.5 36.5t8.5 36.5q11 47 24 92t28 90l30 90t31 90q32 91 64.5 180.5t60.5 182.5z" />
    <glyph glyph-name="k.1" horiz-adv-x="150" 
d="M177 739q3 8 12.5 5.5t6.5 -11.5q-5 -12 -8.5 -24.5t-7.5 -24.5q-32 -95 -62.5 -189t-61.5 -189q-5 -14 -9 -27.5t-9 -27.5q31 23 63 43q8 5 13 -3.5t-3 -13.5q-22 -14 -43 -28.5t-40 -32.5l9 -27l7 -22v-1q0 -3 1 -4l1 -2q0 -1 0.5 -1.5t0.5 -1.5v-1q2 -2 2 -4
q1 -1 1 -3q2 -3 6 -11q1 -2 2 -3t2 -3l1 -2l1 -1l4 -3v-1q1 0 2 -1q1 0 1 -0.5t1 -0.5l1 -1h3h2h5q4 1 10 4q12 7 23 19q11 11 19 23.5t16 25.5q2 4 6 4.5t7 -1.5t4.5 -5.5t-0.5 -7.5l-10 -17q-10 -14 -20.5 -27.5t-24.5 -24.5q-16 -13 -34 -13h-2q-6 0 -9 1q-1 0 -1 0.5
t-1 0.5q-8 3 -16 12q-1 0 -1 1q-2 2 -3 4q-12 16 -18 36t-8 26v4l-1 -2q-21 -64 -42 -127t-41 -127q-3 -9 -12.5 -6.5t-6.5 11.5q4 12 7.5 24t8.5 25q31 94 61 187.5t61 187.5q32 95 62.5 189t61.5 190z" />
  </font>
</defs>
</svg>
