<?xml version="1.0" standalone="no"?>
<!DOCTYPE svg PUBLIC "-//W3C//DTD SVG 1.1//EN" "http://www.w3.org/Graphics/SVG/1.1/DTD/svg11.dtd" >
<svg xmlns="http://www.w3.org/2000/svg">
<metadata>Generated by IcoMoon</metadata>
<defs>
<font id="lyria" horiz-adv-x="1024">
<font-face units-per-em="1024" ascent="960" descent="-64" />
<missing-glyph horiz-adv-x="1024" />
<glyph unicode="&#x20;" horiz-adv-x="512" d="" />
<glyph unicode="&#xe900;" glyph-name="home" d="M810.669 149.338v392.587l-298.669 235.606-298.667-235.606v-392.587h597.336zM896 106.669c0-23.565-19.104-42.662-42.669-42.662h-682.664c-23.564 0-42.667 19.098-42.667 42.662v455.942c0 13.064 5.985 25.408 16.241 33.499l341.335 269.263c15.492 12.225 37.355 12.225 52.847 0l341.333-269.263c10.259-8.091 16.243-20.435 16.243-33.499v-455.942zM298.667 448.004h85.333c0-70.694 57.306-128 128-128s128 57.306 128 128h85.331c0-117.82-95.512-213.335-213.331-213.335-117.821 0-213.333 95.515-213.333 213.335z" />
<glyph unicode="&#xe901;" glyph-name="search" d="M769.325 251.014l182.726-182.726-60.339-60.339-182.726 182.726c-65.702-52.563-149.026-84.006-239.65-84.006-211.968 0-384 172.032-384 383.997 0 211.968 172.032 384 384 384 211.97 0 384.002-172.032 384.002-384 0-90.624-31.45-173.949-84.013-239.652zM683.725 282.675c52.173 53.768 84.275 127.112 84.275 207.991 0 165.013-133.651 298.666-298.664 298.666s-298.666-133.653-298.666-298.666c0-165.014 133.653-298.666 298.666-298.666 80.879 0 154.223 32.109 207.989 84.282l6.4 6.394zM519.593 653.813c-29.632-13.379-50.257-43.188-50.257-77.814 0-47.13 38.204-85.333 85.334-85.333 34.624 0 64.435 20.625 77.815 50.256 4.886-15.888 7.516-32.763 7.516-50.256 0-94.255-76.409-170.666-170.664-170.666-94.257 0-170.666 76.411-170.666 170.666 0 94.257 76.41 170.666 170.666 170.666 17.494 0 34.368-2.631 50.257-7.519z" />
<glyph unicode="&#xe902;" glyph-name="settings" d="M85.336 448.008c0 36.886 4.681 72.678 13.481 106.816 46.518-2.412 92.694 20.742 117.583 63.85 24.869 43.075 21.857 94.596-3.439 133.667 50.873 49.993 114.223 87.329 184.952 106.909 21.17-41.494 64.31-69.909 114.090-69.909s92.92 28.415 114.091 69.909c70.726-19.58 134.079-56.916 184.953-106.909-25.299-39.070-28.314-90.592-3.443-133.667 24.89-43.108 71.066-66.262 117.587-63.85 8.8-34.138 13.478-69.93 13.478-106.816s-4.678-72.678-13.478-106.816c-46.522 2.411-92.698-20.744-117.587-63.848-24.87-43.078-21.856-94.598 3.443-133.67-50.874-49.99-114.227-87.328-184.953-106.906-21.171 41.491-64.312 69.907-114.091 69.907s-92.92-28.416-114.090-69.907c-70.729 19.578-134.079 56.915-184.952 106.906 25.295 39.072 28.308 90.592 3.439 133.67-24.888 43.104-71.065 66.259-117.583 63.848-8.8 34.138-13.481 69.931-13.481 106.816zM290.3 320.008c26.884-46.568 34.591-100.098 24.078-150.351 17.399-12.378 35.92-23.104 55.326-32.019 38.267 34.259 88.504 54.368 142.298 54.368s104.030-20.109 142.295-54.368c19.405 8.915 37.926 19.642 55.328 32.019-10.515 50.253-2.81 103.782 24.083 150.351 26.88 46.563 69.389 80 118.157 96.022 0.973 10.573 1.472 21.235 1.472 31.978 0 10.739-0.499 21.406-1.472 31.974-48.768 16.022-91.277 49.459-118.157 96.025-26.893 46.565-34.598 100.098-24.083 150.348-17.402 12.381-35.923 23.107-55.328 32.022-38.265-34.258-88.501-54.37-142.295-54.37s-104.031 20.112-142.298 54.37c-19.406-8.915-37.927-19.642-55.326-32.022 10.513-50.25 2.806-103.782-24.078-150.348s-69.389-80.003-118.159-96.025c-0.979-10.568-1.472-21.235-1.472-31.974 0-10.743 0.493-21.405 1.472-31.978 48.769-16.022 91.275-49.459 118.159-96.022zM512.003 320.008c-70.694 0-128 57.306-128 128 0 70.691 57.306 127.999 128 127.999s127.997-57.309 127.997-127.999c0-70.694-57.303-128-127.997-128zM512.003 405.342c23.565 0 42.667 19.101 42.667 42.666s-19.102 42.667-42.667 42.667c-23.565 0-42.667-19.102-42.667-42.667s19.102-42.666 42.667-42.666z" />
<glyph unicode="&#xe903;" glyph-name="customer" d="M850.694 618.668h45.306c47.13 0 85.338-38.205 85.338-85.334v-170.666c0-47.128-38.208-85.336-85.338-85.336h-45.306c-20.998-168.371-164.627-298.662-338.693-298.662v85.331c141.388 0 255.999 114.618 255.999 256.001v256c0 141.385-114.611 256-255.999 256-141.385 0-256-114.615-256-256v-298.669h-128c-47.128 0-85.333 38.208-85.333 85.336v170.666c0 47.128 38.205 85.334 85.333 85.334h45.308c20.996 168.376 164.628 298.666 338.692 298.666 174.066 0 317.695-130.291 338.693-298.666zM128.001 533.334v-170.666h42.667v170.666h-42.667zM853.338 533.334v-170.666h42.662v170.666h-42.662zM331.071 286.509l45.233 72.374c39.34-24.64 85.855-38.882 135.698-38.882s96.358 14.242 135.698 38.882l45.235-72.374c-52.454-32.851-114.476-51.84-180.933-51.84s-128.477 18.989-180.931 51.84z" />
<glyph unicode="&#xe904;" glyph-name="filter" d="M263.286 192c17.571 49.715 64.984 85.331 120.716 85.331s103.147-35.616 120.717-85.331h433.949v-85.331h-433.949c-17.57-49.715-64.986-85.338-120.717-85.338s-103.145 35.622-120.716 85.338h-177.951v85.331h177.951zM519.286 490.666c17.57 49.715 64.986 85.333 120.714 85.333 55.731 0 103.149-35.619 120.717-85.333h177.952v-85.334h-177.952c-17.568-49.715-64.986-85.332-120.717-85.332-55.729 0-103.144 35.617-120.714 85.332h-433.95v85.334h433.95zM263.286 789.332c17.571 49.715 64.984 85.334 120.716 85.334s103.147-35.619 120.717-85.334h433.949v-85.333h-433.949c-17.57-49.715-64.986-85.333-120.717-85.333s-103.145 35.619-120.716 85.333h-177.951v85.333h177.951zM384.003 703.999c23.564 0 42.667 19.103 42.667 42.667s-19.103 42.666-42.667 42.666c-23.564 0-42.667-19.103-42.667-42.666s19.103-42.667 42.667-42.667zM640 405.332c23.565 0 42.669 19.102 42.669 42.667s-19.104 42.667-42.669 42.667c-23.562 0-42.664-19.102-42.664-42.667s19.102-42.667 42.664-42.667zM384.003 106.669c23.564 0 42.667 19.098 42.667 42.662s-19.103 42.669-42.667 42.669c-23.564 0-42.667-19.104-42.667-42.669s19.103-42.662 42.667-42.662z" />
<glyph unicode="&#xe905;" glyph-name="play" d="M219.429 705.27v-514.623l441.103 257.311-441.103 257.312zM128.142 927.875l768.56-448.327c17.445-10.174 23.34-32.571 13.166-50.015-3.182-5.449-7.717-9.984-13.166-13.166l-768.56-448.331c-17.447-10.174-39.84-4.279-50.017 13.166-3.263 5.595-4.982 11.952-4.982 18.425v896.659c0 20.198 16.374 36.571 36.571 36.571 6.475 0 12.834-1.719 18.428-4.982z" />
<glyph unicode="&#xe906;" glyph-name="loading" d="M85.336 490.667h170.667v-255.998h-170.667v255.998zM768 405.333h170.669v-170.664h-170.669v170.664zM426.669 704h170.666v-469.331h-170.666v469.331z" />
<glyph unicode="&#xe907;" glyph-name="mic" d="M511.991 832c-70.694 0-128.002-57.308-128.002-128v-170.667c0-70.694 57.307-128 128.002-128 70.69 0 128 57.306 128 128v170.667c0 70.692-57.31 128-128 128zM511.991 917.333c117.82 0 213.333-95.513 213.333-213.333v-170.667c0-117.82-95.514-213.333-213.333-213.333-117.823 0-213.335 95.514-213.335 213.333v170.667c0 117.821 95.512 213.333 213.335 213.333zM130.333 490.667h86.014c20.703-144.738 145.179-256 295.644-256 150.46 0 274.935 111.262 295.642 256h86.012c-19.674-177.988-160.998-319.313-338.987-338.991v-173.009h-85.333v173.009c-177.991 19.678-319.316 161.003-338.991 338.991z" />
<glyph unicode="&#xe908;" glyph-name="send" d="M926.993 833.832l-232.67-814.346c-6.443-22.549-20.292-23.573-30.596-2.961l-194.402 388.8-387.291 154.918c-21.746 8.698-21.477 21.716 1.452 29.359l814.345 271.448c22.549 7.516 35.482-5.105 29.163-27.218zM812.164 742.545l-521.52-173.84 240.496-96.198 129.737-259.473 151.287 529.51z" />
<glyph unicode="&#xe909;" glyph-name="more" d="M362.667 661.333c35.346 0 64 28.654 64 64s-28.654 64-64 64c-35.346 0-64-28.654-64-64s28.654-64 64-64zM362.667 384c35.346 0 64 28.655 64 64s-28.654 64-64 64c-35.346 0-64-28.655-64-64s28.654-64 64-64zM426.667 170.667c0-35.345-28.654-64-64-64s-64 28.655-64 64c0 35.345 28.654 64 64 64s64-28.655 64-64zM661.333 661.333c35.345 0 64 28.654 64 64s-28.655 64-64 64c-35.345 0-64-28.654-64-64s28.655-64 64-64zM725.333 448c0-35.345-28.655-64-64-64s-64 28.655-64 64c0 35.345 28.655 64 64 64s64-28.655 64-64zM661.333 106.667c35.345 0 64 28.655 64 64s-28.655 64-64 64c-35.345 0-64-28.655-64-64s28.655-64 64-64z" />
<glyph unicode="&#xe90a;" glyph-name="list" d="M661.333 746.667c-82.475 0-149.333-66.859-149.333-149.333s66.859-149.333 149.333-149.333c82.475 0 149.333 66.859 149.333 149.333s-66.859 149.333-149.333 149.333zM426.667 597.333c0 129.603 105.062 234.667 234.667 234.667s234.667-105.064 234.667-234.667c0-49.387-15.258-95.211-41.314-133.013l114.15-114.15-60.339-60.339-114.15 114.15c-37.803-26.057-83.627-41.314-133.013-41.314-129.604 0-234.667 105.062-234.667 234.667zM128 789.333h213.333v-85.333h-213.333v85.333zM128 490.667h213.333v-85.333h-213.333v85.333zM896 192v-85.333h-768v85.333h768z" />
<glyph unicode="&#xe90b;" glyph-name="notification" d="M213.333 192h597.336v297.326c0 165.69-133.722 300.006-298.669 300.006-164.949 0-298.667-134.317-298.667-300.006v-297.326zM512 874.666c212.077 0 384-172.522 384-385.34v-382.657h-768v382.657c0 212.818 171.923 385.34 384 385.34zM405.333 64h213.334c0-58.912-47.757-106.669-106.667-106.669s-106.667 47.757-106.667 106.669z" />
<glyph unicode="&#xe90c;" glyph-name="favorite" d="M512.045 766.783c100.224 89.964 255.103 86.977 351.641-9.763 96.544-96.741 99.859-250.865 10.067-351.388l-361.756-362.323-361.75 362.323c-89.785 100.523-86.429 254.89 10.068 351.388 96.606 96.606 251.214 99.86 351.729 9.763zM803.29 696.742c-63.962 64.092-167.229 66.692-234.242 6.538l-56.964-51.13-56.995 51.091c-67.205 60.238-170.284 57.588-234.433-6.561-63.562-63.562-66.753-165.364-8.177-232.603l299.519-299.994 299.528 299.994c58.598 67.264 55.418 168.872-8.237 232.666z" />
<glyph unicode="&#xe90d;" glyph-name="chat" d="M311.092 71.501l-225.757-50.17 50.168 225.76c-32.016 59.872-50.168 128.268-50.168 200.908 0 235.642 191.025 426.667 426.667 426.667 235.639 0 426.666-191.025 426.666-426.667s-191.027-426.668-426.666-426.668c-72.64 0-141.039 18.15-200.91 50.17z" />
<glyph unicode="&#xe90e;" glyph-name="arrow-left" horiz-adv-x="768" d="M725.332 838.827l-421.944-390.827 421.944-391.68-129.9-120.32-552.767 512 552.767 512 129.9-121.173z" />
<glyph unicode="&#xe90f;" glyph-name="body-type" d="M630.636 840.7c0-65.888-53.185-119.3-118.791-119.3s-118.791 53.413-118.791 119.3c0 65.888 53.185 119.3 118.791 119.3s118.791-53.413 118.791-119.3zM766.573 350.169l-29.813 208.585c-10.835 71.182-69.459 125.762-141.654 130.268l-0.438 0.022h-10.174c-21.198-10.448-46.146-16.561-72.521-16.561s-51.323 6.112-73.505 16.996l0.984-0.436h-10.174c-72.69-4.537-131.35-59.189-142.037-129.595l-0.106-0.848-29.762-208.585c-0.12-0.807-0.189-1.739-0.189-2.687 0-6.866 3.598-12.891 9.012-16.294l0.080-0.047 85.367-52.909 39.784-278.996c4.085-34.75 32.674-61.655 67.829-63.080l0.14-0.004h105.462c35.211 1.44 63.742 28.235 67.884 62.54l0.034 0.341 39.835 279.199 85.367 52.909c5.349 3.463 8.838 9.401 8.838 16.153 0 1.069-0.087 2.117-0.256 3.139l0.015-0.111z" />
<glyph unicode="&#xe910;" glyph-name="drinking" d="M705.192 507.634l108.612 257.501c8.981-3.731 19.445-0.345 24.388 8.216 3.752 6.499 3.33 14.263-0.434 20.187l-0.068 0.098 12.333 6.292c3.371 1.633 6.369 4.317 8.428 7.882 5.476 9.485 2.226 21.613-7.258 27.088-0.019 0.011-0.037 0.021-0.056 0.032l0.003-0.002-137.569 79.425c-0.016 0.009-0.034 0.020-0.053 0.031-9.485 5.476-21.613 2.226-27.088-7.258-2.058-3.565-2.884-7.504-2.609-11.322l-0.004 0.083 0.674-13.379c-7.131 0.308-14.066-3.209-17.818-9.708-4.943-8.561-2.643-19.316 4.999-25.17l0.080-0.058-168.696-222.811c-61.249-6.672-117.963-41.073-150.765-97.887-0.010-0.017-0.019-0.034-0.029-0.050l0.001 0.003-178.759-309.62c-21.869-37.997-8.866-86.525 29.067-108.494l0.005-0.003 206.353-119.138c37.997-21.869 86.525-8.866 108.494 29.067l0.003 0.005 178.759 309.62c32.616 56.835 33.925 123.076 9.299 178.752l-0.291 0.619zM528.709 331.61c2.582-0.252 5.286-1.091 7.803-2.544 9.485-5.476 12.734-17.604 7.258-27.088-1.453-2.517-3.375-4.595-5.592-6.187l0.106 0.083c-12.551-11.488-26.16-19.888-40.741-25.672l0.319 0.133c-8.002-2.177-16.833-1.285-24.579 3.187-4.027 2.325-7.362 5.387-9.934 8.918l0.137-0.173-9.653-16.72c9.806-0.138 21.456-1.026 33.075-2.576l2.191-0.384c2.582-0.252 5.286-1.091 7.803-2.544 9.485-5.476 12.734-17.604 7.258-27.088-1.453-2.517-3.375-4.595-5.592-6.187l0.106 0.083c-12.552-11.487-26.161-19.887-40.742-25.673l0.32 0.133c-8.002-2.177-16.833-1.285-24.579 3.187-4.027 2.325-7.362 5.387-9.934 8.918l0.137-0.173-31.132-53.922c-0.138-0.272-0.308-0.585-0.487-0.896-5.49-9.51-17.65-12.768-27.16-7.277s-12.768 17.65-7.277 27.16c0.179 0.311 0.366 0.615 0.559 0.912l-0.027-0.042 31.21 54.058c-4.125 0.429-8.445 1.787-12.472 4.111-7.746 4.472-12.934 11.675-15.049 19.69l-0.001 0.003c-2.238 15.177-1.768 31.163 1.662 46.841l0.244 0.936c0.265 2.543 1.102 5.207 2.536 7.69 5.49 9.51 17.65 12.768 27.16 7.277 2.483-1.433 4.54-3.322 6.126-5.498l-0.085 0.107c8.58-10.993 15.174-20.637 21.196-30.584l-0.999 1.524 9.653 16.72c-4.125 0.429-8.445 1.787-12.472 4.111-7.746 4.472-12.934 11.675-15.049 19.69l-0.001 0.003c-2.237 15.177-1.767 31.163 1.662 46.84l0.244 0.936c0.252 2.582 1.091 5.286 2.544 7.803 5.476 9.485 17.604 12.734 27.088 7.258 2.517-1.453 4.595-3.375 6.187-5.592l-0.083 0.106c8.58-10.99 15.174-20.635 21.194-30.583l-0.998 1.522 9.653 16.72c-4.125 0.429-8.445 1.787-12.472 4.111-7.746 4.472-12.934 11.675-15.049 19.69l-0.001 0.003c-2.237 15.177-1.767 31.163 1.662 46.84l0.244 0.936c0.265 2.543 1.102 5.207 2.536 7.69 5.49 9.51 17.65 12.768 27.16 7.277 2.483-1.433 4.54-3.322 6.126-5.498l-0.085 0.107c8.58-10.993 15.174-20.637 21.196-30.584l-0.999 1.524 6.2 10.739c-3.718 8.88-3.447 19.207 1.563 28.135l0.010 0.018c10.301 13.688 22.358 24.553 35.773 32.91l-0.655-0.442c6.395 3.797 14.468 4.114 21.258 0.194s10.552-11.070 10.467-18.388l-0.006-0.118c-0.474-15.009-3.855-30.883-10.295-46.062l-0.264-0.586c-5.237-8.819-14.045-14.218-23.498-15.428l-0.097-0.010-6.436-11.147c9.556-0.088 20.934-0.885 32.286-2.313l2.176-0.365c2.582-0.252 5.286-1.091 7.803-2.544 9.485-5.476 12.734-17.604 7.258-27.088-1.453-2.517-3.375-4.595-5.592-6.187l0.106 0.083c-12.552-11.487-26.161-19.887-40.742-25.673l0.32 0.133c-8.002-2.177-16.833-1.285-24.579 3.187-4.027 2.325-7.362 5.387-9.934 8.918l0.137-0.173-9.418-16.312c9.723-0.152 21.288-1.051 32.822-2.606l2.184-0.386z" />
<glyph unicode="&#xe911;" glyph-name="ethnicity" d="M553.514 901.753c-255.459 0-375.675-213.944-375.675-477.871s184.654-477.871 375.675-477.871 375.675 213.944 375.675 477.871-120.152 477.871-375.675 477.871zM496.908 337.668c2.349 2.714 5.798 4.421 9.647 4.421 3.183 0 6.093-1.168 8.325-3.098l-0.016 0.014c9.682-10.533 23.525-17.11 38.905-17.11s29.223 6.577 38.87 17.072l0.034 0.038c2.028 1.425 4.549 2.278 7.268 2.278 7.033 0 12.735-5.702 12.735-12.735 0-3.341-1.287-6.382-3.392-8.653l0.008 0.008c-14.092-14.464-33.76-23.436-55.523-23.436s-41.432 8.972-55.507 23.419l-0.016 0.017c-2.714 2.349-4.421 5.798-4.421 9.647 0 3.183 1.168 6.093 3.098 8.325l-0.014-0.016zM287.358 446.486c6.803 45.623 45.708 80.22 92.694 80.22 3.617 0 7.186-0.205 10.696-0.604l-0.43 0.040c3.118 0.368 6.73 0.578 10.392 0.578 46.991 0 85.9-34.604 92.633-79.72l0.063-0.514c-6.797-45.63-45.705-80.234-92.696-80.234-3.661 0-7.273 0.21-10.825 0.619l0.433-0.041c-3.080-0.359-6.649-0.564-10.266-0.564-46.986 0-85.891 34.597-92.631 79.706l-0.063 0.514zM668.891 150.658c-29.421-29.5-70.108-47.751-115.058-47.751s-85.637 18.251-115.055 47.747l-0.004 0.004c-2.64 2.93-4.255 6.829-4.255 11.105 0 5.486 2.658 10.351 6.756 13.377l0.045 0.032c22.173 21.432 50.272 36.866 81.602 43.607l1.11 0.2c0.498 0.025 1.081 0.040 1.668 0.040 7.147 0 13.797-2.129 19.35-5.788l-0.132 0.082c2.405-1.592 5.358-2.54 8.532-2.54s6.127 0.948 8.59 2.576l-0.058-0.036c5.42 3.577 12.070 5.706 19.217 5.706 0.587 0 1.17-0.014 1.749-0.043l-0.082 0.003c32.605-6.946 60.845-22.477 83.137-44.103l-0.043 0.041c4.144-3.059 6.802-7.924 6.802-13.409 0-4.276-1.615-8.175-4.268-11.12l0.013 0.015zM717.156 366.83c-3.118-0.368-6.73-0.578-10.392-0.578-46.991 0-85.9 34.604-92.633 79.72l-0.063 0.514c6.797 45.63 45.705 80.234 92.696 80.234 3.661 0 7.273-0.21 10.825-0.619l-0.433 0.041c3.118 0.368 6.73 0.578 10.392 0.578 46.991 0 85.9-34.604 92.633-79.72l0.063-0.514c-6.797-45.63-45.705-80.234-92.696-80.234-3.661 0-7.273 0.21-10.825 0.619l0.433-0.041zM589.808 151.040h-71.76c-7.561 0-13.69 6.129-13.69 13.69s6.129 13.69 13.69 13.69h71.76c7.561 0 13.69-6.129 13.69-13.69s-6.129-13.69-13.69-13.69v0zM950.711 61.897l10.952-20.057c1.946-3.512 4.766-6.331 8.171-8.223l0.106-0.054 20.057-10.952c6.514-3.588 10.854-10.408 10.854-18.243s-4.34-14.655-10.747-18.188l-0.107-0.054-20.057-10.952c-3.512-1.946-6.331-4.766-8.223-8.171l-0.054-0.106-10.952-20.057c-3.588-6.514-10.408-10.854-18.243-10.854s-14.655 4.34-18.188 10.747l-0.054 0.107-10.952 20.057c-1.943 3.514-4.763 6.334-8.171 8.223l-0.106 0.054-20.057 10.952c-6.514 3.588-10.854 10.408-10.854 18.243s4.34 14.655 10.747 18.188l0.107 0.054 20.057 10.952c3.514 1.943 6.334 4.763 8.223 8.171l0.054 0.106 10.952 20.057c3.588 6.514 10.408 10.854 18.243 10.854s14.655-4.34 18.188-10.747l0.054-0.107zM109.773 819.55l10.952-20.057c1.943-3.514 4.763-6.334 8.171-8.223l0.106-0.054 20.057-10.952c6.514-3.588 10.854-10.408 10.854-18.243s-4.34-14.655-10.747-18.188l-0.107-0.054-20.057-10.952c-3.514-1.943-6.334-4.763-8.223-8.171l-0.054-0.106-10.952-20.057c-3.588-6.514-10.408-10.854-18.243-10.854s-14.655 4.34-18.188 10.747l-0.054 0.107-10.952 20.057c-1.946 3.512-4.766 6.331-8.171 8.223l-0.106 0.054-20.057 10.952c-6.514 3.588-10.854 10.408-10.854 18.243s4.34 14.655 10.747 18.188l0.107 0.054 20.057 10.952c3.512 1.946 6.331 4.766 8.223 8.171l0.054 0.106 10.952 20.057c3.597 6.481 10.4 10.795 18.211 10.795s14.614-4.314 18.157-10.689l0.054-0.106zM208.021 952.946l7.195-13.117c1.27-2.298 3.114-4.142 5.343-5.377l0.070-0.035 13.117-7.195c4.243-2.348 7.069-6.797 7.069-11.907s-2.826-9.559-6.999-11.872l-0.070-0.035-13.117-7.195c-2.298-1.27-4.142-3.114-5.377-5.343l-0.035-0.070-7.195-13.117c-2.348-4.243-6.797-7.069-11.907-7.069s-9.559 2.826-11.872 6.999l-0.035 0.070-7.195 13.117c-1.27 2.298-3.114 4.142-5.343 5.377l-0.070 0.035-13.117 7.195c-4.243 2.348-7.069 6.797-7.069 11.907s2.826 9.559 6.999 11.872l0.070 0.035 13.117 7.195c2.298 1.27 4.142 3.114 5.377 5.343l0.035 0.070 7.195 13.117c2.348 4.243 6.797 7.069 11.907 7.069s9.559-2.826 11.872-6.999l0.035-0.070z" />
<glyph unicode="&#xe912;" glyph-name="gender" d="M1022.145 629.901c0 0.065 0 0.143 0 0.221 0 182.299-147.783 330.081-330.081 330.081s-330.081-147.783-330.081-330.081c0-49.931 11.086-97.272 30.932-139.697l-0.851 2.026c53.349 23.802 89.873 76.354 89.932 137.443v0.008c0.048 115.913 94.025 209.86 209.944 209.86 115.949 0 209.944-93.995 209.944-209.944s-93.995-209.944-209.944-209.944c-10.546 0-20.911 0.778-31.040 2.279l1.146-0.14c-24.686-38.823-54.566-71.776-89.158-99.013l-0.836-0.634c16.99-6.873 37.086-12.76 57.876-16.683l2.037-0.319v-169.463h-61.906c-0.056 0-0.122 0.001-0.188 0.001-10.972 0-20.482-6.264-25.148-15.411l-0.074-0.16c-1.721-3.424-2.729-7.462-2.729-11.735 0-6.559 2.375-12.564 6.311-17.201l-0.032 0.038 121.881-145.485c5.297-6.153 13.095-10.025 21.798-10.025s16.501 3.872 21.766 9.987l0.032 0.038 121.881 145.485c3.905 4.599 6.279 10.603 6.279 17.162 0 4.273-1.008 8.311-2.799 11.889l0.070-0.154c-4.74 9.307-14.249 15.571-25.222 15.571-0.066 0-0.132 0-0.199-0.001h-61.834v169.525c154.747 29.266 270.22 163.376 270.293 324.468v0.008zM452.038 145.989h-60.037v159.436c154.676 29.375 270.050 163.503 270.050 324.577 0 49.831-11.042 97.083-30.813 139.442l0.851-2.029c-53.419-23.775-90.001-76.365-90.056-137.506v-0.007c-0.094-115.844-94.025-209.717-209.882-209.717-115.915 0-209.882 93.967-209.882 209.882s93.967 209.882 209.882 209.882c10.591 0 20.998-0.784 31.168-2.298l-1.149 0.141c24.762 38.779 54.677 71.706 89.278 98.947l0.84 0.638c-35.673 14.381-77.039 22.724-120.353 22.724-182.299 0-330.081-147.783-330.081-330.081 0-161.105 115.417-295.252 268.076-324.267l2.059-0.326v-159.436h-59.975c-16.579 0-30.019-13.44-30.019-30.019v0-59.975c0-0.056-0.001-0.121-0.001-0.187 0-16.579 13.44-30.019 30.019-30.019 0 0 0 0 0.001 0h59.975v-59.975c0-16.579 13.44-30.019 30.019-30.019v0h59.975c16.579 0 30.019 13.44 30.019 30.019v0 59.975h59.975c16.579 0 30.019 13.44 30.019 30.019v0 59.975c0 0.056 0.001 0.121 0.001 0.187 0 16.557-13.405 29.984-29.954 30.019h-0.003z" />
<glyph unicode="&#xe913;" glyph-name="height" d="M512 908.849v-102.418h204.776v-102.357h-204.776v-102.418h102.418v-102.418h-102.418v-102.418h204.776v-102.418h-204.776v-102.418h102.418v-102.418h-102.418v-102.418c0-28.282 22.927-51.209 51.209-51.209h307.194c28.282 0 51.209 22.927 51.209 51.209v921.704c0 28.282-22.927 51.209-51.209 51.209h-307.194c-28.282 0-51.209-22.927-51.209-51.209v0zM102.388 755.221l153.627 174.807 153.566-174.807h-102.418v-819.224h-102.357v819.224z" />
<glyph unicode="&#xe914;" glyph-name="location" d="M511.968-63.987v0c-78.163 55.153-146.662 114.425-208.858 179.754l-0.541 0.572c-54.591 56.185-102.366 119.467-141.691 188.203l-2.42 4.592c-39.228 66.576-63.225 146.279-65.339 231.413l-0.012 0.605c0.051 231.327 187.59 418.834 418.923 418.834 115.66 0 220.373-46.872 296.18-122.656l-0.001 0.001c75.783-75.38 122.684-179.731 122.684-295.037 0-0.401-0.001-0.803-0.002-1.204v0.062c-2.187-85.689-26.224-165.32-66.714-234.105l1.238 2.275c-41.752-73.325-89.526-136.606-144.329-193.021l0.218 0.226c-62.758-65.891-131.277-125.163-205.119-177.411l-4.343-2.916zM511.968 680.752c-77.072-0.036-139.537-62.523-139.537-139.599 0-77.099 62.501-139.599 139.599-139.599s139.599 62.501 139.599 139.599v0c-0.071 77.092-62.565 139.564-139.658 139.599h-0.004z" />
<glyph unicode="&#xe915;" glyph-name="piercing" d="M1024.001 451.949c-0.202-102.217-30.738-197.261-83.083-276.657l1.174 1.895c-27.383 57.092-78.087 99.276-139.429 114.587l-1.452 0.307c26.776 45.902 42.651 101.012 42.825 159.817v0.051c0 183.359-148.642 332.001-332.001 332.001s-332.001-148.642-332.001-332.001v0c0.187-58.832 16.061-113.916 43.654-161.341l-0.829 1.542c-62.794-15.618-113.497-57.802-140.333-113.63l-0.548-1.265c-51.182 77.476-81.74 172.492-81.978 274.631v0.062c3.364 280.215 231.305 506.078 512 506.078s508.636-225.862 511.997-505.76l0.003-0.318zM272.061-62.026c-82.858 0-150.028 67.17-150.028 150.028s67.17 150.028 150.028 150.028c82.858 0 150.028-67.17 150.028-150.028v0c-0.079-82.826-67.202-149.949-150.020-150.028h-0.007zM752.011-62.026c-82.858 0-150.028 67.17-150.028 150.028s67.17 150.028 150.028 150.028c82.858 0 150.028-67.17 150.028-150.028v0c-0.079-82.826-67.202-149.949-150.020-150.028h-0.007z" />
<glyph unicode="&#xe916;" glyph-name="sexuality" d="M802.141 959.898v-68.212h102.318l-201.84-201.908c-18.243 8.896-39.691 14.097-62.355 14.097-40.002 0-76.22-16.204-102.447-42.406l-25.851-25.851-25.852 25.852c-26.226 26.201-62.444 42.405-102.446 42.405-22.663 0-44.111-5.201-63.217-14.475l0.862 0.377-56.752 56.821 59.754 59.754-51.432 51.227-59.754-59.754-93.655 93.86h102.318v68.212h-221.758v-221.894h68.212v102.318l93.928-93.723-59.822-59.549 51.227-51.227 59.754 59.754 52.387-52.387c-16.845-23.288-26.944-52.42-26.944-83.911 0-0.069 0-0.137 0-0.206v0.011c0.014-62.738 25.454-119.531 66.574-160.639l172.373-172.373v-136.424h-85.197v-68.212h85.333v-85.333h68.212v85.129h85.333v68.212h-85.265v136.424l172.372 172.372c41.121 41.108 66.56 97.902 66.575 160.636v0.003c0 0.054 0 0.117 0 0.181 0 31.408-10.046 60.47-27.1 84.147l0.293-0.427 197.474 197.474v-102.318h68.212v221.962z" />
<glyph unicode="&#xe917;" glyph-name="smoker" d="M678.237 878.167c-12.81 47.387-55.417 81.679-106.033 81.679-26.837 0-51.422-9.64-70.482-25.646l0.169 0.138c-18.925 15.894-43.553 25.549-70.436 25.549-60.677 0-109.865-49.188-109.865-109.865 0-43.185 24.917-80.551 61.158-98.505l0.641-0.287c9.062-52.43 54.203-91.806 108.541-91.806 11.436 0 22.464 1.744 32.834 4.981l-0.78-0.21c20.152-27.206 52.145-44.65 88.212-44.65 42.403 0 79.174 24.11 97.354 59.368l0.287 0.613h10.176c36.198-0.050 68.077-18.494 86.796-46.486l0.239-0.379c5.454-8.113 14.598-13.38 24.972-13.38 16.565 0 29.994 13.429 29.994 29.994 0 0.020 0 0.040 0 0.061v-0.003 20.085c0 0.023 0 0.051 0 0.079 0 106.807-79.601 195.022-182.713 208.557l-1.064 0.114zM267.833 213.688l-199.176-115.020c-15.036-8.812-24.972-24.892-24.972-43.292 0-9.203 2.486-17.826 6.823-25.233l-0.128 0.236 40.17-69.293c8.812-15.036 24.892-24.972 43.292-24.972 9.203 0 17.826 2.486 25.233 6.823l-0.236-0.128 199.176 115.020zM319.787 243.414l458.959 264.988 90.014-155.905-458.959-264.988zM865.362 558.414l-34.613-20.085 89.981-155.86 34.613 20.085c15.036 8.812 24.972 24.892 24.972 43.292 0 9.203-2.486 17.826-6.823 25.233l0.128-0.236-40.17 69.293c-8.824 14.987-24.877 24.886-43.242 24.886-9.142 0-17.711-2.453-25.085-6.737l0.239 0.128z" />
<glyph unicode="&#xe918;" glyph-name="tattoos" d="M794.587 634.64c-5.414 5.179-12.77 8.366-20.87 8.366-11.548 0-21.582-6.478-26.668-15.999l-0.079-0.162c-15.809-30.348-34.558-56.463-56.462-79.554l0.144 0.153c2.116 15.392 3.324 33.179 3.324 51.247 0 0.062 0 0.124 0 0.186v-0.010c-0.682 155.861-88.639 291.020-217.494 359.197l-2.219 1.071c-3.961 2.041-8.644 3.237-13.606 3.237-15.699 0-28.601-11.973-30.074-27.285l-0.010-0.123c-8.505-104.814-62.765-195.439-142.548-252.79l-1.027-0.702-3.263-2.417c-2.236-1.632-4.411-3.203-6.405-4.532l-0.906-0.665c-52.228-37.749-94.394-86.176-123.891-142.302l-1.072-2.24c-28.366-53.608-45.019-117.182-45.019-184.646 0-0.177 0-0.353 0-0.53v0.027c-0.019-1.472-0.030-3.21-0.030-4.951 0-224 181.588-405.588 405.588-405.588s405.588 181.588 405.588 405.588c0 1.74-0.011 3.478-0.033 5.214l0.003-0.263c0.001 0.332 0.002 0.725 0.002 1.118 0 113.613-47.107 216.223-122.854 289.365l-0.117 0.112z" />
</font>
</defs>
</svg>
