<svg xmlns="http://www.w3.org/2000/svg" width="174.073" height="34.771" viewBox="0 0 174.073 34.771">
  <g id="Group_171049" data-name="Group 171049" transform="translate(6769.608 10360.907)">
    <path id="Path_161727" data-name="Path 161727" d="M69.7,32.937a10.7,10.7,0,0,1-8.012-3.066,11.888,11.888,0,0,1-2.9-8.382,12.31,12.31,0,0,1,2.886-8.478,10.211,10.211,0,0,1,7.8-3.177,10.229,10.229,0,0,1,7.677,3.022,11.483,11.483,0,0,1,2.841,8.074V22.77H64.718v.373c0,3.189,2.043,5.331,5.083,5.331a4.405,4.405,0,0,0,4.463-2.79H79.8a7.826,7.826,0,0,1-3.247,5.254A11.61,11.61,0,0,1,69.7,32.937ZM69.533,14.3a4.807,4.807,0,0,0-4.753,4.773h9.4C74.057,16.217,72.189,14.3,69.533,14.3ZM47.485,32.813a7.319,7.319,0,0,1-6.944-4.154h-.124v3.8H34.466V2.643H40.5V14.153h.124a7.21,7.21,0,0,1,6.839-4.194,8.091,8.091,0,0,1,6.6,3.033c1.578,1.992,2.413,4.9,2.413,8.395s-.831,6.393-2.4,8.387A8.062,8.062,0,0,1,47.485,32.813ZM45.4,14.794c-2.942,0-4.918,2.649-4.918,6.591,0,3.992,1.93,6.571,4.918,6.571,3.021,0,4.9-2.518,4.9-6.571C50.3,17.382,48.373,14.794,45.4,14.794ZM30.314,32.461H24.279V10.415a6,6,0,0,0,2.135.884v.364a1.207,1.207,0,0,0,1.559,1.158,7.722,7.722,0,0,0,2.34-1.189V32.459Zm-15.829,0H7.666L0,10.309H6.468l4.609,16.82H11.2l4.587-16.82h6.3l-7.6,22.15Z" transform="translate(-6768.906 -10359.614)" fill="#fff" stroke="rgba(0,0,0,0)" stroke-width="1"/>
    <g id="Group_171045" data-name="Group 171045" transform="translate(-6746.871 -10360.907)">
      <path id="Path_161725" data-name="Path 161725" d="M37.615,0a5.588,5.588,0,0,0-.266,11.169v1.337a.266.266,0,0,0,.344.255A7.959,7.959,0,0,0,43.2,5.588,5.594,5.594,0,0,0,37.615,0Z" transform="translate(-32.028)" fill="#ff366c"/>
      <path id="Path_161726" data-name="Path 161726" d="M141.051,149.333h-2.129a.266.266,0,0,0-.266.266v2.129a.266.266,0,0,0,.266.266h1.33v.8a.266.266,0,0,0,.16.244.27.27,0,0,0,.106.022.266.266,0,0,0,.182-.072,1.921,1.921,0,0,0,.616-1.259V149.6A.266.266,0,0,0,141.051,149.333Zm3.193,0h-2.129a.266.266,0,0,0-.266.266v2.129a.266.266,0,0,0,.266.266h1.33v.8a.266.266,0,0,0,.16.244.27.27,0,0,0,.106.022.266.266,0,0,0,.182-.072,1.921,1.921,0,0,0,.616-1.259V149.6A.266.266,0,0,0,144.244,149.333Z" transform="translate(-135.996 -145.216)" fill="#fafafa"/>
    </g>
    <path id="Path_161728" data-name="Path 161728" d="M96.787,32.977a13.552,13.552,0,0,1-10.31-4.107c-2.487-2.7-3.8-6.62-3.8-11.328s1.32-8.605,3.817-11.311a13.554,13.554,0,0,1,10.3-4.1c7.243,0,12.631,4.614,13.1,11.22h-6.075a6.938,6.938,0,0,0-7.026-6.053c-4.707,0-7.748,4.015-7.748,10.228,0,6.348,2.977,10.291,7.77,10.291a6.761,6.761,0,0,0,7.026-5.7h6.075a11.61,11.61,0,0,1-4.082,7.93A13.952,13.952,0,0,1,96.787,32.977Zm47.754-.164a7.908,7.908,0,0,1-5.29-1.863,6.392,6.392,0,0,1-2.128-4.854c0-3.984,3.06-6.362,8.617-6.7l5.579-.331V17.6c0-2.044-1.39-3.265-3.719-3.265-2.147,0-3.667,1.053-3.967,2.748h-5.517a6.852,6.852,0,0,1,2.761-5.238,11.45,11.45,0,0,1,6.991-2.015,10.891,10.891,0,0,1,6.821,2.025,6.613,6.613,0,0,1,2.56,5.372V32.461h-5.827V29.072H151.3A7.578,7.578,0,0,1,144.542,32.813Zm6.777-10.085-4.669.289c-2.246.165-3.534,1.167-3.534,2.748,0,1.632,1.338,2.686,3.41,2.686,2.688,0,4.793-1.806,4.793-4.112Zm18.659,9.816c-2.658,0-4.428-.447-5.569-1.408s-1.663-2.432-1.663-4.647V14.856h-3.12V10.309h3.12v-5.1h6.034v5.1h4.091v4.547H168.78v10.6c0,1.706.827,2.5,2.6,2.5a9.812,9.812,0,0,0,1.468-.1V32.3A14.1,14.1,0,0,1,169.978,32.544Zm-50.563-.082H113.38V2.643h5.931V14.256h.124a6.878,6.878,0,0,1,2.661-3.226A7.922,7.922,0,0,1,126.4,9.9c4.839,0,7.728,3.105,7.728,8.307V32.459h-6.033V19.485c0-2.959-1.475-4.588-4.154-4.588-2.749,0-4.525,1.93-4.525,4.918V32.461Z" transform="translate(-6768.906 -10359.613)" fill="#b6b6b6" stroke="rgba(0,0,0,0)" stroke-width="1"/>
  </g>
</svg>
