<?xml version="1.0" encoding="utf-8"?>
<!-- Generator: Adobe Illustrator 27.0.0, SVG Export Plug-In . SVG Version: 6.00 Build 0)  -->
<svg version="1.1" id="Layer_1" xmlns="http://www.w3.org/2000/svg" xmlns:xlink="http://www.w3.org/1999/xlink" x="0px" y="0px"
	 viewBox="0 0 300 300" style="enable-background:new 0 0 300 300;" xml:space="preserve">
<path d="M150,6C80.4,6,24,62.4,24,132c0,67.2,52.8,122.6,120,125.8V288c0,3.3,2.7,6,6,6c0.6,0,1.2-0.1,1.8-0.3
	C221.4,272.6,276,201.6,276,132C275.9,62.4,219.5,6.1,150,6z M144,152.8c-0.9,10.9-5.9,21-13.9,28.4c-1.1,1-2.6,1.6-4.1,1.6
	c-0.8,0-1.6-0.2-2.4-0.5c-2.2-1-3.6-3.1-3.6-5.5v-18H90c-3.3,0-6-2.7-6-6v-48c0-3.3,2.7-6,6-6h48c0,0,0,0,0,0c3.3,0,6,2.7,6,6V152.8
	z M216,152.8c-0.9,10.9-5.9,21-13.9,28.4c-1.1,1-2.6,1.6-4.1,1.6c-0.8,0-1.6-0.2-2.4-0.5c-2.2-1-3.6-3.1-3.6-5.5v-18h-30
	c0,0,0,0,0,0c-3.3,0-6-2.7-6-6v-48c0,0,0,0,0,0c0-3.3,2.7-6,6-6h48c3.3,0,6,2.7,6,6V152.8z"/>
</svg>
